<svg width="48" height="48" viewBox="0 0 48 48" fill="none" xmlns="http://www.w3.org/2000/svg">
<path d="M2 8.00689C2 8.00689 8.76316 8.00689 10.5 8.00689C12.2368 8.00689 15.9679 8.00732 17.5 8.00732C19.0321 8.00732 22.7632 8.00689 24.5 8.00689C26.2368 8.00689 33.1579 8.00642 35.5789 8.00689C38 8.00735 46 8.00732 46 8.00732V39.5202V39.9995H2V8.00689Z" fill="#F25858"/>
<path d="M2 25.8848C2 25.8848 8.94737 28.5313 10.6842 28.5313C12.4211 28.5313 17.2574 20.5918 18.7895 20.5918C20.3216 20.5918 24.5789 23.2383 26.3158 23.2383C28.0526 23.2383 34.4211 14.0366 35.5789 13.5345C36.7368 13.0325 46 23.2383 46 23.2383V39.6029V39.9994H2V25.8848Z" fill="#FF8900"/>
<path d="M2 29.4138C2 29.4138 8.94737 31.3987 10.6842 31.3987C12.4211 31.3987 17.2574 25.4441 18.7895 25.4441C20.3216 25.4441 24.5789 27.429 26.3158 27.429C28.0526 27.429 34.4211 20.5277 35.5789 20.1511C36.7368 19.7746 46 27.429 46 27.429V39.7024V39.9998H2V29.4138Z" fill="#005EB7"/>
</svg>
