<svg width="48" height="48" viewBox="0 0 48 48" fill="none" xmlns="http://www.w3.org/2000/svg">
<path d="M8 40L8 8.8C8 8.35817 8.38572 8 8.86153 8L13.2923 8C13.7681 8 14.1538 8.35817 14.1538 8.8L14.1538 40L8 40Z" fill="#FF8B8B"/>
<path d="M16.6153 40L16.6153 8.8C16.6153 8.35817 17.001 8 17.4769 8L21.9076 8C22.3834 8 22.7691 8.35817 22.7691 8.8L22.7691 40L16.6153 40Z" fill="#C2E0FF"/>
<path d="M25.2307 40L25.2307 8.97391C25.2307 8.43603 25.6164 8 26.0922 8L30.523 8C30.9988 8 31.3845 8.43604 31.3845 8.97391L31.3845 40L25.2307 40Z" fill="#88D2CE"/>
<path d="M31.3846 40L31.3846 29.4572C31.3846 28.9661 30.9988 28.568 30.523 28.568L26.0923 28.568C25.6165 28.568 25.2307 28.9661 25.2307 29.4572L25.2307 40L31.3846 40Z" fill="#00A89E"/>
<path d="M22.7692 40L22.7692 29.4572C22.7692 28.9661 22.3835 28.568 21.9077 28.568L17.4769 28.568C17.0011 28.568 16.6154 28.9661 16.6154 29.4572L16.6154 40L22.7692 40Z" fill="#1D91FF"/>
<path d="M14.1539 40L14.1539 25.2444C14.1539 24.5572 13.7683 24 13.2927 24L8.86371 24C8.38809 24 8.00252 24.5572 8.00252 25.2444L8.00252 40L14.1539 40Z" fill="#F25858"/>
<path d="M33.846 40L33.846 8.8C33.846 8.35817 34.2317 8 34.7075 8L39.1383 8C39.6141 8 39.9998 8.35817 39.9998 8.8L39.9998 40L33.846 40Z" fill="#FFD29E"/>
<path d="M39.9999 40L39.9999 34.7323C39.9999 34.4869 39.6142 34.288 39.1384 34.288L34.7076 34.288C34.2318 34.288 33.8461 34.4869 33.8461 34.7323L33.8461 40L39.9999 40Z" fill="#FF8900"/>
</svg>
