<svg width="48" height="48" viewBox="0 0 48 48" fill="none" xmlns="http://www.w3.org/2000/svg">
<path d="M8 8L39.2 8C39.6418 8 40 8.38572 40 8.86153V13.2923C40 13.7681 39.6418 14.1538 39.2 14.1538L8 14.1538L8 8Z" fill="#FF8B8B"/>
<path d="M8 16.6152L39.2 16.6152C39.6418 16.6152 40 17.001 40 17.4768V21.9075C40 22.3833 39.6418 22.769 39.2 22.769L8 22.769L8 16.6152Z" fill="#C2E0FF"/>
<path d="M8 25.2305L39.0261 25.2305C39.564 25.2305 40 25.6162 40 26.092V30.5227C40 30.9986 39.564 31.3843 39.0261 31.3843L8 31.3843L8 25.2305Z" fill="#88D2CE"/>
<path d="M8 31.3848H18.5428C19.0339 31.3848 19.432 30.999 19.432 30.5232V26.0925C19.432 25.6167 19.0339 25.231 18.5428 25.231H8V31.3848Z" fill="#00A89E"/>
<path d="M8 22.7695H18.5428C19.0339 22.7695 19.432 22.3838 19.432 21.908V17.4773C19.432 17.0014 19.0339 16.6157 18.5428 16.6157H8V22.7695Z" fill="#1D91FF"/>
<path d="M8 14.1543L22.7556 14.1543C23.4428 14.1543 24 13.7687 24 13.2931V8.86414C24 8.38852 23.4428 8.00295 22.7556 8.00295L8 8.00295V14.1543Z" fill="#F25858"/>
<path d="M8 33.8457L39.2 33.8457C39.6418 33.8457 40 34.2314 40 34.7072V39.138C40 39.6138 39.6418 39.9995 39.2 39.9995L8 39.9995L8 33.8457Z" fill="#FFD29E"/>
<path d="M8 40H13.2677C13.5131 40 13.712 39.6143 13.712 39.1385V34.7077C13.712 34.2319 13.5131 33.8462 13.2677 33.8462H8V40Z" fill="#FF8900"/>
</svg>
