<svg width="48" height="48" viewBox="0 0 48 48" fill="none" xmlns="http://www.w3.org/2000/svg">
<path d="M2 8.00005C2 8.00005 8.76316 8.00005 10.5 8.00005C12.2368 8.00005 15.9679 8.00048 17.5 8.00048C19.0321 8.00048 22.7632 8.00005 24.5 8.00005C26.2368 8.00005 33.1579 7.99959 35.5789 8.00005C38 8.00051 46 8.00048 46 8.00048V39.5204V39.9998H2V8.00005Z" fill="#F25858"/>
<path d="M2 25.882C2 25.882 8.94737 28.5291 10.6842 28.5291C12.4211 28.5291 17.2574 20.5878 18.7895 20.5878C20.3216 20.5878 24.5789 23.2349 26.3158 23.2349C28.0526 23.2349 34.4211 14.0312 35.5789 13.529C36.7368 13.0268 46 23.2349 46 23.2349V39.6031V39.9997H2V25.882Z" fill="#FF8900"/>
<path d="M2 29.4117C2 29.4117 8.94737 31.397 10.6842 31.397C12.4211 31.397 17.2574 25.4411 18.7895 25.4411C20.3216 25.4411 24.5789 27.4264 26.3158 27.4264C28.0526 27.4264 34.4211 20.5236 35.5789 20.1469C36.7368 19.7703 46 27.4264 46 27.4264V39.7025V40H2V29.4117Z" fill="#005EB7"/>
</svg>
