<svg width="48" height="48" viewBox="0 0 48 48" fill="none" xmlns="http://www.w3.org/2000/svg">
<path d="M11.2632 23.0016C12.4211 23.0016 15.3158 28.617 17.0526 28.617C18.7895 28.617 21.8889 14.5025 23.4211 14.5025C24.9532 14.5025 29.2105 20.2698 30.9474 20.2698C32.6842 20.2698 36.7368 8.88711 37.8947 8.12826C39.0526 7.36941 40.2105 9.94948 41.9474 16.6273C43.6842 23.3051 46 39.4004 46 39.4004V39.9997H2L7.21053 29.3759C7.21053 29.3759 10.1053 23.0016 11.2632 23.0016Z" fill="#FF8900"/>
<path d="M11.2632 30.326C12.4211 30.326 15.3158 33.5219 17.0526 33.5219C18.7895 33.5219 21.8889 25.4888 23.4211 25.4888C24.9532 25.4888 29.2105 28.7712 30.9474 28.7712C32.6842 28.7712 36.7368 22.2929 37.8947 21.861C39.0526 21.4291 40.2105 22.8975 41.9474 26.6981C43.6842 30.4987 46 39.6591 46 39.6591V40.0002H2L7.21053 33.9538C7.21053 33.9538 10.1053 30.326 11.2632 30.326Z" fill="#005EB7"/>
</svg>
