<svg width="48" height="48" viewBox="0 0 48 48" fill="none" xmlns="http://www.w3.org/2000/svg">
<path d="M8 14H39C39.5523 14 40 13.5523 40 13V9C40 8.44772 39.5523 8 39 8H8V14Z" fill="#F25858"/>
<path d="M8 16.7385H24.3429C24.7847 16.7385 25.1429 17.1242 25.1429 17.6001V22.0308C25.1429 22.5066 24.7847 22.8924 24.3429 22.8924H8V16.7385Z" fill="#1D91FF"/>
<path d="M8 25.4773H33.6308C33.9938 25.4773 34.288 25.863 34.288 26.3389V30.7696C34.288 31.2454 33.9938 31.6312 33.6308 31.6312H8V25.4773Z" fill="#00A89E"/>
<path d="M8 40H13C13.5523 40 14 39.5523 14 39V35C14 34.4477 13.5523 34 13 34H8V40Z" fill="#FF8900"/>
</svg>
