<svg width="48" height="48" viewBox="0 0 48 48" fill="none" xmlns="http://www.w3.org/2000/svg">
<g clip-path="url(#clip0_5778_3180)">
<path fill-rule="evenodd" clip-rule="evenodd" d="M36 17.7693C37.5294 17.7693 38.7693 16.5294 38.7693 15C38.7693 13.4706 37.5294 12.2308 36 12.2308C34.4706 12.2308 33.2307 13.4706 33.2307 15C33.2307 16.5294 34.4706 17.7693 36 17.7693ZM36 19C38.2091 19 40 17.2091 40 15C40 12.7909 38.2091 11 36 11C33.7909 11 32 12.7909 32 15C32 17.2091 33.7909 19 36 19Z" fill="#005EB7"/>
<path fill-rule="evenodd" clip-rule="evenodd" d="M14.5 37.9999C16.9853 37.9999 19.0001 35.9853 19.0001 33.5C19.0001 31.0147 16.9853 28.9999 14.5 28.9999C12.0147 28.9999 10.0001 31.0147 10.0001 33.5C10.0001 35.9853 12.0147 37.9999 14.5 37.9999ZM14.5 40C18.0898 40 21 37.0898 21 33.5C21 29.9102 18.0898 27 14.5 27C10.9102 27 8 29.9102 8 33.5C8 37.0898 10.9102 40 14.5 40Z" fill="#005EB7"/>
<path d="M25 15.5C25 19.6421 21.6421 23 17.5 23C13.3579 23 10 19.6421 10 15.5C10 11.3579 13.3579 8 17.5 8C21.6421 8 25 11.3579 25 15.5Z" fill="#0787FF"/>
<path d="M38 30.5C38 33.5376 35.5376 36 32.5 36C29.4624 36 27 33.5376 27 30.5C27 27.4624 29.4624 25 32.5 25C35.5376 25 38 27.4624 38 30.5Z" fill="#0787FF"/>
</g>
<defs>
<clipPath id="clip0_5778_3180">
<rect width="48" height="48" fill="white"/>
</clipPath>
</defs>
</svg>
