<svg width="48" height="48" viewBox="0 0 48 48" fill="none" xmlns="http://www.w3.org/2000/svg">
<g clip-path="url(#clip0_7900_30895)">
<path fill-rule="evenodd" clip-rule="evenodd" d="M34 17.7693C35.5294 17.7693 36.7693 16.5294 36.7693 15C36.7693 13.4706 35.5294 12.2308 34 12.2308C32.4706 12.2308 31.2307 13.4706 31.2307 15C31.2307 16.5294 32.4706 17.7693 34 17.7693ZM34 19C36.2091 19 38 17.2091 38 15C38 12.7909 36.2091 11 34 11C31.7909 11 30 12.7909 30 15C30 17.2091 31.7909 19 34 19Z" fill="#005EB7"/>
<path fill-rule="evenodd" clip-rule="evenodd" d="M16.5 37.9999C18.9853 37.9999 21.0001 35.9853 21.0001 33.5C21.0001 31.0147 18.9853 28.9999 16.5 28.9999C14.0147 28.9999 12.0001 31.0147 12.0001 33.5C12.0001 35.9853 14.0147 37.9999 16.5 37.9999ZM16.5 40C20.0898 40 23 37.0898 23 33.5C23 29.9102 20.0898 27 16.5 27C12.9102 27 10 29.9102 10 33.5C10 37.0898 12.9102 40 16.5 40Z" fill="#005EB7"/>
<path d="M25 15.5C25 19.6421 21.6421 23 17.5 23C13.3579 23 10 19.6421 10 15.5C10 11.3579 13.3579 8 17.5 8C21.6421 8 25 11.3579 25 15.5Z" fill="#0787FF"/>
<path d="M36 28.5C36 31.5376 33.5376 34 30.5 34C27.4624 34 25 31.5376 25 28.5C25 25.4624 27.4624 23 30.5 23C33.5376 23 36 25.4624 36 28.5Z" fill="#0787FF"/>
</g>
<defs>
<clipPath id="clip0_7900_30895">
<rect width="48" height="48" fill="white"/>
</clipPath>
</defs>
</svg>
