<svg width="48" height="48" viewBox="0 0 48 48" fill="none" xmlns="http://www.w3.org/2000/svg">
<path d="M14 40L14 9C14 8.44772 13.5523 8 13 8L9.00002 8C8.44773 8 8.00002 8.44772 8.00002 9L8.00002 40H14Z" fill="#F25858"/>
<path d="M16.7385 40V23.6571C16.7385 23.2153 17.1243 22.8571 17.6001 22.8571H22.0309C22.5067 22.8571 22.8924 23.2153 22.8924 23.6571L22.8924 40H16.7385Z" fill="#1D91FF"/>
<path d="M25.4773 40L25.4773 14.3692C25.4773 14.0062 25.8631 13.712 26.3389 13.712L30.7696 13.712C31.2455 13.712 31.6312 14.0062 31.6312 14.3692V40H25.4773Z" fill="#00A89E"/>
<path d="M40 40V35C40 34.4477 39.5523 34 39 34H35C34.4477 34 34 34.4477 34 35V40L40 40Z" fill="#FF8900"/>
</svg>
