<svg width="48" height="48" viewBox="0 0 48 48" fill="none" xmlns="http://www.w3.org/2000/svg">
<path d="M32.3231 33.9284C32.2898 33.9443 32.2643 33.9729 32.2521 34.0077L25.8631 37.0294L20.973 39.3768C20.3269 39.687 19.584 39.7278 18.9078 39.4902C18.2316 39.2527 17.6774 38.7562 17.3673 38.1101L15.2263 33.65C15.2103 33.6168 15.2082 33.5786 15.2204 33.5437C15.2327 33.5089 15.2582 33.4804 15.2915 33.4645L17.0287 32.6305C18.9076 31.7286 19.4153 29.4098 18.4655 27.5438C17.5106 25.6687 15.1313 24.9016 13.233 25.8129L11.9208 26.4428C11.8875 26.4587 11.8493 26.4608 11.8145 26.4486C11.7797 26.4364 11.7512 26.4108 11.7352 26.3776L9.61709 21.9652C8.94314 20.6204 9.49407 18.984 10.8441 18.3206L10.9086 18.2889L15.321 16.1708C15.3543 16.1548 15.3925 16.1527 15.4273 16.1649C15.4621 16.1772 15.4906 16.2027 15.5066 16.236L16.3405 17.9732C17.2368 19.8402 19.6672 20.5195 21.5273 19.5942C23.3562 18.6846 24.222 16.3937 23.3381 14.5524L22.5283 12.8653C22.5123 12.832 22.5102 12.7938 22.5224 12.759C22.5347 12.7242 22.5602 12.6957 22.5935 12.6797L27.0059 10.5616C27.665 10.2476 28.4216 10.2072 29.1104 10.4492C29.7992 10.6912 30.3642 11.1959 30.6822 11.8532L33.0067 16.6956C33.0227 16.7289 33.0512 16.7544 33.086 16.7666C33.1208 16.7789 33.159 16.7768 33.1923 16.7608L34.9778 15.9037C35.3902 15.7059 35.8378 15.5921 36.2946 15.5692C36.7514 15.5462 37.2081 15.6144 37.6383 15.7698C38.0684 15.9253 38.4633 16.1648 38.7998 16.4745C39.1364 16.7841 39.4079 17.1577 39.5986 17.5734C40.3859 19.2891 39.6086 21.3208 37.9071 22.1375L36.1729 22.97C36.1397 22.9859 36.1141 23.0145 36.1019 23.0493C36.0897 23.0841 36.0918 23.1223 36.1078 23.1556L38.4323 27.998C38.7425 28.6442 38.7833 29.3871 38.5457 30.0633C38.3082 30.7395 37.8117 31.2936 37.1656 31.6038L32.3231 33.9284Z" stroke="#0787FF" stroke-width="2" stroke-linecap="round" stroke-linejoin="round"/>
</svg>
