<svg width="48" height="48" viewBox="0 0 48 48" fill="none" xmlns="http://www.w3.org/2000/svg">
<path d="M24 10C24 8.89543 23.1011 7.98712 22.0052 8.12484C19.8717 8.39292 17.807 9.08927 15.9379 10.1796C13.4909 11.6071 11.4668 13.6586 10.0724 16.1246C8.67798 18.5906 7.96332 21.3827 8.00145 24.2153C8.03957 27.048 8.82911 29.8198 10.2894 32.2474C11.7496 34.6749 13.8283 36.6713 16.3128 38.0324C18.7973 39.3934 21.5987 40.0704 24.4306 39.9942C27.2625 39.918 30.0234 39.0912 32.4311 37.5984C34.2702 36.4581 35.8529 34.9605 37.0895 33.2014C37.7247 32.2978 37.3435 31.078 36.3677 30.5604L34.2999 29.4635C33.3241 28.9459 32.1274 29.3354 31.4202 30.1839C30.7598 30.9763 29.9739 31.6612 29.0899 32.2094C27.6363 33.1106 25.9696 33.6097 24.26 33.6557C22.5503 33.7017 20.8592 33.293 19.3592 32.4713C17.8593 31.6497 16.6044 30.4445 15.7229 28.9789C14.8413 27.5134 14.3647 25.8401 14.3417 24.13C14.3186 22.4199 14.7501 20.7344 15.5919 19.2456C16.4337 17.7569 17.6557 16.5184 19.1329 15.6566C20.0314 15.1325 21.0047 14.7592 22.0142 14.5471C23.0952 14.32 24 13.4454 24 12.3408L24 10Z" fill="#F25858"/>
<path d="M37.1069 28.9202C38.141 29.3084 39.3073 28.7861 39.5635 27.7117C39.9676 26.0175 40.0933 24.2642 39.9315 22.521C39.7079 20.1121 38.9409 17.7853 37.6882 15.7156C36.4356 13.6458 34.7299 11.8871 32.6995 10.5717C31.2302 9.61985 29.6186 8.91806 27.9302 8.49022C26.8595 8.21889 25.8559 9.00987 25.7201 10.1061L25.4325 12.4291C25.2968 13.5253 26.0873 14.5045 27.1322 14.8627C27.8758 15.1176 28.5879 15.4632 29.2519 15.8933C30.4777 16.6874 31.5074 17.7492 32.2636 18.9987C33.0198 20.2482 33.4829 21.6529 33.6179 23.1071C33.691 23.8949 33.6668 24.686 33.5478 25.4631C33.3804 26.5549 33.8813 27.7094 34.9154 28.0976L37.1069 28.9202Z" fill="#005EB7"/>
</svg>
