<svg width="48" height="48" viewBox="0 0 48 48" fill="none" xmlns="http://www.w3.org/2000/svg">
<path d="M24 9C24 8.44771 23.5518 7.99674 23.0006 8.03124C20.5157 8.18674 18.0964 8.92045 15.9379 10.1796C13.4909 11.6071 11.4668 13.6586 10.0724 16.1246C8.67798 18.5906 7.96332 21.3827 8.00145 24.2153C8.03957 27.048 8.82911 29.8198 10.2894 32.2474C11.7496 34.6749 13.8283 36.6713 16.3128 38.0324C18.7973 39.3934 21.5987 40.0704 24.4306 39.9942C27.2625 39.918 30.0234 39.0912 32.4311 37.5984C34.555 36.2816 36.3368 34.4882 37.6386 32.3659C37.9274 31.8951 37.739 31.2878 37.2511 31.029L33.4164 28.9949C32.9285 28.7361 32.3274 28.9254 32.0196 29.384C31.2569 30.52 30.2593 31.4843 29.0899 32.2094C27.6363 33.1106 25.9696 33.6097 24.26 33.6557C22.5503 33.7017 20.8592 33.293 19.3592 32.4713C17.8593 31.6497 16.6044 30.4445 15.7229 28.9789C14.8413 27.5134 14.3647 25.8401 14.3417 24.13C14.3186 22.4199 14.7501 20.7344 15.5919 19.2456C16.4337 17.7569 17.6557 16.5184 19.1329 15.6566C20.3214 14.9633 21.6408 14.5339 23.0018 14.3925C23.5511 14.3354 24 13.8931 24 13.3408L24 9Z" fill="#F25858"/>
<path d="M38.0431 29.2717C38.5602 29.4658 39.1399 29.2047 39.3013 28.6765C39.909 26.6883 40.1243 24.5975 39.9315 22.521C39.7079 20.1121 38.9409 17.7853 37.6882 15.7156C36.4356 13.6458 34.7299 11.8871 32.6995 10.5717C30.9493 9.43785 28.9971 8.65883 26.9538 8.27502C26.411 8.17306 25.9109 8.56555 25.843 9.11365L25.3097 13.4216C25.2418 13.9697 25.633 14.4638 26.1711 14.5879C27.2637 14.84 28.3066 15.2809 29.2519 15.8933C30.4777 16.6874 31.5074 17.7492 32.2636 18.9987C33.0198 20.2482 33.4829 21.6529 33.6179 23.1071C33.722 24.2287 33.6289 25.3571 33.3454 26.442C33.2058 26.9763 33.4622 27.552 33.9792 27.7461L38.0431 29.2717Z" fill="#005EB7"/>
</svg>
