<svg width="48" height="48" viewBox="0 0 48 48" fill="none" xmlns="http://www.w3.org/2000/svg">
<path d="M38.9991 23C38.9991 20.2335 38.2341 17.5209 36.7886 15.1621C35.343 12.8034 33.2734 10.8903 30.8084 9.63449C28.3434 8.37868 25.5792 7.82904 22.8213 8.04635C20.0635 8.26365 17.4194 9.23944 15.1816 10.8658L23.9996 23L38.9991 23Z" fill="#F25858"/>
<path d="M39 24.5C39 27.1501 38.3206 29.7559 37.0266 32.0685C35.7326 34.3812 33.8672 36.3234 31.6087 37.7098C29.3502 39.0961 26.774 39.8803 24.1261 39.9873C21.4782 40.0944 18.8471 39.5208 16.4841 38.3212C14.121 37.1217 12.105 35.3364 10.6286 33.1357C9.15209 30.9351 8.26451 28.3926 8.05059 25.7512C7.83666 23.1098 8.30354 20.4577 9.40662 18.0481C10.5097 15.6386 12.2122 13.5521 14.3514 11.9879L23.5 24.5H39Z" fill="#005EB7"/>
</svg>
