<svg width="48" height="48" viewBox="0 0 48 48" fill="none" xmlns="http://www.w3.org/2000/svg">
<path d="M40 23.5C40 20.6413 39.2094 17.8383 37.7157 15.4009C36.222 12.9635 34.0834 10.9866 31.5363 9.68897C28.9891 8.3913 26.1328 7.82334 23.283 8.04789C20.4332 8.27244 17.701 9.28075 15.3885 10.9613L24.5005 23.5L40 23.5Z" fill="#F25858"/>
<path d="M39.0276 24.5C39.0276 27.1501 38.3475 29.7559 37.0524 32.0685C35.7572 34.3812 33.8903 36.3234 31.6298 37.7098C29.3692 39.0961 26.7907 39.8803 24.1405 39.9873C21.4902 40.0944 18.8568 39.5208 16.4916 38.3212C14.1265 37.1217 12.1087 35.3364 10.6309 33.1357C9.15312 30.9351 8.26475 28.3926 8.05063 25.7512C7.83651 23.1098 8.30381 20.4577 9.40787 18.0481C10.5119 15.6386 12.2159 13.5521 14.357 11.9879L23.5138 24.5H39.0276Z" fill="#005EB7"/>
</svg>
