<svg width="48" height="48" viewBox="0 0 48 48" fill="none" xmlns="http://www.w3.org/2000/svg">
<path fill-rule="evenodd" clip-rule="evenodd" d="M11.009 10.1046C9.7069 10.4907 8.63298 11.601 8.19464 13.0141L8.02708 13.5543L8.00482 23.5415C7.99012 30.0988 8.00917 33.7547 8.06022 34.1864C8.15221 34.9652 8.56168 35.9559 9.03541 36.546C9.4155 37.0194 10.0532 37.4876 10.6873 37.7587L11.1758 37.9676L23.7908 37.9895C37.685 38.0137 36.8766 38.0416 37.8449 37.5056C38.8168 36.9677 39.6912 35.6965 39.9189 34.4906C39.976 34.1881 40.0007 30.9724 40 23.9691C39.9988 12.8084 40.0214 13.3502 39.5119 12.2869C39.0627 11.3498 38.2693 10.5902 37.3368 10.2045L36.8899 10.0197L24.1453 10.0041C13.3669 9.99083 11.3402 10.0064 11.009 10.1046ZM36.2867 13.5474C36.8093 13.7868 36.7805 13.3707 36.7592 20.3801L36.74 26.6989L34.1042 23.3323C32.3165 21.049 31.3636 19.8957 31.1429 19.7479C30.1572 19.0878 29.0005 19.1025 28.0603 19.7872C27.806 19.9723 26.8081 21.224 24.621 24.101L21.5398 28.1539L20.3961 26.9162C18.9637 25.366 18.735 25.2266 17.623 25.2266C16.3909 25.2266 16.4029 25.2174 13.5935 28.291L11.2132 30.895V22.5288C11.2132 13.2833 11.1866 13.7898 11.6867 13.5513C12.0482 13.3789 35.9106 13.3751 36.2867 13.5474ZM15.0366 15.3888C14.487 15.5887 14.0994 15.8688 13.6632 16.3816C12.4998 17.7493 12.5472 19.8347 13.7724 21.1811C15.6107 23.2012 18.7099 22.0938 19.1607 19.2557C19.3383 18.1371 18.9663 16.9953 18.152 16.1601C17.5292 15.5213 17.0423 15.3071 16.1237 15.2678C15.6156 15.246 15.3471 15.2759 15.0366 15.3888Z" fill="#0787FF"/>
<ellipse cx="16.0163" cy="18.9877" rx="3.59757" ry="3.85192" fill="#F25858"/>
</svg>
