<svg width="48" height="48" viewBox="0 0 48 48" fill="none" xmlns="http://www.w3.org/2000/svg">
<path d="M36 8.5H12C10.067 8.5 8.5 10.067 8.5 12V36C8.5 37.933 10.067 39.5 12 39.5H36C37.933 39.5 39.5 37.933 39.5 36V12C39.5 10.067 37.933 8.5 36 8.5Z" stroke="#0787FF"/>
<path d="M36 13H18V18H36V13Z" fill="#0787FF"/>
<path d="M36 21H18V26H36V21Z" fill="#F25858"/>
<path d="M36 29H18V34H36V29Z" fill="#00A198"/>
<path d="M14 18C15.3807 18 16.5 16.8807 16.5 15.5C16.5 14.1193 15.3807 13 14 13C12.6193 13 11.5 14.1193 11.5 15.5C11.5 16.8807 12.6193 18 14 18Z" fill="#0787FF"/>
<path d="M14 21L14.6735 23.0729H16.8532L15.0898 24.3541L15.7634 26.4271L14 25.1459L12.2366 26.4271L12.9102 24.3541L11.1468 23.0729H13.3265L14 21Z" fill="#F25858"/>
<path d="M14 29.4924L16.5981 33.9924H11.4019L14 29.4924Z" fill="#00A198"/>
</svg>
