<svg width="48" height="48" viewBox="0 0 48 48" fill="none" xmlns="http://www.w3.org/2000/svg">
<path d="M24.424 19.3216C24.2282 19.6349 23.7718 19.6349 23.576 19.3216L19.4781 12.765C19.27 12.432 19.5094 12 19.9021 12H28.0979C28.4906 12 28.73 12.432 28.5219 12.765L24.424 19.3216Z" fill="#F25858"/>
<path d="M4 21C4 20.4477 4.44772 20 5 20H17V36H5C4.44772 36 4 35.5523 4 35V21Z" fill="#7FC1FF"/>
<rect x="17" y="20" width="14" height="16" fill="#0787FF"/>
<path d="M31 20H43C43.5523 20 44 20.4477 44 21V35C44 35.5523 43.5523 36 43 36H31V20Z" fill="#0064C1"/>
<path d="M24 20V36" stroke="#F25858"/>
</svg>
