<svg width="48" height="48" viewBox="0 0 48 48" fill="none" xmlns="http://www.w3.org/2000/svg">
<path d="M23.0558 28.6331C23.2531 28.3308 23.6959 28.3308 23.8932 28.6331L28.1976 35.2271C28.4147 35.5596 28.1761 36.0004 27.7789 36.0004L19.1701 36.0004C18.773 36.0004 18.5343 35.5596 18.7514 35.2271L23.0558 28.6331Z" fill="#F25858"/>
<rect x="4.00014" y="25.0693" width="39.9989" height="2.61394" fill="#0787FF"/>
<rect x="4.00014" y="21.1484" width="39.9989" height="1.30697" fill="#0787FF"/>
<rect x="5.14421" y="22.4551" width="6.85695" height="3.92091" fill="#0787FF"/>
<rect x="4.00002" y="12" width="2.28565" height="9.1488" fill="#0787FF"/>
<path d="M8.57123 14.6143H10.8569V21.1491H8.57123V14.6143Z" fill="#0787FF"/>
<path d="M17.7151 14.6143H20.0007V21.1491H17.7151V14.6143Z" fill="#0787FF"/>
<path d="M27.9995 14.6143H30.2851V21.1491H27.9995V14.6143Z" fill="#0787FF"/>
<path d="M37.1433 14.6143H39.429V21.1491H37.1433V14.6143Z" fill="#0787FF"/>
<rect x="41.7144" y="12" width="2.28565" height="9.1488" fill="#0787FF"/>
<path d="M12.571 12H14.8567V21.1488H12.571V12Z" fill="#0787FF"/>
<path d="M22.8556 12H25.1412V21.1488H22.8556V12Z" fill="#0787FF"/>
<path d="M33.1434 12H35.4291V21.1488H33.1434V12Z" fill="#0787FF"/>
<rect x="15.4287" y="22.4551" width="6.85695" height="3.92091" fill="#0787FF"/>
<rect x="25.7148" y="22.4551" width="6.85695" height="3.92091" fill="#0787FF"/>
<rect x="35.9992" y="22.4551" width="6.85695" height="3.92091" fill="#0787FF"/>
</svg>
