<svg width="48" height="48" viewBox="0 0 48 48" fill="none" xmlns="http://www.w3.org/2000/svg">
<path d="M7.55013 38.531C7.1868 39.2195 6.29798 39.501 5.56489 39.1598C4.8318 38.8186 4.53205 37.9839 4.89538 37.2954L14.7396 18.6418C15.1781 17.8109 16.3431 17.6078 17.0699 18.2356L26.6676 26.5259L40.5966 9.24785C41.0905 8.63524 42.0196 8.5146 42.672 8.97841C43.3243 9.44222 43.4527 10.3148 42.9589 10.9274L28.0458 29.4262C27.5182 30.0806 26.5051 30.1661 25.8618 29.6104L16.5175 21.539L7.55013 38.531Z" fill="#445235"/>
<path d="M7.55013 38.531C7.1868 39.2195 6.29798 39.501 5.56489 39.1598C4.8318 38.8186 4.53205 37.9839 4.89538 37.2954L14.7396 18.6418C15.1781 17.8109 16.3431 17.6078 17.0699 18.2356L26.6676 26.5259L40.5966 9.24785C41.0905 8.63524 42.0196 8.5146 42.672 8.97841C43.3243 9.44222 43.4527 10.3148 42.9589 10.9274L28.0458 29.4262C27.5182 30.0806 26.5051 30.1661 25.8618 29.6104L16.5175 21.539L7.55013 38.531Z" fill="#005EB7"/>
<path fill-rule="evenodd" clip-rule="evenodd" d="M8.21376 38.8393L16.7427 22.6781L25.3602 30.1218C26.3252 30.9553 27.8449 30.8272 28.6363 29.8455L43.5494 11.3467C44.2902 10.4278 44.0975 9.1189 43.119 8.42318C42.1405 7.72747 40.7468 7.90842 40.006 8.82734L26.569 25.495L17.5713 17.723C16.4811 16.7813 14.7336 17.0859 14.0759 18.3322L4.23162 36.9859C3.68662 38.0186 4.13625 39.2707 5.23588 39.7825C6.33552 40.2943 7.66876 39.872 8.21376 38.8393ZM26.3632 29.0978L16.2922 20.3987L6.8864 38.2215C6.70474 38.5658 6.26033 38.7065 5.89379 38.5359C5.52725 38.3653 5.37738 37.9479 5.55904 37.6037L15.4033 18.9501C15.6225 18.5346 16.205 18.4331 16.5684 18.747L26.7661 27.5556L41.1872 9.66716C41.4341 9.36085 41.8987 9.30054 42.2248 9.53244C42.551 9.76434 42.6152 10.2006 42.3683 10.5069L27.4552 29.0057C27.1914 29.3329 26.6848 29.3756 26.3632 29.0978Z" fill="#005EB7"/>
</svg>
