<svg width="48" height="48" viewBox="0 0 48 48" fill="none" xmlns="http://www.w3.org/2000/svg">
<path d="M36 8.5H12C10.067 8.5 8.5 10.067 8.5 12V36C8.5 37.933 10.067 39.5 12 39.5H36C37.933 39.5 39.5 37.933 39.5 36V12C39.5 10.067 37.933 8.5 36 8.5Z" stroke="#0787FF"/>
<path d="M16 17.5C16 16.6716 15.3284 16 14.5 16C13.6716 16 13 16.6716 13 17.5C13 18.3284 13.6716 19 14.5 19C15.3284 19 16 18.3284 16 17.5Z" fill="#0787FF"/>
<path d="M33.5 16H18.5C17.6716 16 17 16.6716 17 17.5C17 18.3284 17.6716 19 18.5 19H33.5C34.3284 19 35 18.3284 35 17.5C35 16.6716 34.3284 16 33.5 16Z" fill="#0787FF"/>
<path d="M16 24.5C16 23.6716 15.3284 23 14.5 23C13.6716 23 13 23.6716 13 24.5C13 25.3284 13.6716 26 14.5 26C15.3284 26 16 25.3284 16 24.5Z" fill="#0787FF"/>
<path d="M33.5 23H18.5C17.6716 23 17 23.6716 17 24.5C17 25.3284 17.6716 26 18.5 26H33.5C34.3284 26 35 25.3284 35 24.5C35 23.6716 34.3284 23 33.5 23Z" fill="#0787FF"/>
<path d="M16 31.5C16 30.6716 15.3284 30 14.5 30C13.6716 30 13 30.6716 13 31.5C13 32.3284 13.6716 33 14.5 33C15.3284 33 16 32.3284 16 31.5Z" fill="#0787FF"/>
<path d="M33.5 30H18.5C17.6716 30 17 30.6716 17 31.5C17 32.3284 17.6716 33 18.5 33H33.5C34.3284 33 35 32.3284 35 31.5C35 30.6716 34.3284 30 33.5 30Z" fill="#0787FF"/>
</svg>
