<svg width="48" height="48" viewBox="0 0 48 48" fill="none" xmlns="http://www.w3.org/2000/svg">
<g clip-path="url(#clip0_7900_30532)">
<path fill-rule="evenodd" clip-rule="evenodd" d="M35.957 12.1365C35.1891 12.3128 34.8705 12.4874 34.57 12.8963C34.3826 13.1514 34.2516 13.2515 34.0312 13.3078C33.3923 13.4712 33.4049 13.4539 33.4587 14.0891L33.5067 14.6552L33.2473 14.4045C32.9727 14.1393 32.9575 14.1407 32.7739 14.4492C32.6747 14.6161 32.6055 14.6471 32.3199 14.6525C32.0339 14.658 31.9423 14.6992 31.7122 14.9259C31.4551 15.1792 30.7948 15.5679 30.6215 15.5679C30.5773 15.5679 30.3718 15.6634 30.165 15.78C29.9582 15.8966 29.5556 16.067 29.2704 16.1587C28.8481 16.2945 28.7216 16.3095 28.5879 16.2401C28.4978 16.1931 28.3256 16.159 28.2055 16.1642C27.8442 16.1796 27.6242 16.0185 26.7061 15.0661C26.2645 14.6081 26.2545 14.6096 25.5773 15.2326C24.9673 15.7939 23.1443 17.8209 23.0694 18.0213C22.9737 18.2769 23.098 18.4928 23.5023 18.7732C23.8023 18.9812 23.8636 19.0664 23.9367 19.3765C24.0357 19.7956 24.2582 19.9923 24.5493 19.9181C24.6862 19.8832 24.7791 19.7686 24.9052 19.4786C25.0936 19.0457 25.1594 18.9781 25.3285 19.0441C25.4961 19.1094 25.47 19.485 25.2668 19.9285C25.0599 20.3802 24.9129 20.4401 24.401 20.2813C23.8181 20.1005 23.7505 20.1222 23.1901 20.6699C22.6331 21.2144 22.4521 21.3361 22.1967 21.3378C21.8221 21.3403 21.7965 21.4435 22.0529 21.9176C22.1838 22.1598 22.272 22.3892 22.2488 22.4273C22.2256 22.4655 22.0447 22.4954 21.8468 22.4938C21.4118 22.4904 21.3201 22.5591 21.2059 22.9737C21.1027 23.3482 21.1544 23.6645 21.3543 23.8826C21.5455 24.0912 21.7033 24.0795 22.2108 23.819C22.5491 23.6454 22.6705 23.5348 22.7918 23.2896C23.1135 22.6391 23.327 22.5812 24.02 22.9567L24.4493 23.1893L24.4028 23.5043C24.3773 23.6776 24.3832 23.8194 24.4159 23.8194C24.4487 23.8194 24.5944 23.7373 24.7398 23.6369C24.8851 23.5365 25.0251 23.4543 25.0509 23.4543C25.0766 23.4543 25.1883 23.5529 25.299 23.6734C25.5339 23.929 25.6825 23.9497 25.8226 23.7463C25.9145 23.6129 25.9413 23.6091 26.132 23.703C26.2468 23.7594 26.4815 23.8286 26.6536 23.8568C26.9444 23.9043 27.2387 24.1009 27.2387 24.2477C27.2387 24.3697 26.9306 24.7073 26.7588 24.7737C26.6367 24.8209 26.5063 24.8073 26.3193 24.7278C26.1232 24.6446 25.9362 24.6277 25.6061 24.6636C24.9953 24.7302 24.838 24.6743 24.5855 24.3012C24.4561 24.11 24.2769 23.9485 24.1407 23.9003C23.6569 23.7288 22.333 23.865 21.7071 24.1506C21.4421 24.2715 20.9486 24.8641 20.4981 25.6024C20.2437 26.0192 20.2345 26.058 20.2382 26.6978C20.2426 27.4607 20.4241 28.041 20.7912 28.4661C21.1687 28.9031 21.2933 28.936 22.3706 28.8835C23.549 28.8261 23.6815 28.871 23.6097 29.303C23.5731 29.523 23.5979 29.6613 23.7146 29.8888C23.9474 30.3429 24.5594 33.0134 24.6915 34.1521C24.7194 34.3931 24.7717 34.6478 24.8077 34.718C24.8908 34.8806 25.2176 34.8841 25.7349 34.7281C26.4502 34.5124 26.6423 34.2788 26.9425 33.2595C27.0696 32.8282 27.146 32.6949 27.3611 32.5292C28.0438 32.0033 28.0289 32.0361 28.0289 31.0609V30.1856L28.4657 29.6541C28.706 29.3618 28.9994 28.9797 29.1175 28.8051C29.3609 28.4455 29.5703 27.8817 29.5149 27.7351C29.4909 27.6717 29.3045 27.6245 28.9863 27.6013C28.2782 27.5499 28.0957 27.4278 27.7292 26.7607C27.3083 25.9948 27.2815 25.9207 27.4354 25.9508C27.5037 25.9642 27.6822 26.2032 27.832 26.482C28.1463 27.0663 28.2754 27.2262 28.5485 27.3698C28.7286 27.4645 28.7944 27.4539 29.3292 27.2443C29.6504 27.1184 30.0112 26.9264 30.1309 26.8177C30.3205 26.6455 30.3424 26.5872 30.3013 26.3644C30.2437 26.0526 30.031 25.8072 29.769 25.7504C29.399 25.67 29.2501 25.5769 29.2501 25.4256C29.2501 25.2847 29.2785 25.2906 29.735 25.526C30.0017 25.6636 30.3481 25.7987 30.5048 25.8264C30.8482 25.8869 31.1131 26.0187 31.5691 26.3559C31.9518 26.639 32.0225 26.7549 32.4493 27.7991C32.7095 28.4355 32.7699 28.5294 32.9194 28.5294C33.0603 28.5294 33.1487 28.4214 33.4155 27.9229C33.594 27.5894 33.879 27.1458 34.0488 26.9371C34.2187 26.7285 34.3883 26.5085 34.4259 26.4482C34.481 26.3597 34.5976 26.4457 35.033 26.8954L35.5719 27.4521V27.936C35.5719 28.4842 35.6488 28.5433 35.8688 28.1643C36.0452 27.8604 36.0969 27.8492 36.2054 28.0912C36.3058 28.3151 36.4182 28.3199 36.7711 28.1152C37.3208 27.7965 37.4158 27.583 37.1883 27.1785C36.9739 26.7971 37.1076 26.4482 37.4683 26.4482C37.7193 26.4482 38.426 26.1161 38.643 25.8962C38.9246 25.6108 38.9459 25.3309 38.7328 24.7147C38.5414 24.1609 38.5503 24.0467 38.8099 23.7266C39.1358 23.3246 39.2411 23.3627 39.2184 23.8742L39.1998 24.2941L39.5009 24.2806C40.024 24.2574 40.0978 24.1764 40.0978 23.6256V23.1448L40.6962 22.5056C41.3266 21.8322 41.6032 21.3565 41.6614 20.8453C41.6928 20.5697 41.6717 20.5129 41.4659 20.3174L41.2352 20.0984L41.3943 19.8713C41.4818 19.7464 41.6833 19.5485 41.8421 19.4316C42.1931 19.1732 42.6464 19.1422 42.9094 19.3585C43.0671 19.4881 43.0804 19.5561 43.099 20.3261C43.1306 21.6464 43.1852 21.7386 43.5148 21.0291C43.6308 20.7797 43.8956 20.3808 44.1035 20.1428C44.3641 19.8443 44.4946 19.6257 44.5242 19.4381C44.5477 19.2886 44.5877 19.1331 44.6132 19.0927C44.6387 19.0523 45.0357 18.8359 45.4956 18.6117C46.42 18.161 46.6555 17.9424 46.6234 17.5647C46.6124 17.4347 46.6252 17.3062 46.6517 17.2793C46.6782 17.2523 46.867 17.2913 47.0713 17.366L47.4428 17.5018L47.7214 17.1827C47.8746 17.0071 48 16.8046 48 16.7325C48 16.5244 47.6988 16.2142 47.017 15.7201C46.0426 15.0141 45.6561 14.8381 45.0747 14.8358C44.7386 14.8345 44.4318 14.7768 44.0848 14.6497C42.9571 14.2366 42.5169 14.1065 41.8797 13.998C40.7096 13.7988 40.0769 13.6597 39.5026 13.4756C38.9971 13.3135 38.8927 13.2452 38.4157 12.7651C38.1254 12.4729 37.7741 12.1789 37.635 12.1119C37.3091 11.9546 36.7103 11.9634 35.957 12.1365ZM14.7635 12.8844C14.8803 13.3593 15.025 14.388 15.0145 14.6688C15.0048 14.9285 15.034 15.0121 15.1671 15.1069C15.3201 15.2158 15.3276 15.2549 15.2747 15.6698C15.1604 16.5684 15.201 16.8746 15.5378 17.654C15.7778 18.209 15.9396 18.4693 16.2274 18.7627C16.4342 18.9735 16.6477 19.146 16.7018 19.146C16.8182 19.146 16.9539 18.8364 17.23 17.9412L17.4327 17.284L18.1859 16.7728C19.1306 16.1317 19.9231 15.3836 19.9268 15.1294C19.9282 15.0292 19.905 14.7001 19.8752 14.398C19.8223 13.8626 19.8275 13.8355 20.0816 13.3227C20.2249 13.0334 20.3422 12.7795 20.3422 12.7584C20.3422 12.7373 19.0779 12.7201 17.5327 12.7201H14.7232L14.7635 12.8844ZM0.856172 15.2255L0.299638 15.6775L0.340443 15.9924C0.374782 16.2578 0.351219 16.3473 0.190588 16.5613L0 16.8153L0.083117 17.4878C0.239366 18.7523 0.36027 18.9145 1.29352 19.1116C1.83404 19.2258 2.19675 19.1747 2.48547 18.9438C2.71909 18.757 3.10084 18.6837 3.34617 18.7785C3.4828 18.8313 3.59552 18.9826 3.74164 19.3095C3.95335 19.783 4.23776 20.1018 4.69659 20.3802C4.84321 20.4691 5.057 20.6632 5.17166 20.8115C5.56267 21.3173 5.63846 21.5471 5.6945 22.3955C5.75484 23.3101 5.91863 23.8675 6.27546 24.3725C6.40627 24.5575 6.7557 25.0742 7.05203 25.5206C7.59333 26.3359 7.77042 26.5136 7.77042 26.2412C7.77042 25.8769 7.8554 25.8567 8.05655 26.1732C8.35303 26.6396 8.70223 26.9372 9.06351 27.0312C9.24131 27.0774 9.50841 27.1473 9.65711 27.1864C9.80582 27.2256 10.0321 27.3489 10.16 27.4604C10.2879 27.5719 10.6188 27.7871 10.8954 27.9387C11.8348 28.4534 11.9437 28.6837 11.6497 29.5342C11.5707 29.7626 11.506 30.0003 11.506 30.0623C11.506 30.3105 12.2202 31.6048 12.5136 31.8884C13.0012 32.3596 13.0299 32.4882 12.8717 33.4906C12.7971 33.9626 12.7002 34.7317 12.6562 35.1997C12.6123 35.6677 12.5457 36.2902 12.5082 36.5831C12.4001 37.4262 12.4217 37.9901 12.5732 38.2772C12.7865 38.6814 13.1682 38.9504 13.5865 38.9913C13.7856 39.0108 13.9485 38.9965 13.9485 38.9598C13.9485 38.923 13.8824 38.7627 13.8017 38.6036C13.645 38.2951 13.6573 37.9813 13.8401 37.6221C13.9036 37.4972 13.9223 37.2793 13.897 36.959L13.8594 36.4819L14.482 35.8898C14.8245 35.5641 15.5097 34.8109 16.0048 34.216C16.4998 33.621 17.0328 33.0229 17.1892 32.8868C17.5343 32.5866 17.6718 32.3215 17.963 31.3946C18.2101 30.6081 18.2456 30.1694 18.076 29.997C17.9544 29.8733 17.2525 29.6361 16.7634 29.5532C16.4271 29.4963 15.8322 29.0464 15.3748 28.5033C15.0785 28.1513 14.3963 27.8175 13.5534 27.6118C12.8273 27.4346 12.6011 27.4355 12.3322 27.6166C12.2136 27.6964 12.012 27.7619 11.8841 27.7621C11.6909 27.7626 11.621 27.7135 11.4714 27.4726C11.3723 27.3131 11.1941 27.1316 11.0753 27.0691C10.881 26.967 10.8595 26.9208 10.8595 26.6063C10.8595 26.2041 10.7097 25.9323 10.5511 26.0466C10.4955 26.0868 10.3099 26.2272 10.1388 26.3586C9.96767 26.4901 9.79533 26.5867 9.75582 26.5732C9.57098 26.5107 9.41207 25.5248 9.55101 25.3027C9.64339 25.155 9.98793 25.0608 10.4357 25.0608C10.8904 25.0608 10.9113 25.0737 11.3191 25.6024C11.5474 25.8985 11.7215 25.8211 11.7215 25.4234C11.7215 25.0818 11.7899 24.924 12.1161 24.5131C12.2437 24.3525 12.4467 24.0239 12.5674 23.7829C12.7566 23.4047 12.8636 23.2932 13.3496 22.9679C14.2763 22.3476 14.8579 22.0541 15.2625 22.0026C15.5773 21.9626 15.6351 21.932 15.6263 21.8102C15.6051 21.5133 15.0319 20.1594 14.7798 19.8102C14.636 19.6112 14.4291 19.2269 14.32 18.9562C14.125 18.4727 13.8934 18.2085 13.8268 18.3939C13.7742 18.5402 13.5114 18.8539 13.4414 18.8539C13.4053 18.8539 13.331 18.7472 13.2763 18.6166C13.1355 18.2807 12.8878 18.0741 12.4993 17.9685C12.0633 17.8501 11.9901 17.9143 11.872 18.518C11.7874 18.9505 11.792 19.0244 11.9261 19.3886C12.0539 19.736 12.0597 19.8039 11.9712 19.9227C11.9154 19.9975 11.8682 20.1738 11.8664 20.3144C11.8621 20.6358 11.7802 20.7708 11.626 20.7107C11.5399 20.6771 11.506 20.5759 11.506 20.352C11.506 19.9924 11.4332 19.9132 11.0471 19.8528C10.8935 19.8288 10.6394 19.7187 10.4823 19.608C10.3253 19.4974 10.1277 19.3711 10.0432 19.3273C9.90682 19.2565 9.89188 19.1949 9.90927 18.7769C9.92766 18.3352 9.94619 18.2895 10.2108 18.0333C10.4698 17.7827 10.5181 17.7637 10.8019 17.8018C11.1141 17.8436 11.5872 17.7014 11.6882 17.5352C11.7149 17.4915 11.6627 17.3757 11.5723 17.278C11.4125 17.1051 11.4113 17.0934 11.5289 16.8428C11.6814 16.5177 11.683 16.1387 11.5332 15.8381C11.2515 15.2726 11.022 15.2218 10.3509 15.5768C9.93821 15.7951 9.91436 15.7993 9.78125 15.6769C9.65833 15.5638 9.60697 15.5598 9.33499 15.642C8.59677 15.865 7.16166 15.7538 6.41101 15.4153C6.17625 15.3095 6.0103 15.281 5.83077 15.3159C5.69249 15.3427 5.37288 15.3606 5.12051 15.3557C4.86807 15.3507 4.56067 15.3838 4.43732 15.4291C4.19774 15.5172 3.5818 15.3736 2.39107 14.9523C1.61601 14.678 1.50638 14.6976 0.856172 15.2255ZM41.7 21.8661C41.6079 21.9903 41.2834 22.767 41.1736 23.1257C41.0159 23.6413 40.8893 23.8199 40.5169 24.0529C40.2604 24.2133 40.1137 24.3685 40.0222 24.5764C39.9506 24.7389 39.9077 24.8977 39.927 24.9292C40.0147 25.0735 41.5097 24.1142 41.6085 23.8503C41.6468 23.7478 41.6782 23.5207 41.6782 23.3457C41.6782 23.1127 41.7263 22.9692 41.8578 22.8104C42.0482 22.5805 42.0868 22.2814 41.9674 21.9621C41.8905 21.7566 41.8041 21.7256 41.7 21.8661ZM35.2127 28.6363C35.2127 28.7506 36.0004 30.0449 36.203 30.2636C36.391 30.4666 36.6027 30.5155 36.785 30.3982C36.8504 30.356 37.0353 30.4065 37.3238 30.5452C37.8462 30.7964 37.9035 30.8015 38.0368 30.6081C38.1195 30.488 38.1924 30.4671 38.418 30.4985C38.6067 30.5248 38.7782 30.4954 38.9483 30.4076C39.1987 30.2785 39.1997 30.2761 39.1747 29.8418C39.1608 29.6019 39.1165 29.3646 39.0761 29.3144C38.945 29.1515 38.6678 29.2172 38.3831 29.4787C38.23 29.6192 38.0925 29.7342 38.0776 29.7343C38.0626 29.7343 38.0616 29.5702 38.0752 29.3696C38.106 28.9185 38.0199 28.8689 37.507 29.0421C37.23 29.1356 37.1021 29.2283 36.9943 29.414C36.9154 29.5499 36.8136 29.6606 36.7681 29.6599C36.7226 29.6592 36.3828 29.4127 36.0129 29.1122C35.3556 28.5782 35.2127 28.4933 35.2127 28.6363ZM40.2414 29.6784C40.2414 29.8139 40.4375 29.9946 40.6906 30.0925C40.8247 30.1443 40.8887 30.222 40.8902 30.3348C40.8934 30.5652 41.2103 30.779 41.6411 30.8411C41.8393 30.8697 42.1508 30.9154 42.3334 30.9428C42.6801 30.9947 42.8503 30.8964 42.6921 30.7356C42.6481 30.6909 42.6121 30.5623 42.6121 30.4499C42.6121 30.3374 42.5853 30.2454 42.5526 30.2454C42.5199 30.2454 42.3382 30.1411 42.149 30.0137C41.8835 29.835 41.6876 29.7688 41.2925 29.7243C41.0108 29.6925 40.659 29.6454 40.5108 29.6194C40.3017 29.5828 40.2414 29.596 40.2414 29.6784ZM41.5345 31.1582C41.4669 31.339 41.0787 31.632 40.9059 31.6325C40.851 31.6327 40.8161 31.5327 40.8161 31.375C40.8161 31.2076 40.7764 31.1016 40.703 31.073C40.5236 31.0029 40.0466 31.1815 39.8973 31.3745C39.8015 31.4982 39.6932 31.5487 39.534 31.5441C39.2823 31.5369 39.0911 31.6815 38.8685 32.0475C38.755 32.2342 38.6335 32.3153 38.3347 32.4036C38.1219 32.4664 37.8759 32.5771 37.7879 32.6495C37.6346 32.7757 37.6318 32.7986 37.72 33.1995C37.7797 33.4703 37.7945 33.7963 37.7622 34.1239C37.7053 34.7005 37.7592 34.8179 38.1121 34.8852C38.2721 34.9157 38.4978 34.8645 38.8771 34.7116C39.1731 34.5923 39.6054 34.4555 39.8377 34.4075L40.26 34.3203L40.8104 34.8765L41.3608 35.4326L41.8267 35.4768C42.2593 35.5179 42.309 35.507 42.5221 35.3247C42.7062 35.1673 42.8026 34.968 43.0097 34.3169C43.174 33.8003 43.2515 33.4395 43.223 33.324C43.1984 33.2243 42.9826 32.9262 42.7434 32.6615C42.453 32.3403 42.2173 31.9804 42.034 31.578C41.8829 31.2467 41.7241 30.9756 41.6811 30.9756C41.638 30.9756 41.5721 31.0578 41.5345 31.1582Z" fill="#1D91FF"/>
</g>
<defs>
<clipPath id="clip0_7900_30532">
<rect width="48" height="48" fill="white"/>
</clipPath>
</defs>
</svg>
