<svg width="48" height="48" viewBox="0 0 48 48" fill="none" xmlns="http://www.w3.org/2000/svg">
<g clip-path="url(#clip0_5778_2850)">
<path fill-rule="evenodd" clip-rule="evenodd" d="M35.957 11.1365C35.1891 11.3128 34.8705 11.4874 34.57 11.8963C34.3826 12.1514 34.2516 12.2515 34.0312 12.3078C33.3923 12.4712 33.4049 12.4539 33.4587 13.0891L33.5067 13.6552L33.2473 13.4045C32.9727 13.1393 32.9575 13.1407 32.7739 13.4492C32.6747 13.6161 32.6055 13.6471 32.3199 13.6525C32.0339 13.658 31.9423 13.6992 31.7122 13.9259C31.4551 14.1792 30.7948 14.5679 30.6215 14.5679C30.5773 14.5679 30.3718 14.6634 30.165 14.78C29.9582 14.8966 29.5556 15.067 29.2704 15.1587C28.8481 15.2945 28.7216 15.3095 28.5879 15.2401C28.4978 15.1931 28.3256 15.159 28.2055 15.1642C27.8442 15.1796 27.6242 15.0185 26.7061 14.0661C26.2645 13.6081 26.2545 13.6096 25.5773 14.2326C24.9673 14.7939 23.1443 16.8209 23.0694 17.0213C22.9737 17.2769 23.098 17.4928 23.5023 17.7732C23.8023 17.9812 23.8636 18.0664 23.9367 18.3765C24.0357 18.7956 24.2582 18.9923 24.5493 18.9181C24.6862 18.8832 24.7791 18.7686 24.9052 18.4786C25.0936 18.0457 25.1594 17.9781 25.3285 18.0441C25.4961 18.1094 25.47 18.485 25.2668 18.9285C25.0599 19.3802 24.9129 19.4401 24.401 19.2813C23.8181 19.1005 23.7505 19.1222 23.1901 19.6699C22.6331 20.2144 22.4521 20.3361 22.1967 20.3378C21.8221 20.3403 21.7965 20.4435 22.0529 20.9176C22.1838 21.1598 22.272 21.3892 22.2488 21.4273C22.2256 21.4655 22.0447 21.4954 21.8468 21.4938C21.4118 21.4904 21.3201 21.5591 21.2059 21.9737C21.1027 22.3482 21.1544 22.6645 21.3543 22.8826C21.5455 23.0912 21.7033 23.0795 22.2108 22.819C22.5491 22.6454 22.6705 22.5348 22.7918 22.2896C23.1135 21.6391 23.327 21.5812 24.02 21.9567L24.4493 22.1893L24.4028 22.5043C24.3773 22.6776 24.3832 22.8194 24.4159 22.8194C24.4487 22.8194 24.5944 22.7373 24.7398 22.6369C24.8851 22.5365 25.0251 22.4543 25.0509 22.4543C25.0766 22.4543 25.1883 22.5529 25.299 22.6734C25.5339 22.929 25.6825 22.9497 25.8226 22.7463C25.9145 22.6129 25.9413 22.6091 26.132 22.703C26.2468 22.7594 26.4815 22.8286 26.6536 22.8568C26.9444 22.9043 27.2387 23.1009 27.2387 23.2477C27.2387 23.3697 26.9306 23.7073 26.7588 23.7737C26.6367 23.8209 26.5063 23.8073 26.3193 23.7278C26.1232 23.6446 25.9362 23.6277 25.6061 23.6636C24.9953 23.7302 24.838 23.6743 24.5855 23.3012C24.4561 23.11 24.2769 22.9485 24.1407 22.9003C23.6569 22.7288 22.333 22.865 21.7071 23.1506C21.4421 23.2715 20.9486 23.8641 20.4981 24.6024C20.2437 25.0192 20.2345 25.058 20.2382 25.6978C20.2426 26.4607 20.4241 27.041 20.7912 27.4661C21.1687 27.9031 21.2933 27.936 22.3706 27.8835C23.549 27.8261 23.6815 27.871 23.6097 28.303C23.5731 28.523 23.5979 28.6613 23.7146 28.8888C23.9474 29.3429 24.5594 32.0134 24.6915 33.1521C24.7194 33.3931 24.7717 33.6478 24.8077 33.718C24.8908 33.8806 25.2176 33.8841 25.7349 33.7281C26.4502 33.5124 26.6423 33.2788 26.9425 32.2595C27.0696 31.8282 27.146 31.6949 27.3611 31.5292C28.0438 31.0033 28.0289 31.0361 28.0289 30.0609V29.1856L28.4657 28.6541C28.706 28.3618 28.9994 27.9797 29.1175 27.8051C29.3609 27.4455 29.5703 26.8817 29.5149 26.7351C29.4909 26.6717 29.3045 26.6245 28.9863 26.6013C28.2782 26.5499 28.0957 26.4278 27.7292 25.7607C27.3083 24.9948 27.2815 24.9207 27.4354 24.9508C27.5037 24.9642 27.6822 25.2032 27.832 25.482C28.1463 26.0663 28.2754 26.2262 28.5485 26.3698C28.7286 26.4645 28.7944 26.4539 29.3292 26.2443C29.6504 26.1184 30.0112 25.9264 30.1309 25.8177C30.3205 25.6455 30.3424 25.5872 30.3013 25.3644C30.2437 25.0526 30.031 24.8072 29.769 24.7504C29.399 24.67 29.2501 24.5769 29.2501 24.4256C29.2501 24.2847 29.2785 24.2906 29.735 24.526C30.0017 24.6636 30.3481 24.7987 30.5048 24.8264C30.8482 24.8869 31.1131 25.0187 31.5691 25.3559C31.9518 25.639 32.0225 25.7549 32.4493 26.7991C32.7095 27.4355 32.7699 27.5294 32.9194 27.5294C33.0603 27.5294 33.1487 27.4214 33.4155 26.9229C33.594 26.5894 33.879 26.1458 34.0488 25.9371C34.2187 25.7285 34.3883 25.5085 34.4259 25.4482C34.481 25.3597 34.5976 25.4457 35.033 25.8954L35.5719 26.4521V26.936C35.5719 27.4842 35.6488 27.5433 35.8688 27.1643C36.0452 26.8604 36.0969 26.8492 36.2054 27.0912C36.3058 27.3151 36.4182 27.3199 36.7711 27.1152C37.3208 26.7965 37.4158 26.583 37.1883 26.1785C36.9739 25.7971 37.1076 25.4482 37.4683 25.4482C37.7193 25.4482 38.426 25.1161 38.643 24.8962C38.9246 24.6108 38.9459 24.3309 38.7328 23.7147C38.5414 23.1609 38.5503 23.0467 38.8099 22.7266C39.1358 22.3246 39.2411 22.3627 39.2184 22.8742L39.1998 23.2941L39.5009 23.2806C40.024 23.2574 40.0978 23.1764 40.0978 22.6256V22.1448L40.6962 21.5056C41.3266 20.8322 41.6032 20.3565 41.6614 19.8453C41.6928 19.5697 41.6717 19.5129 41.4659 19.3174L41.2352 19.0984L41.3943 18.8713C41.4818 18.7464 41.6833 18.5485 41.8421 18.4316C42.1931 18.1732 42.6464 18.1422 42.9094 18.3585C43.0671 18.4881 43.0804 18.5561 43.099 19.3261C43.1306 20.6464 43.1852 20.7386 43.5148 20.0291C43.6308 19.7797 43.8956 19.3808 44.1035 19.1428C44.3641 18.8443 44.4946 18.6257 44.5242 18.4381C44.5477 18.2886 44.5877 18.1331 44.6132 18.0927C44.6387 18.0523 45.0357 17.8359 45.4956 17.6117C46.42 17.161 46.6555 16.9424 46.6234 16.5647C46.6124 16.4347 46.6252 16.3062 46.6517 16.2793C46.6782 16.2523 46.867 16.2913 47.0713 16.366L47.4428 16.5018L47.7214 16.1827C47.8746 16.0071 48 15.8046 48 15.7325C48 15.5244 47.6988 15.2142 47.017 14.7201C46.0426 14.0141 45.6561 13.8381 45.0747 13.8358C44.7386 13.8345 44.4318 13.7768 44.0848 13.6497C42.9571 13.2366 42.5169 13.1065 41.8797 12.998C40.7096 12.7988 40.0769 12.6597 39.5026 12.4756C38.9971 12.3135 38.8927 12.2452 38.4157 11.7651C38.1254 11.4729 37.7741 11.1789 37.635 11.1119C37.3091 10.9546 36.7103 10.9634 35.957 11.1365ZM14.7635 11.8844C14.8803 12.3593 15.025 13.388 15.0145 13.6688C15.0048 13.9285 15.034 14.0121 15.1671 14.1069C15.3201 14.2158 15.3276 14.2549 15.2747 14.6698C15.1604 15.5684 15.201 15.8746 15.5378 16.654C15.7778 17.209 15.9396 17.4693 16.2274 17.7627C16.4342 17.9735 16.6477 18.146 16.7018 18.146C16.8182 18.146 16.9539 17.8364 17.23 16.9412L17.4327 16.284L18.1859 15.7728C19.1306 15.1317 19.9231 14.3836 19.9268 14.1294C19.9282 14.0292 19.905 13.7001 19.8752 13.398C19.8223 12.8626 19.8275 12.8355 20.0816 12.3227C20.2249 12.0334 20.3422 11.7795 20.3422 11.7584C20.3422 11.7373 19.0779 11.7201 17.5327 11.7201H14.7232L14.7635 11.8844ZM0.856172 14.2255L0.299638 14.6775L0.340443 14.9924C0.374782 15.2578 0.351219 15.3473 0.190588 15.5613L0 15.8153L0.083117 16.4878C0.239366 17.7523 0.36027 17.9145 1.29352 18.1116C1.83404 18.2258 2.19675 18.1747 2.48547 17.9438C2.71909 17.757 3.10084 17.6837 3.34617 17.7785C3.4828 17.8313 3.59552 17.9826 3.74164 18.3095C3.95335 18.783 4.23776 19.1018 4.69659 19.3802C4.84321 19.4691 5.057 19.6632 5.17166 19.8115C5.56267 20.3173 5.63846 20.5471 5.6945 21.3955C5.75484 22.3101 5.91863 22.8675 6.27546 23.3725C6.40627 23.5575 6.7557 24.0742 7.05203 24.5206C7.59333 25.3359 7.77042 25.5136 7.77042 25.2412C7.77042 24.8769 7.8554 24.8567 8.05655 25.1732C8.35303 25.6396 8.70223 25.9372 9.06351 26.0312C9.24131 26.0774 9.50841 26.1473 9.65711 26.1864C9.80582 26.2256 10.0321 26.3489 10.16 26.4604C10.2879 26.5719 10.6188 26.7871 10.8954 26.9387C11.8348 27.4534 11.9437 27.6837 11.6497 28.5342C11.5707 28.7626 11.506 29.0003 11.506 29.0623C11.506 29.3105 12.2202 30.6048 12.5136 30.8884C13.0012 31.3596 13.0299 31.4882 12.8717 32.4906C12.7971 32.9626 12.7002 33.7317 12.6562 34.1997C12.6123 34.6677 12.5457 35.2902 12.5082 35.5831C12.4001 36.4262 12.4217 36.9901 12.5732 37.2772C12.7865 37.6814 13.1682 37.9504 13.5865 37.9913C13.7856 38.0108 13.9485 37.9965 13.9485 37.9598C13.9485 37.923 13.8824 37.7627 13.8017 37.6036C13.645 37.2951 13.6573 36.9813 13.8401 36.6221C13.9036 36.4972 13.9223 36.2793 13.897 35.959L13.8594 35.4819L14.482 34.8898C14.8245 34.5641 15.5097 33.8109 16.0048 33.216C16.4998 32.621 17.0328 32.0229 17.1892 31.8868C17.5343 31.5866 17.6718 31.3215 17.963 30.3946C18.2101 29.6081 18.2456 29.1694 18.076 28.997C17.9544 28.8733 17.2525 28.6361 16.7634 28.5532C16.4271 28.4963 15.8322 28.0464 15.3748 27.5033C15.0785 27.1513 14.3963 26.8175 13.5534 26.6118C12.8273 26.4346 12.6011 26.4355 12.3322 26.6166C12.2136 26.6964 12.012 26.7619 11.8841 26.7621C11.6909 26.7626 11.621 26.7135 11.4714 26.4726C11.3723 26.3131 11.1941 26.1316 11.0753 26.0691C10.881 25.967 10.8595 25.9208 10.8595 25.6063C10.8595 25.2041 10.7097 24.9323 10.5511 25.0466C10.4955 25.0868 10.3099 25.2272 10.1388 25.3586C9.96767 25.4901 9.79533 25.5867 9.75582 25.5732C9.57098 25.5107 9.41207 24.5248 9.55101 24.3027C9.64339 24.155 9.98793 24.0608 10.4357 24.0608C10.8904 24.0608 10.9113 24.0737 11.3191 24.6024C11.5474 24.8985 11.7215 24.8211 11.7215 24.4234C11.7215 24.0818 11.7899 23.924 12.1161 23.5131C12.2437 23.3525 12.4467 23.0239 12.5674 22.7829C12.7566 22.4047 12.8636 22.2932 13.3496 21.9679C14.2763 21.3476 14.8579 21.0541 15.2625 21.0026C15.5773 20.9626 15.6351 20.932 15.6263 20.8102C15.6051 20.5133 15.0319 19.1594 14.7798 18.8102C14.636 18.6112 14.4291 18.2269 14.32 17.9562C14.125 17.4727 13.8934 17.2085 13.8268 17.3939C13.7742 17.5402 13.5114 17.8539 13.4414 17.8539C13.4053 17.8539 13.331 17.7472 13.2763 17.6166C13.1355 17.2807 12.8878 17.0741 12.4993 16.9685C12.0633 16.8501 11.9901 16.9143 11.872 17.518C11.7874 17.9505 11.792 18.0244 11.9261 18.3886C12.0539 18.736 12.0597 18.8039 11.9712 18.9227C11.9154 18.9975 11.8682 19.1738 11.8664 19.3144C11.8621 19.6358 11.7802 19.7708 11.626 19.7107C11.5399 19.6771 11.506 19.5759 11.506 19.352C11.506 18.9924 11.4332 18.9132 11.0471 18.8528C10.8935 18.8288 10.6394 18.7187 10.4823 18.608C10.3253 18.4974 10.1277 18.3711 10.0432 18.3273C9.90682 18.2565 9.89188 18.1949 9.90927 17.7769C9.92766 17.3352 9.94619 17.2895 10.2108 17.0333C10.4698 16.7827 10.5181 16.7637 10.8019 16.8018C11.1141 16.8436 11.5872 16.7014 11.6882 16.5352C11.7149 16.4915 11.6627 16.3757 11.5723 16.278C11.4125 16.1051 11.4113 16.0934 11.5289 15.8428C11.6814 15.5177 11.683 15.1387 11.5332 14.8381C11.2515 14.2726 11.022 14.2218 10.3509 14.5768C9.93821 14.7951 9.91436 14.7993 9.78125 14.6769C9.65833 14.5638 9.60697 14.5598 9.33499 14.642C8.59677 14.865 7.16166 14.7538 6.41101 14.4153C6.17625 14.3095 6.0103 14.281 5.83077 14.3159C5.69249 14.3427 5.37288 14.3606 5.12051 14.3557C4.86807 14.3507 4.56067 14.3838 4.43732 14.4291C4.19774 14.5172 3.5818 14.3736 2.39107 13.9523C1.61601 13.678 1.50638 13.6976 0.856172 14.2255ZM41.7 20.8661C41.6079 20.9903 41.2834 21.767 41.1736 22.1257C41.0159 22.6413 40.8893 22.8199 40.5169 23.0529C40.2604 23.2133 40.1137 23.3685 40.0222 23.5764C39.9506 23.7389 39.9077 23.8977 39.927 23.9292C40.0147 24.0735 41.5097 23.1142 41.6085 22.8503C41.6468 22.7478 41.6782 22.5207 41.6782 22.3457C41.6782 22.1127 41.7263 21.9692 41.8578 21.8104C42.0482 21.5805 42.0868 21.2814 41.9674 20.9621C41.8905 20.7566 41.8041 20.7256 41.7 20.8661ZM35.2127 27.6363C35.2127 27.7506 36.0004 29.0449 36.203 29.2636C36.391 29.4666 36.6027 29.5155 36.785 29.3982C36.8504 29.356 37.0353 29.4065 37.3238 29.5452C37.8462 29.7964 37.9035 29.8015 38.0368 29.6081C38.1195 29.488 38.1924 29.4671 38.418 29.4985C38.6067 29.5248 38.7782 29.4954 38.9483 29.4076C39.1987 29.2785 39.1997 29.2761 39.1747 28.8418C39.1608 28.6019 39.1165 28.3646 39.0761 28.3144C38.945 28.1515 38.6678 28.2172 38.3831 28.4787C38.23 28.6192 38.0925 28.7342 38.0776 28.7343C38.0626 28.7343 38.0616 28.5702 38.0752 28.3696C38.106 27.9185 38.0199 27.8689 37.507 28.0421C37.23 28.1356 37.1021 28.2283 36.9943 28.414C36.9154 28.5499 36.8136 28.6606 36.7681 28.6599C36.7226 28.6592 36.3828 28.4127 36.0129 28.1122C35.3556 27.5782 35.2127 27.4933 35.2127 27.6363ZM40.2414 28.6784C40.2414 28.8139 40.4375 28.9946 40.6906 29.0925C40.8247 29.1443 40.8887 29.222 40.8902 29.3348C40.8934 29.5652 41.2103 29.779 41.6411 29.8411C41.8393 29.8697 42.1508 29.9154 42.3334 29.9428C42.6801 29.9947 42.8503 29.8964 42.6921 29.7356C42.6481 29.6909 42.6121 29.5623 42.6121 29.4499C42.6121 29.3374 42.5853 29.2454 42.5526 29.2454C42.5199 29.2454 42.3382 29.1411 42.149 29.0137C41.8835 28.835 41.6876 28.7688 41.2925 28.7243C41.0108 28.6925 40.659 28.6454 40.5108 28.6194C40.3017 28.5828 40.2414 28.596 40.2414 28.6784ZM41.5345 30.1582C41.4669 30.339 41.0787 30.632 40.9059 30.6325C40.851 30.6327 40.8161 30.5327 40.8161 30.375C40.8161 30.2076 40.7764 30.1016 40.703 30.073C40.5236 30.0029 40.0466 30.1815 39.8973 30.3745C39.8015 30.4982 39.6932 30.5487 39.534 30.5441C39.2823 30.5369 39.0911 30.6815 38.8685 31.0475C38.755 31.2342 38.6335 31.3153 38.3347 31.4036C38.1219 31.4664 37.8759 31.5771 37.7879 31.6495C37.6346 31.7757 37.6318 31.7986 37.72 32.1995C37.7797 32.4703 37.7945 32.7963 37.7622 33.1239C37.7053 33.7005 37.7592 33.8179 38.1121 33.8852C38.2721 33.9157 38.4978 33.8645 38.8771 33.7116C39.1731 33.5923 39.6054 33.4555 39.8377 33.4075L40.26 33.3203L40.8104 33.8765L41.3608 34.4326L41.8267 34.4768C42.2593 34.5179 42.309 34.507 42.5221 34.3247C42.7062 34.1673 42.8026 33.968 43.0097 33.3169C43.174 32.8003 43.2515 32.4395 43.223 32.324C43.1984 32.2243 42.9826 31.9262 42.7434 31.6615C42.453 31.3403 42.2173 30.9804 42.034 30.578C41.8829 30.2467 41.7241 29.9756 41.6811 29.9756C41.638 29.9756 41.5721 30.0578 41.5345 30.1582Z" fill="#1D91FF"/>
</g>
<defs>
<clipPath id="clip0_5778_2850">
<rect width="48" height="48" fill="white"/>
</clipPath>
</defs>
</svg>
