<svg width="48" height="48" viewBox="0 0 48 48" fill="none" xmlns="http://www.w3.org/2000/svg">
<path d="M18 16H20V39.3846H18V16Z" fill="#0787FF"/>
<path d="M29 16H31V39.3846H29V16Z" fill="#0787FF"/>
<path d="M8 33V31H40V33H8Z" fill="#0787FF"/>
<path d="M8 26V24H40V26H8Z" fill="#0787FF"/>
<rect x="9.23071" y="9.23047" width="29.5385" height="8.61539" fill="#0787FF"/>
<path fill-rule="evenodd" clip-rule="evenodd" d="M37.5385 8H10.4615C9.10207 8 8 9.10207 8 10.4615V37.5385C8 38.8979 9.10207 40 10.4615 40H37.5385C38.8979 40 40 38.8979 40 37.5385V10.4615C40 9.10207 38.8979 8 37.5385 8ZM9.23072 10.4615C9.23072 9.78179 9.78175 9.23076 10.4615 9.23076H37.5384C38.2181 9.23076 38.7692 9.78179 38.7692 10.4615V37.5385C38.7692 38.2182 38.2181 38.7692 37.5384 38.7692H10.4615C9.78175 38.7692 9.23072 38.2182 9.23072 37.5385V10.4615Z" fill="#0787FF"/>
<path d="M20 17.9049C20 17.8496 20.0449 17.8048 20.1002 17.8049L38.6815 17.8435C38.7366 17.8437 38.7812 17.8884 38.7812 17.9435V38.6654C38.7812 38.7207 38.7364 38.7655 38.681 38.7654L20.0998 38.7268C20.0446 38.7267 20 38.6819 20 38.6268V17.9049Z" fill="white"/>
<path d="M29.2816 25.2087C28.9252 25.2087 28.7468 24.7778 28.9988 24.5259L33.0857 20.4391C33.2419 20.2829 33.4952 20.2829 33.6514 20.4391L37.7384 24.5259C37.9904 24.7778 37.8119 25.2087 37.4556 25.2087H35.0318C34.8108 25.2087 34.6318 25.3878 34.6318 25.6087V27.7349C34.6318 30.5264 32.3707 32.7874 29.5791 32.7874H27.4527C27.2318 32.7874 27.0527 32.9665 27.0527 33.1874V35.6111C27.0527 35.9674 26.6219 36.1459 26.3699 35.8939L22.2829 31.8071C22.1266 31.6509 22.1266 31.3976 22.2829 31.2414L26.3699 27.1546C26.6219 26.9026 27.0527 27.0811 27.0527 27.4375V29.8612C27.0527 30.0821 27.2318 30.2612 27.4527 30.2612H29.5791C30.9685 30.2612 32.1054 29.1244 32.1054 27.7349V25.6087C32.1054 25.3878 31.9263 25.2087 31.7054 25.2087H29.2816Z" fill="#FF8900"/>
</svg>
