<svg width="48" height="48" viewBox="0 0 48 48" fill="none" xmlns="http://www.w3.org/2000/svg">
<ellipse cx="24" cy="24" rx="16" ry="16" transform="rotate(90 24 24)" fill="#F25858"/>
<path d="M24 8C20.313 8 16.7391 9.27339 13.8827 11.6048C11.0264 13.9362 9.06288 17.1826 8.3243 20.7949C7.58573 24.4072 8.11739 28.1638 9.82938 31.4292C11.5414 34.6947 14.3286 37.2687 17.7198 38.7159L24 24L24 8Z" fill="#005EB7"/>
<path d="M40 24C40 21.0491 39.1839 18.1556 37.642 15.6396C36.1001 13.1236 33.8924 11.083 31.263 9.74345C28.6336 8.40392 25.685 7.81764 22.7432 8.04944C19.8014 8.28123 16.981 9.32207 14.5939 11.0569L24 24L40 24Z" fill="#00A89E"/>
</svg>
