<svg width="48" height="48" viewBox="0 0 48 48" fill="none" xmlns="http://www.w3.org/2000/svg">
<path fill-rule="evenodd" clip-rule="evenodd" d="M14.4132 16.9268L23.7287 26.2629L24.8931 12.2588L14.4132 16.9268ZM37.7025 28.5965L33.627 16.9264L24.8937 26.846L37.7025 28.5965ZM24.8906 26.2627L14.9952 35.9725L24.2288 39.1262L24.8906 26.2627Z" fill="#FF8900"/>
<path fill-rule="evenodd" clip-rule="evenodd" d="M26.0055 10.6537L24.818 24.9346L25.995 23.7796L25.9781 24.1078L33.9937 15.0034L39.1706 29.827L25.778 27.9967L25.1342 40.5097L13.1252 36.408L22.8852 26.8311L12.6702 16.5936L26.0055 10.6537ZM22.9336 24.0526L23.7807 13.864L16.1562 17.2602L22.9336 24.0526ZM23.7862 28.7459L16.8651 35.5372L23.3233 37.743L23.7862 28.7459ZM26.8869 26.0887L36.2344 27.3661L33.2602 18.8496L26.8869 26.0887Z" fill="#FF8900"/>
<path fill-rule="evenodd" clip-rule="evenodd" d="M38.2827 14.009L24.8917 7.59045V26.2625L38.2827 14.009ZM16.7405 19.261L23.7271 26.263H13.2472L16.7405 19.261ZM10.3363 40.2666L23.7273 26.8461H4.51413L10.3363 40.2666ZM25.4742 39.0993L32.4608 35.0148L24.3098 28.5963L25.4742 39.0993ZM43.5226 27.4301L38.2827 40.2672L24.8917 27.4301H43.5226Z" fill="#0787FF"/>
<path fill-rule="evenodd" clip-rule="evenodd" d="M23.9165 6L40.0607 13.7382L26.2137 26.409H45L38.6388 41.993L32.5345 36.1413L24.6739 40.7367L23.3343 28.6534L10.0171 42L3 25.8249H12.3655L16.4771 17.5836L23.9165 25.0394V6ZM21.2978 25.2419L17.0038 20.9385L14.8569 25.2419H21.2978ZM21.298 27.8672H6.02823L10.6554 38.5333L21.298 27.8672ZM25.5406 30.8433L26.2744 37.462L30.6772 34.8881L25.5406 30.8433ZM27.4011 28.4513L37.9266 38.5414L42.0452 28.4513H27.4011ZM25.8669 24.0141L36.5047 14.2798L25.8669 9.18097V24.0141Z" fill="#0787FF"/>
</svg>
