<svg width="48" height="48" viewBox="0 0 48 48" fill="none" xmlns="http://www.w3.org/2000/svg">
<path fill-rule="evenodd" clip-rule="evenodd" d="M14.1507 17.1426L23.7029 26.2853L24.897 12.5713L14.1507 17.1426ZM38.0319 28.5706L33.8528 17.1423L24.8976 26.8564L38.0319 28.5706ZM24.8944 26.2852L14.7474 35.7939L24.2157 38.8823L24.8944 26.2852Z" fill="#FF8900"/>
<path d="M23.7029 26.2853L23.0115 27.0078L24.5183 28.4499L24.6992 26.3721L23.7029 26.2853ZM14.1507 17.1426L13.7593 16.2224L12.3634 16.8162L13.4592 17.8651L14.1507 17.1426ZM24.897 12.5713L25.8932 12.658L26.0376 10.9994L24.5055 11.6511L24.897 12.5713ZM33.8528 17.1423L34.792 16.7988L34.2289 15.259L33.1176 16.4645L33.8528 17.1423ZM38.0319 28.5706L37.9025 29.5622L39.5373 29.7756L38.9711 28.2272L38.0319 28.5706ZM24.8976 26.8564L24.1623 26.1786L22.8537 27.5981L24.7682 27.848L24.8976 26.8564ZM14.7474 35.7939L14.0636 35.0643L12.83 36.2203L14.4373 36.7446L14.7474 35.7939ZM24.8944 26.2852L25.893 26.339L26.0269 23.8535L24.2106 25.5555L24.8944 26.2852ZM24.2157 38.8823L23.9056 39.833L25.1442 40.237L25.2143 38.9361L24.2157 38.8823ZM24.3944 25.5629L14.8421 16.4202L13.4592 17.8651L23.0115 27.0078L24.3944 25.5629ZM23.9007 12.4846L22.7067 26.1986L24.6992 26.3721L25.8932 12.658L23.9007 12.4846ZM14.5421 18.0628L25.2884 13.4915L24.5055 11.6511L13.7593 16.2224L14.5421 18.0628ZM32.9136 17.4857L37.0927 28.9141L38.9711 28.2272L34.792 16.7988L32.9136 17.4857ZM25.6328 27.5342L34.588 17.8201L33.1176 16.4645L24.1623 26.1786L25.6328 27.5342ZM38.1613 27.5791L25.027 25.8648L24.7682 27.848L37.9025 29.5622L38.1613 27.5791ZM15.4312 36.5236L25.5782 27.0149L24.2106 25.5555L14.0636 35.0643L15.4312 36.5236ZM24.5258 37.9316L15.0575 34.8432L14.4373 36.7446L23.9056 39.833L24.5258 37.9316ZM23.8959 26.2314L23.2172 38.8285L25.2143 38.9361L25.893 26.339L23.8959 26.2314Z" fill="#FF8900"/>
<path fill-rule="evenodd" clip-rule="evenodd" d="M38.6269 14.2856L24.8955 8V26.2854L38.6269 14.2856ZM16.5371 19.4289L23.7013 26.2859H12.955L16.5371 19.4289ZM9.97015 39.9995L23.7015 26.8568H4L9.97015 39.9995ZM25.4928 38.8564L32.657 34.8564L24.2988 28.5708L25.4928 38.8564ZM44 27.4288L38.6269 40L24.8955 27.4288H44Z" fill="#0787FF"/>
<path d="M24.8955 8L25.3117 7.09074L23.8955 6.44245V8H24.8955ZM38.6269 14.2856L39.2849 15.0386L40.45 14.0204L39.0431 13.3763L38.6269 14.2856ZM24.8955 26.2854H23.8955V28.4873L25.5536 27.0384L24.8955 26.2854ZM23.7013 26.2859V27.2859H26.1923L24.3927 25.5635L23.7013 26.2859ZM16.5371 19.4289L17.2286 18.7064L16.267 17.7861L15.6508 18.9658L16.5371 19.4289ZM12.955 26.2859L12.0687 25.8229L11.3044 27.2859H12.955V26.2859ZM23.7015 26.8568L24.3929 27.5792L26.1925 25.8568H23.7015V26.8568ZM9.97015 39.9995L9.05968 40.413L9.64289 41.6969L10.6616 40.7219L9.97015 39.9995ZM4 26.8568V25.8568H2.4474L3.08954 27.2704L4 26.8568ZM32.657 34.8564L33.1445 35.7296L34.4859 34.9806L33.258 34.0572L32.657 34.8564ZM25.4928 38.8564L24.4995 38.9717L24.6722 40.4598L25.9803 39.7295L25.4928 38.8564ZM24.2988 28.5708L24.8998 27.7716L23.0366 26.3704L23.3054 28.6861L24.2988 28.5708ZM38.6269 40L37.9516 40.7376L38.992 41.6901L39.5464 40.393L38.6269 40ZM44 27.4288L44.9195 27.8218L45.5149 26.4288H44V27.4288ZM24.8955 27.4288V26.4288H22.3223L24.2202 28.1664L24.8955 27.4288ZM24.4793 8.90926L38.2106 15.1949L39.0431 13.3763L25.3117 7.09074L24.4793 8.90926ZM25.8955 26.2854V8H23.8955V26.2854H25.8955ZM37.9688 13.5326L24.2375 25.5324L25.5536 27.0384L39.2849 15.0386L37.9688 13.5326ZM24.3927 25.5635L17.2286 18.7064L15.8457 20.1513L23.0098 27.0083L24.3927 25.5635ZM12.955 27.2859H23.7013V25.2859H12.955V27.2859ZM15.6508 18.9658L12.0687 25.8229L13.8414 26.7489L17.4235 19.8919L15.6508 18.9658ZM23.01 26.1344L9.2787 39.277L10.6616 40.7219L24.3929 27.5792L23.01 26.1344ZM4 27.8568H23.7015V25.8568H4V27.8568ZM10.8806 39.5859L4.91046 26.4432L3.08954 27.2704L9.05968 40.413L10.8806 39.5859ZM32.1695 33.9833L25.0053 37.9832L25.9803 39.7295L33.1445 35.7296L32.1695 33.9833ZM23.6977 29.37L32.0559 35.6556L33.258 34.0572L24.8998 27.7716L23.6977 29.37ZM26.4861 38.741L25.2921 28.4555L23.3054 28.6861L24.4995 38.9717L26.4861 38.741ZM39.5464 40.393L44.9195 27.8218L43.0805 27.0358L37.7073 39.607L39.5464 40.393ZM24.2202 28.1664L37.9516 40.7376L39.3021 39.2624L25.5708 26.6912L24.2202 28.1664ZM44 26.4288H24.8955V28.4288H44V26.4288Z" fill="#0787FF"/>
</svg>
