<svg width="48" height="48" viewBox="0 0 48 48" fill="none" xmlns="http://www.w3.org/2000/svg">
<path fill-rule="evenodd" clip-rule="evenodd" d="M15.3933 13.7427C16.1304 13.173 16.9196 12.6882 17.7473 12.2948C18.4819 11.9459 19.2467 11.6688 20.0327 11.4683C21.7043 11.042 23.4385 10.9704 25.1361 11.2578C26.8337 11.5453 28.4616 12.186 29.9268 13.1434C31.3919 14.1008 32.6656 15.3561 33.6752 16.8378C34.6848 18.3195 35.4104 19.9984 35.8108 21.7787C36.2111 23.5591 36.2783 25.406 36.0084 27.214C35.7386 29.022 35.1369 30.7556 34.238 32.316C33.8153 33.0496 33.3308 33.7381 32.7914 34.3736C32.1844 35.0887 31.508 35.7366 30.772 36.3057L30.7689 36.308L28.8219 33.4506C29.8608 32.6477 30.741 31.6347 31.4124 30.4696C32.0837 29.3044 32.5329 28.0098 32.7344 26.6597C32.9359 25.3096 32.8858 23.9305 32.5868 22.601C32.2879 21.2716 31.746 20.0178 30.9922 18.9114C30.2382 17.805 29.2871 16.8676 28.193 16.1526C27.0989 15.4377 25.8834 14.9593 24.6157 14.7446C23.348 14.53 22.0531 14.5834 20.8047 14.9018C19.5568 15.2201 18.3799 15.7969 17.3413 16.5995L17.3403 16.6001L15.3933 13.7427Z" fill="#EC7838"/>
<path fill-rule="evenodd" clip-rule="evenodd" d="M23.2633 38.9647C22.3486 38.9783 21.4416 38.8897 20.5559 38.7042C19.2417 38.429 17.9746 37.9405 16.7995 37.2559C16.0077 36.7947 15.2575 36.2444 14.563 35.6103L16.7203 32.9297C18.527 34.5788 20.8367 35.4695 23.216 35.4345H23.2172L23.2633 38.9647Z" fill="#EC7838"/>
<path d="M33.1721 42C35.5032 40.5667 37.505 38.5981 39.032 36.2374C40.5592 33.8768 41.573 31.1833 42 28.353L24.1148 25.2925L33.1721 42Z" fill="#0787FF"/>
<path d="M6 25.2925C6 28.1591 6.59986 30.9897 7.75595 33.5786C8.91205 36.1673 10.5953 38.4492 12.6834 40.2582L24.1147 25.2925H6Z" fill="#0787FF"/>
<path d="M17.3882 16.5524C16.1687 17.6169 15.1875 18.9574 14.5155 20.4764C13.8436 21.9955 13.4979 23.6549 13.5037 25.3341L24.1146 25.2924L17.3882 16.5524Z" fill="#EC7838"/>
<path d="M23.1702 35.5475C25.202 35.7598 27.2448 35.2823 29.0062 34.1831L24.115 25.2925L23.1702 35.5475Z" fill="#EC7838"/>
<path d="M36.9239 11.6505C35.0206 9.62354 32.717 8.0737 30.1807 7.11377C27.6444 6.15384 24.9392 5.80795 22.2616 6.10123L24.1149 25.2922L36.9239 11.6505Z" fill="#0787FF"/>
</svg>
