<svg width="48" height="48" viewBox="0 0 48 48" fill="none" xmlns="http://www.w3.org/2000/svg">
<path fill-rule="evenodd" clip-rule="evenodd" d="M13.028 16.0051C13.8149 15.4205 14.6574 14.923 15.541 14.5194C16.3252 14.1613 17.1417 13.877 17.9808 13.6713C19.7654 13.2338 21.6168 13.1604 23.4291 13.4553C25.2414 13.7503 26.9793 14.4077 28.5434 15.3901C30.1075 16.3725 31.4673 17.6606 32.5451 19.181C33.6229 20.7013 34.3976 22.4241 34.825 24.2509C35.2524 26.0777 35.3241 27.9728 35.036 29.828C34.7479 31.6832 34.1056 33.4621 33.1459 35.0632C32.6947 35.816 32.1774 36.5225 31.6016 37.1746C30.9536 37.9083 30.2315 38.5731 29.4458 39.1571C29.4447 39.1579 29.4436 39.1587 29.4425 39.1595L27.3639 36.2275C28.473 35.4036 29.4127 34.3642 30.1294 33.1686C30.8461 31.973 31.3256 30.6446 31.5408 29.2593C31.7559 27.8739 31.7024 26.4588 31.3832 25.0946C31.0641 23.7305 30.4856 22.444 29.6808 21.3087C28.8759 20.1734 27.8605 19.2115 26.6925 18.4779C25.5245 17.7443 24.2268 17.2534 22.8735 17.0331C21.5201 16.8129 20.1377 16.8677 18.805 17.1944C17.4728 17.521 16.2164 18.1129 15.1076 18.9364C15.1072 18.9366 15.1069 18.9369 15.1065 18.9371L13.028 16.0051Z" fill="#EC7838"/>
<path fill-rule="evenodd" clip-rule="evenodd" d="M21.4297 41.8856C20.4532 41.8995 19.4849 41.8086 18.5394 41.6183C17.1364 41.3359 15.7836 40.8346 14.5291 40.1322C13.6838 39.6589 12.883 39.0942 12.1415 38.4436L14.4446 35.693C16.3734 37.3852 18.8391 38.2991 21.3792 38.2632C21.3796 38.2632 21.38 38.2632 21.3805 38.2632L21.4297 41.8856Z" fill="#EC7838"/>
<path d="M32.008 45.0001C34.4966 43.5294 36.6337 41.5094 38.2639 39.0871C39.8942 36.6648 40.9766 33.901 41.4324 30.9968L22.3387 27.8564L32.008 45.0001Z" fill="#0787FF"/>
<path d="M2.99997 27.8565C2.99997 30.798 3.64036 33.7025 4.87457 36.3589C6.10878 39.0152 7.90578 41.3567 10.1349 43.2129L22.3386 27.8565L2.99997 27.8565Z" fill="#0787FF"/>
<path d="M15.1577 18.8882C13.8558 19.9805 12.8082 21.356 12.0908 22.9147C11.3735 24.4734 11.0045 26.1762 11.0107 27.8992L22.3385 27.8564L15.1577 18.8882Z" fill="#EC7838"/>
<path d="M21.3303 38.3791C23.4994 38.597 25.6802 38.107 27.5606 36.9791L22.339 27.8564L21.3303 38.3791Z" fill="#EC7838"/>
<path d="M36.0133 13.8584C33.9814 11.7785 31.5222 10.1882 28.8145 9.20321C26.1068 8.21822 23.2188 7.8633 20.3603 8.16424L22.3388 27.8562L36.0133 13.8584Z" fill="#0787FF"/>
</svg>
