<svg width="48" height="48" viewBox="0 0 48 48" fill="none" xmlns="http://www.w3.org/2000/svg">
<path d="M40.2 26C41.1941 26 42.0093 25.1921 41.9101 24.203C41.7028 22.1374 41.1393 20.1186 40.2402 18.2375C39.0816 15.8137 37.3953 13.68 35.3048 11.9928C33.2143 10.3056 30.7726 9.10774 28.1589 8.48705C25.5452 7.86635 22.8257 7.83856 20.1998 8.40573C17.5739 8.97289 15.1083 10.1206 12.9838 11.7647C10.8592 13.4089 9.12963 15.5077 7.92183 17.9073C6.71402 20.3069 6.05865 22.9464 6.00376 25.6322C5.96116 27.7168 6.2811 29.7882 6.94485 31.7552C7.26269 32.6971 8.33866 33.0965 9.24415 32.6862L10.5979 32.0728L11.9516 31.4594C12.8571 31.0491 13.2433 29.984 12.9801 29.0253C12.6897 27.9672 12.5522 26.8698 12.5748 25.7665C12.6096 24.0614 13.0257 22.3856 13.7925 20.8622C14.5593 19.3388 15.6574 18.0063 17.0062 16.9625C18.355 15.9187 19.9203 15.1901 21.5874 14.83C23.2544 14.4699 24.981 14.4876 26.6403 14.8816C28.2997 15.2757 29.8498 16.0362 31.177 17.1073C32.5042 18.1784 33.5748 19.5331 34.3103 21.0718C34.7862 22.0674 35.114 23.1238 35.2861 24.2074C35.4421 25.1892 36.2335 26 37.2276 26H40.2Z" fill="#7FC1FF"/>
<path d="M42 26C42 22.4399 40.9443 18.9598 38.9665 15.9997C36.9886 13.0397 34.1774 10.7325 30.8883 9.37017C27.5992 8.00779 23.98 7.65133 20.4884 8.34586C16.9967 9.0404 13.7894 10.7547 11.2721 13.2721L15.9195 17.9195C17.5176 16.3213 19.5538 15.2329 21.7706 14.792C23.9873 14.351 26.285 14.5773 28.3732 15.4423C30.4613 16.3072 32.246 17.7719 33.5017 19.6512C34.7574 21.5304 35.4276 23.7398 35.4276 26H42Z" fill="#0787FF"/>
<path d="M38.1723 33.8472C39.042 34.3287 40.1465 34.0169 40.5388 33.1035C41.8011 30.1649 42.2619 26.9319 41.8573 23.7375C41.377 19.9457 39.7022 16.4053 37.0754 13.6289L32.3011 18.1458C33.9688 19.9085 35.032 22.1562 35.337 24.5634C35.5661 26.3723 35.3581 28.2007 34.7418 29.8986C34.4027 30.833 34.7022 31.9257 35.5719 32.4073L38.1723 33.8472Z" fill="#0064C1"/>
<path d="M28.9444 17.9753C29.4171 18.2044 24.2211 27.3422 24.2211 27.3422C24.2211 27.3422 23.7243 28.515 22.3173 27.6254C20.9104 26.7357 21.8941 25.7432 21.8941 25.7432C21.8941 25.7432 28.4716 17.7461 28.9444 17.9753Z" fill="#E23F3F"/>
</svg>
