<svg width="48" height="48" viewBox="0 0 48 48" fill="none" xmlns="http://www.w3.org/2000/svg">
<path d="M40.2 28.9499C41.1941 28.9499 42.0093 28.1443 41.9101 27.1579C41.7028 25.0981 41.1393 23.0849 40.2402 21.209C39.0816 18.792 37.3953 16.6642 35.3048 14.9817C33.2143 13.2992 30.7726 12.1047 28.1589 11.4857C25.5452 10.8667 22.8257 10.839 20.1998 11.4046C17.5739 11.9702 15.1083 13.1147 12.9838 14.7543C10.8592 16.3938 9.12963 18.4868 7.92183 20.8797C6.71402 23.2726 6.05865 25.9048 6.00376 28.5832C5.96116 30.6619 6.2811 32.7275 6.94485 34.689C7.26269 35.6284 8.33866 36.0266 9.24415 35.6175L11.9516 34.3941C12.8571 33.985 13.2433 32.9228 12.9801 31.9668C12.6897 30.9117 12.5522 29.8172 12.5748 28.7171C12.6096 27.0167 13.0257 25.3456 13.7925 23.8264C14.5593 22.3072 15.6574 20.9785 17.0062 19.9376C18.355 18.8967 19.9203 18.1701 21.5874 17.811C23.2544 17.4519 24.981 17.4695 26.6403 17.8625C28.2997 18.2554 29.8498 19.0138 31.177 20.082C32.5042 21.1501 33.5748 22.501 34.3103 24.0355C34.7862 25.0283 35.114 26.0817 35.2861 27.1623C35.4421 28.1414 36.2335 28.9499 37.2276 28.9499H40.2Z" fill="#7FC1FF"/>
<path d="M42 28.9499C42 25.3998 40.9443 21.9293 38.9665 18.9775C36.9886 16.0256 34.1774 13.7249 30.8883 12.3664C27.5992 11.0078 23.98 10.6523 20.4884 11.3449C16.9967 12.0375 13.7894 13.7471 11.2721 16.2574L15.9195 20.8919C17.5176 19.2981 19.5538 18.2128 21.7706 17.7731C23.9873 17.3334 26.285 17.559 28.3732 18.4216C30.4613 19.2841 32.246 20.7447 33.5017 22.6187C34.7574 24.4928 35.4276 26.696 35.4276 28.9499H42Z" fill="#0787FF"/>
<path d="M38.1723 36.7757C39.0419 37.256 40.1465 36.945 40.5388 36.0341C41.8011 33.1037 42.2619 29.8797 41.8573 26.6942C41.3769 22.913 39.7022 19.3824 37.0754 16.6137L32.3011 21.1181C33.9688 22.8758 35.032 25.1173 35.337 27.5178C35.5661 29.3217 35.3581 31.145 34.7418 32.8381C34.4026 33.77 34.7022 34.8596 35.5719 35.3398L38.1723 36.7757Z" fill="#0064C1"/>
<path d="M28.9444 20.9478C29.4171 21.1764 24.2211 30.2887 24.2211 30.2887C24.2211 30.2887 23.7243 31.4583 22.3173 30.5711C20.9104 29.6839 21.8941 28.6942 21.8941 28.6942C21.8941 28.6942 28.4716 20.7193 28.9444 20.9478Z" fill="#E23F3F"/>
</svg>
