<svg width="48" height="48" viewBox="0 0 48 48" fill="none" xmlns="http://www.w3.org/2000/svg">
<path d="M31 27V9.47778C31 8.66162 30.6239 8 30.16 8H25.84C25.3761 8 25 8.66162 25 9.47778V27H31Z" fill="#00A89E"/>
<path d="M22.769 32V21.4572C22.769 20.9661 22.3833 20.568 21.9075 20.568H17.4768C17.001 20.568 16.6152 20.9661 16.6152 21.4572V32H22.769Z" fill="#1D91FF"/>
<path d="M14 40L14 16.0222C14 14.9054 13.6239 14 13.16 14H8.84C8.37608 14 8 14.9054 8 16.0222L8 40H14Z" fill="#F25858"/>
<path d="M39.9998 40V24.3222C39.9998 23.592 39.6237 23 39.1598 23H34.8398C34.3759 23 33.9998 23.592 33.9998 24.3222V40H39.9998Z" fill="#FF8900"/>
</svg>
