<svg width="48" height="48" viewBox="0 0 48 48" fill="none" xmlns="http://www.w3.org/2000/svg">
<path d="M16 31L38.1333 31C39.1643 31 40 30.6239 40 30.16L40 25.84C40 25.3761 39.1643 25 38.1333 25L16 25L16 31Z" fill="#00A89E"/>
<path d="M16 23L31.6778 23C32.408 23 33 22.6239 33 22.16L33 17.84C33 17.3761 32.408 17 31.6778 17L16 17L16 23Z" fill="#1D91FF"/>
<path d="M8 14L35.6667 14C36.9553 14 38 13.6239 38 13.16L38 8.84C38 8.37608 36.9553 8 35.6667 8L8 8L8 14Z" fill="#F25858"/>
<path d="M8 40L24.6 40C25.3732 40 26 39.6239 26 39.16L26 34.84C26 34.3761 25.3732 34 24.6 34L8 34L8 40Z" fill="#FF8900"/>
</svg>
