<svg width="48" height="48" viewBox="0 0 48 48" fill="none" xmlns="http://www.w3.org/2000/svg">
<path d="M29.5 9V14.2C29.5 15.3046 30.3954 16.2 31.5 16.2H36V38C36 38.5523 35.5523 39 35 39H13C12.4477 39 12 38.5523 12 38V10C12 9.44772 12.4477 9 13 9H29.5ZM31.5 14.2V10.6L34.75 14.2L31.5 14.2Z" stroke="#0787FF" stroke-width="2" stroke-linejoin="round"/>
<path d="M30.9333 14.4V11.2V10.1333L34.4 14.4H30.9333Z" fill="#0787FF"/>
<path d="M16 12V36H20V12H16Z" fill="#EC7838"/>
<path d="M22.0114 17.886V36.0193H25.998V17.886H22.0114Z" fill="#0787FF"/>
<path d="M27.998 26.4193V36.0193H31.9864V26.4193H27.998Z" fill="#EC7838"/>
</svg>
