<svg width="48" height="48" viewBox="0 0 48 48" fill="none" xmlns="http://www.w3.org/2000/svg">
<path fill-rule="evenodd" clip-rule="evenodd" d="M11.5254 16.8275C12.8734 16.8275 13.9661 15.7159 13.9661 14.3448C13.9661 12.9736 12.8734 11.862 11.5254 11.862C10.1775 11.862 9.08474 12.9736 9.08474 14.3448C9.08474 15.7159 10.1775 16.8275 11.5254 16.8275ZM11.5254 17.931C13.4724 17.931 15.0508 16.3254 15.0508 14.3448C15.0508 12.3641 13.4724 10.7585 11.5254 10.7585C9.57838 10.7585 8 12.3641 8 14.3448C8 16.3254 9.57838 17.931 11.5254 17.931Z" fill="#0787FF"/>
<path fill-rule="evenodd" clip-rule="evenodd" d="M36.4746 14.069C37.8225 14.069 38.9153 12.9574 38.9153 11.5862C38.9153 10.215 37.8225 9.10345 36.4746 9.10345C35.1266 9.10345 34.0339 10.215 34.0339 11.5862C34.0339 12.9574 35.1266 14.069 36.4746 14.069ZM36.4746 15.1724C38.4216 15.1724 40 13.5668 40 11.5862C40 9.60559 38.4216 8 36.4746 8C34.5276 8 32.9492 9.60559 32.9492 11.5862C32.9492 13.5668 34.5276 15.1724 36.4746 15.1724Z" fill="#0787FF"/>
<path fill-rule="evenodd" clip-rule="evenodd" d="M31.5935 38.8965C32.9414 38.8965 34.0341 37.7849 34.0341 36.4137C34.0341 35.0426 32.9414 33.931 31.5935 33.931C30.2455 33.931 29.1527 35.0426 29.1527 36.4137C29.1527 37.7849 30.2455 38.8965 31.5935 38.8965ZM31.5935 40C33.5405 40 35.1189 38.3944 35.1189 36.4137C35.1189 34.4331 33.5405 32.8275 31.5935 32.8275C29.6464 32.8275 28.0681 34.4331 28.0681 36.4137C28.0681 38.3944 29.6464 40 31.5935 40Z" fill="#0787FF"/>
<path fill-rule="evenodd" clip-rule="evenodd" d="M22.9154 33.9308C24.2634 33.9308 25.3561 32.8193 25.3561 31.4481C25.3561 30.0769 24.2634 28.9653 22.9154 28.9653C21.5674 28.9653 20.4748 30.0769 20.4748 31.4481C20.4748 32.8193 21.5674 33.9308 22.9154 33.9308ZM22.9154 35.0343C24.8624 35.0343 26.4408 33.4287 26.4408 31.4481C26.4408 29.4675 24.8624 27.8619 22.9154 27.8619C20.9684 27.8619 19.39 29.4675 19.39 31.4481C19.39 33.4287 20.9684 35.0343 22.9154 35.0343Z" fill="#0787FF"/>
<path d="M28.6105 20.4139C28.6105 22.3945 27.0321 24.0001 25.0851 24.0001C23.1381 24.0001 21.5597 22.3945 21.5597 20.4139C21.5597 18.4334 23.1381 16.8278 25.0851 16.8278C27.0321 16.8278 28.6105 18.4334 28.6105 20.4139Z" fill="#EC7838"/>
<path d="M17.7629 35.8621C17.7629 37.8427 16.1845 39.4482 14.2374 39.4482C12.2904 39.4482 10.712 37.8427 10.712 35.8621C10.712 33.8815 12.2904 32.2759 14.2374 32.2759C16.1845 32.2759 17.7629 33.8815 17.7629 35.8621Z" fill="#EC7838"/>
<path d="M39.8987 27.5861C39.8987 29.5667 38.3204 31.1722 36.3733 31.1722C34.4263 31.1722 32.8479 29.5667 32.8479 27.5861C32.8479 25.6055 34.4263 23.9999 36.3733 23.9999C38.3204 23.9999 39.8987 25.6055 39.8987 27.5861Z" fill="#EC7838"/>
</svg>
