<svg width="48" height="48" viewBox="0 0 48 48" fill="none" xmlns="http://www.w3.org/2000/svg">
<path fill-rule="evenodd" clip-rule="evenodd" d="M11.5862 16.8275C12.9574 16.8275 14.069 15.7159 14.069 14.3448C14.069 12.9736 12.9574 11.862 11.5862 11.862C10.215 11.862 9.10345 12.9736 9.10345 14.3448C9.10345 15.7159 10.215 16.8275 11.5862 16.8275ZM11.5862 17.931C13.5668 17.931 15.1724 16.3254 15.1724 14.3448C15.1724 12.3641 13.5668 10.7585 11.5862 10.7585C9.6056 10.7585 8 12.3641 8 14.3448C8 16.3254 9.6056 17.931 11.5862 17.931Z" fill="#0787FF"/>
<path fill-rule="evenodd" clip-rule="evenodd" d="M36.9656 14.069C38.3368 14.069 39.4484 12.9574 39.4484 11.5862C39.4484 10.215 38.3368 9.10345 36.9656 9.10345C35.5944 9.10345 34.4828 10.215 34.4828 11.5862C34.4828 12.9574 35.5944 14.069 36.9656 14.069ZM36.9656 15.1724C38.9462 15.1724 40.5518 13.5668 40.5518 11.5862C40.5518 9.6056 38.9462 8 36.9656 8C34.985 8 33.3794 9.6056 33.3794 11.5862C33.3794 13.5668 34.985 15.1724 36.9656 15.1724Z" fill="#0787FF"/>
<path fill-rule="evenodd" clip-rule="evenodd" d="M32.0003 38.8966C33.3715 38.8966 34.483 37.785 34.483 36.4138C34.483 35.0427 33.3715 33.9311 32.0003 33.9311C30.6291 33.9311 29.5175 35.0427 29.5175 36.4138C29.5175 37.785 30.6291 38.8966 32.0003 38.8966ZM32.0003 40.0001C33.9809 40.0001 35.5865 38.3945 35.5865 36.4138C35.5865 34.4332 33.9809 32.8276 32.0003 32.8276C30.0197 32.8276 28.4141 34.4332 28.4141 36.4138C28.4141 38.3945 30.0197 40.0001 32.0003 40.0001Z" fill="#0787FF"/>
<path fill-rule="evenodd" clip-rule="evenodd" d="M23.1726 33.931C24.5438 33.931 25.6554 32.8195 25.6554 31.4483C25.6554 30.0771 24.5438 28.9655 23.1726 28.9655C21.8014 28.9655 20.6899 30.0771 20.6899 31.4483C20.6899 32.8195 21.8014 33.931 23.1726 33.931ZM23.1726 35.0345C25.1532 35.0345 26.7588 33.4289 26.7588 31.4483C26.7588 29.4677 25.1532 27.8621 23.1726 27.8621C21.192 27.8621 19.5864 29.4677 19.5864 31.4483C19.5864 33.4289 21.192 35.0345 23.1726 35.0345Z" fill="#0787FF"/>
<path d="M28.9659 20.414C28.9659 22.3946 27.3603 24.0002 25.3797 24.0002C23.3991 24.0002 21.7935 22.3946 21.7935 20.414C21.7935 18.4334 23.3991 16.8278 25.3797 16.8278C27.3603 16.8278 28.9659 18.4334 28.9659 20.414Z" fill="#EC7838"/>
<path d="M17.9312 35.8622C17.9312 37.8428 16.3256 39.4484 14.345 39.4484C12.3644 39.4484 10.7588 37.8428 10.7588 35.8622C10.7588 33.8816 12.3644 32.276 14.345 32.276C16.3256 32.276 17.9312 33.8816 17.9312 35.8622Z" fill="#EC7838"/>
<path d="M39.4488 27.5862C39.4488 29.5668 37.8432 31.1724 35.8626 31.1724C33.882 31.1724 32.2764 29.5668 32.2764 27.5862C32.2764 25.6056 33.882 24 35.8626 24C37.8432 24 39.4488 25.6056 39.4488 27.5862Z" fill="#EC7838"/>
</svg>
