<svg width="48" height="48" viewBox="0 0 48 48" fill="none" xmlns="http://www.w3.org/2000/svg">
<path d="M11.2632 23.2025C13.1854 23.2025 14.2349 26.5987 17.0526 27.4303C19.8704 28.2618 18.9042 17.1507 23.4211 16.8038C27.9379 16.4569 28.5735 21.4882 30.9474 21.1458C33.3213 20.8033 35.2789 12.1108 37.8947 12.0047C40.5106 11.8987 41.1516 13.5592 41.9474 18.4035C42.7432 23.2478 46 35.5488 46 35.5488V36H2L7.21053 28.0016C7.21053 28.0016 9.34092 23.2025 11.2632 23.2025Z" fill="#FF8900"/>
<path d="M11.2632 28.716C13.2561 28.5299 15.3158 31.1222 17.0526 31.1222C18.7895 31.1222 20.8618 24.9993 23.4211 25.0743C25.9803 25.1493 29.2105 27.5455 30.9474 27.5455C32.6842 27.5455 36.1061 21.9513 37.8947 22.3429C39.6834 22.7346 40.2105 23.1233 41.9474 25.9847C43.6842 28.8461 46 35.7428 46 35.7428V35.9996H2L7.21053 31.4474C7.21053 31.4474 9.27023 28.9022 11.2632 28.716Z" fill="#005EB7"/>
</svg>
