<svg width="48" height="48" viewBox="0 0 48 48" fill="none" xmlns="http://www.w3.org/2000/svg">
<path fill-rule="evenodd" clip-rule="evenodd" d="M6.44041 39.9902C7.90892 40.1105 9.20924 39.1043 9.34039 37.7363C10.318 27.5397 15.2849 24.0365 25.5553 26.2588C39.3003 29.233 45.8917 23.2828 43.5278 10.0769C43.2854 8.72279 41.9078 7.81102 40.4537 8.03338C38.9968 8.25619 38.0065 9.53443 38.2494 10.8913C39.9934 20.6339 36.7631 23.5833 26.7699 21.421C13.3007 18.5065 5.27414 24.1182 4.01071 37.2959C3.87941 38.6654 4.97032 39.8698 6.44041 39.9902ZM25.8881 24.9031C14.7304 22.4887 8.92194 26.5854 7.8648 37.6116C7.80733 38.2109 7.22923 38.6583 6.56922 38.6042C5.9108 38.5503 5.42912 38.0185 5.48644 37.4207C6.67008 25.0751 13.8525 20.0536 26.4373 22.7768C37.4718 25.1644 41.6276 21.37 39.7106 10.6607C39.6047 10.069 40.0407 9.50621 40.6919 9.40661C41.3461 9.30657 41.9603 9.71308 42.0667 10.3076C44.2569 22.5427 38.5961 27.6528 25.8881 24.9031Z" fill="#005EB7"/>
<path d="M8.60193 37.6745C8.50761 38.6582 7.56841 39.385 6.50415 39.2978C5.43989 39.2106 4.65359 38.3425 4.74791 37.3588C5.9704 24.6081 13.5648 19.2782 26.603 22.0994C37.1068 24.3723 40.8116 21.0122 38.9793 10.7766C38.8049 9.80226 39.5181 8.88175 40.5722 8.72055C41.6263 8.55935 42.6222 9.21849 42.7966 10.1928C45.0716 22.9022 38.9591 28.446 25.721 25.5815C15.0172 23.2654 9.62027 27.053 8.60193 37.6745Z" fill="#005EB7"/>
</svg>
