<svg width="48" height="48" viewBox="0 0 48 48" fill="none" xmlns="http://www.w3.org/2000/svg">
<path d="M5 27.5017C6.45355 24.0482 9.73443 19.2132 11.2295 27.5017L13.0984 33.5962L21.1967 12.875L29.918 28.7206L35.5246 20.1884L43 37.2529" stroke="#F25858" stroke-width="3" stroke-linecap="round"/>
<path d="M23.4385 10.4378C23.4385 11.6409 22.44 12.6256 21.1967 12.6256C19.9534 12.6256 18.9549 11.6409 18.9549 10.4378C18.9549 9.23464 19.9534 8.25 21.1967 8.25C22.44 8.25 23.4385 9.23464 23.4385 10.4378Z" fill="#F25858" stroke="white" stroke-width="0.5"/>
<path d="M15.4016 37.5618C15.4016 38.765 14.4031 39.7496 13.1598 39.7496C11.9165 39.7496 10.918 38.765 10.918 37.5618C10.918 36.3587 11.9165 35.374 13.1598 35.374C14.4031 35.374 15.4016 36.3587 15.4016 37.5618Z" fill="#F25858" stroke="white" stroke-width="0.5"/>
<path d="M37.7663 17.7513C37.7663 18.9544 36.7678 19.9391 35.5245 19.9391C34.2812 19.9391 33.2827 18.9544 33.2827 17.7513C33.2827 16.5481 34.2812 15.5635 35.5245 15.5635C36.7678 15.5635 37.7663 16.5481 37.7663 17.7513Z" fill="#F25858" stroke="white" stroke-width="0.5"/>
</svg>
