<svg width="48" height="48" viewBox="0 0 48 48" fill="none" xmlns="http://www.w3.org/2000/svg">
<path d="M8 33.8462L39 33.8462C39.5523 33.8462 40 34.2939 40 34.8462V39C40 39.5523 39.5523 40 39 40L8 40L8 33.8462Z" fill="#FF8B8B"/>
<path d="M8 16.6154L32.1429 16.6154C32.6951 16.6154 33.1429 17.0631 33.1429 17.6154V21.7692C33.1429 22.3215 32.6951 22.7692 32.1429 22.7692L8 22.7692L8 16.6154Z" fill="#88D2CE"/>
<path d="M8 25.2308L25.2857 25.2308C25.838 25.2308 26.2857 25.6785 26.2857 26.2308V30.3846C26.2857 30.9369 25.838 31.3846 25.2857 31.3846L8 31.3846L8 25.2308Z" fill="#C2E0FF"/>
<path d="M8 8L17.2857 8C17.838 8 18.2857 8.44772 18.2857 9V13.1538C18.2857 13.7061 17.838 14.1538 17.2857 14.1538L8 14.1538L8 8Z" fill="#FFD29E"/>
<path d="M8 40.0001H23C23.5523 40.0001 24 39.5523 24 39.0001V34.8462C24 34.2939 23.5523 33.8462 23 33.8462H8V40.0001Z" fill="#F25858"/>
<path fill-rule="evenodd" clip-rule="evenodd" d="M8 22.7693H18.4286C18.9809 22.7693 19.4286 22.3216 19.4286 21.7693V17.6155C19.4286 17.0632 18.9809 16.6155 18.4286 16.6155H8V22.7693Z" fill="#00A89E"/>
<path fill-rule="evenodd" clip-rule="evenodd" d="M8 31.3847H18.4286C18.9809 31.3847 19.4286 30.937 19.4286 30.3847V26.2309C19.4286 25.6786 18.9809 25.2309 18.4286 25.2309H8V31.3847Z" fill="#1D91FF"/>
<path d="M8 14.1538H11.5714C12.1237 14.1538 12.5714 13.7061 12.5714 13.1538V8.99996C12.5714 8.44768 12.1237 7.99996 11.5714 7.99996H8V14.1538Z" fill="#FF8900"/>
</svg>
