<svg width="48" height="48" viewBox="0 0 48 48" fill="none" xmlns="http://www.w3.org/2000/svg">
<path d="M8 33.8457L39 33.8457C39.5523 33.8457 40 34.2934 40 34.8457V38.9995C40 39.5518 39.5523 39.9995 39 39.9995L8 39.9995L8 33.8457Z" fill="#FF8B8B"/>
<path d="M8 16.6152L32.1429 16.6152C32.6951 16.6152 33.1429 17.0629 33.1429 17.6152V21.7691C33.1429 22.3214 32.6951 22.7691 32.1429 22.7691L8 22.7691L8 16.6152Z" fill="#88D2CE"/>
<path d="M8 25.2305L25.2857 25.2305C25.838 25.2305 26.2857 25.6782 26.2857 26.2305V30.3843C26.2857 30.9366 25.838 31.3843 25.2857 31.3843L8 31.3843L8 25.2305Z" fill="#C2E0FF"/>
<path d="M8 8L17.2857 8C17.838 8 18.2857 8.44772 18.2857 9V13.1538C18.2857 13.7061 17.838 14.1538 17.2857 14.1538L8 14.1538L8 8Z" fill="#FFD29E"/>
<path d="M8 40H23C23.5523 40 24 39.5523 24 39V34.8462C24 34.2939 23.5523 33.8462 23 33.8462H8V40Z" fill="#F25858"/>
<path fill-rule="evenodd" clip-rule="evenodd" d="M8 22.7695H18.4286C18.9809 22.7695 19.4286 22.3218 19.4286 21.7695V17.6157C19.4286 17.0634 18.9809 16.6157 18.4286 16.6157H8V22.7695Z" fill="#00A89E"/>
<path fill-rule="evenodd" clip-rule="evenodd" d="M8 31.3848H18.4286C18.9809 31.3848 19.4286 30.9371 19.4286 30.3848V26.2309C19.4286 25.6786 18.9809 25.2309 18.4286 25.2309H8V31.3848Z" fill="#1D91FF"/>
<path d="M8 14.1543H11.5714C12.1237 14.1543 12.5714 13.7066 12.5714 13.1543V9.00045C12.5714 8.44817 12.1237 8.00045 11.5714 8.00045H8V14.1543Z" fill="#FF8900"/>
</svg>
