<svg width="48" height="48" viewBox="0 0 48 48" fill="none" xmlns="http://www.w3.org/2000/svg">
<path d="M33.8462 40L33.8462 9C33.8462 8.44772 34.2939 8 34.8462 8L39 8C39.5523 8 40 8.44771 40 9L40 40L33.8462 40Z" fill="#FF8B8B"/>
<path d="M16.6154 40L16.6154 15.8571C16.6154 15.3049 17.0631 14.8571 17.6154 14.8571L21.7692 14.8571C22.3215 14.8571 22.7692 15.3049 22.7692 15.8571L22.7692 40L16.6154 40Z" fill="#88D2CE"/>
<path d="M25.2308 40L25.2308 22.7143C25.2308 22.162 25.6785 21.7143 26.2308 21.7143L30.3846 21.7143C30.9369 21.7143 31.3846 22.162 31.3846 22.7143L31.3846 40L25.2308 40Z" fill="#C2E0FF"/>
<path d="M8 40L8 30.7143C8 30.162 8.44771 29.7143 9 29.7143L13.1538 29.7143C13.7061 29.7143 14.1538 30.162 14.1538 30.7143L14.1538 40L8 40Z" fill="#FFD29E"/>
<path d="M40.0001 40L40.0001 25C40.0001 24.4477 39.5523 24 39.0001 24L34.8462 24C34.2939 24 33.8462 24.4477 33.8462 25L33.8462 40L40.0001 40Z" fill="#F25858"/>
<path fill-rule="evenodd" clip-rule="evenodd" d="M22.7693 40L22.7693 29.5714C22.7693 29.0191 22.3216 28.5714 21.7693 28.5714L17.6155 28.5714C17.0632 28.5714 16.6155 29.0191 16.6155 29.5714L16.6155 40L22.7693 40Z" fill="#00A89E"/>
<path fill-rule="evenodd" clip-rule="evenodd" d="M31.3847 40L31.3847 29.5714C31.3847 29.0191 30.937 28.5714 30.3847 28.5714L26.2309 28.5714C25.6786 28.5714 25.2309 29.0191 25.2309 29.5714L25.2309 40L31.3847 40Z" fill="#1D91FF"/>
<path d="M14.1538 40L14.1538 36.4286C14.1538 35.8763 13.7061 35.4286 13.1538 35.4286L8.99996 35.4286C8.44768 35.4286 7.99996 35.8763 7.99996 36.4286L7.99996 40L14.1538 40Z" fill="#FF8900"/>
</svg>
