<svg width="48" height="48" viewBox="0 0 48 48" fill="none" xmlns="http://www.w3.org/2000/svg">
<path d="M2 22.9372C2 22.9372 8.94737 26.1365 10.6842 26.1365C12.4211 26.1365 17.2574 16.5387 18.7895 16.5387C20.3216 16.5387 24.5789 19.738 26.3158 19.738C28.0526 19.738 33.469 8.3546 35.5789 8.00735C37.6889 7.66009 46 19.738 46 19.738V39.5207V40H2V22.9372Z" fill="#F25858"/>
<path d="M2 25.8858C2 25.8858 8.94737 28.5322 10.6842 28.5322C12.4211 28.5322 17.2574 20.5928 18.7895 20.5928C20.3216 20.5928 24.5789 23.2393 26.3158 23.2393C28.0526 23.2393 34.4211 14.0376 35.5789 13.5355C36.7368 13.0334 46 23.2393 46 23.2393V39.6038V40.0003H2V25.8858Z" fill="#FF8900"/>
<path d="M2 29.4138C2 29.4138 8.94737 31.3987 10.6842 31.3987C12.4211 31.3987 17.2574 25.4441 18.7895 25.4441C20.3216 25.4441 24.5789 27.429 26.3158 27.429C28.0526 27.429 34.4211 20.5277 35.5789 20.1511C36.7368 19.7746 46 27.429 46 27.429V39.7024V39.9998H2V29.4138Z" fill="#005EB7"/>
</svg>
