<svg width="48" height="48" viewBox="0 0 48 48" fill="none" xmlns="http://www.w3.org/2000/svg">
<path d="M2 22.9372C2 22.9372 8.94737 26.1365 10.6842 26.1365C12.4211 26.1365 17.2574 16.5387 18.7895 16.5387C20.3216 16.5387 24.5789 19.738 26.3158 19.738C28.0526 19.738 33.469 8.3546 35.5789 8.00735C37.6889 7.66009 46 19.738 46 19.738V39.5207V40H2V22.9372Z" fill="#F25858"/>
<path d="M2 25.8853C2 25.8853 8.94737 28.5318 10.6842 28.5318C12.4211 28.5318 17.2574 20.5924 18.7895 20.5924C20.3216 20.5924 24.5789 23.2389 26.3158 23.2389C28.0526 23.2389 34.4211 14.0372 35.5789 13.5351C36.7368 13.033 46 23.2389 46 23.2389V39.6034V39.9999H2V25.8853Z" fill="#FF8900"/>
<path d="M2 29.4143C2 29.4143 8.94737 31.3991 10.6842 31.3991C12.4211 31.3991 17.2574 25.4445 18.7895 25.4445C20.3216 25.4445 24.5789 27.4294 26.3158 27.4294C28.0526 27.4294 34.4211 20.5281 35.5789 20.1516C36.7368 19.775 46 27.4294 46 27.4294V39.7028V40.0002H2V29.4143Z" fill="#005EB7"/>
</svg>
