<svg width="48" height="48" viewBox="0 0 48 48" fill="none" xmlns="http://www.w3.org/2000/svg">
<path fill-rule="evenodd" clip-rule="evenodd" d="M8.8605 13.2083C8.8605 12.4509 9.47451 11.8369 10.2319 11.8369H17.1966V37.2571H31.6639V26.2257H38.6286C39.386 26.2257 40 26.8397 40 27.5971C40 28.3545 39.386 28.9685 38.6286 28.9685H34.4067V39.9999H14.4538V14.5798H10.2319C9.47451 14.5798 8.8605 13.9658 8.8605 13.2083Z" fill="#0787FF"/>
<path fill-rule="evenodd" clip-rule="evenodd" d="M34.3261 8C35.0835 8 35.6975 8.61401 35.6975 9.37143V17.9372H25.3714V28.9686H9.37143C8.61401 28.9686 8 28.3546 8 27.5972C8 26.8398 8.61401 26.2258 9.37143 26.2258H22.6286V15.1944H32.9546V9.37143C32.9546 8.61401 33.5686 8 34.3261 8Z" fill="#F25858"/>
</svg>
