<svg width="48" height="48" viewBox="0 0 48 48" fill="none" xmlns="http://www.w3.org/2000/svg">
<path d="M36.8571 8H39.0852V40H36.8571V8Z" fill="#00A89E"/>
<path d="M38.9143 32.5333H42V34.8233H38.9143V32.5333Z" fill="#00A89E"/>
<path d="M33.7714 13.3334H36.8571V15.6234H33.7714V13.3334Z" fill="#00A89E"/>
<path d="M27.6 18.6666H29.8281V37.8666H27.6V18.6666Z" fill="#F25858"/>
<path d="M29.6571 32.5333H32.7429V34.8233H29.6571V32.5333Z" fill="#F25858"/>
<path d="M24.5143 22.9333H27.6V25.2233H24.5143V22.9333Z" fill="#F25858"/>
<path d="M18.3429 15.4667H20.571V31.4667H18.3429V15.4667Z" fill="#F25858"/>
<path d="M20.4 27.2H23.4857V29.49H20.4V27.2Z" fill="#F25858"/>
<path d="M15.2571 17.6H18.3429V19.89H15.2571V17.6Z" fill="#F25858"/>
<path d="M9.08572 8H11.3138V40H9.08572V8Z" fill="#00A89E"/>
<path d="M11.1429 32.5333H14.2286V34.8233H11.1429V32.5333Z" fill="#00A89E"/>
<path d="M6 12.2667H9.08572V14.5567H6V12.2667Z" fill="#00A89E"/>
</svg>
