<svg width="48" height="48" viewBox="0 0 48 48" fill="none" xmlns="http://www.w3.org/2000/svg">
<path fill-rule="evenodd" clip-rule="evenodd" d="M9.20622 7.1558C9.97856 6.41575 11.0261 6 12.1183 6H23.1004C23.4645 6 23.8137 6.13858 24.0711 6.38527L32.3078 14.2776C32.5652 14.5243 32.7098 14.8588 32.7098 15.2077V30.9923C32.7098 32.0389 32.2759 33.0426 31.5036 33.7826C30.7313 34.5227 29.6838 34.9384 28.5915 34.9384H12.1183C11.0261 34.9384 9.97855 34.5227 9.20622 33.7826C8.43389 33.0426 8 32.0389 8 30.9923V9.94615C8 8.89957 8.43389 7.89585 9.20622 7.1558ZM12.1183 8.63077C11.7542 8.63077 11.4051 8.76935 11.1476 9.01603C10.8902 9.26272 10.7455 9.59729 10.7455 9.94615V30.9923C10.7455 31.3412 10.8902 31.6757 11.1476 31.9224C11.4051 32.1691 11.7542 32.3077 12.1183 32.3077H28.5915C28.9556 32.3077 29.3048 32.1691 29.5622 31.9224C29.8197 31.6757 29.9643 31.3412 29.9643 30.9923V15.7525L22.5318 8.63077H12.1183Z" fill="#0787FF"/>
<path fill-rule="evenodd" clip-rule="evenodd" d="M23.1004 6C23.8586 6 24.4732 6.58892 24.4732 7.31538V13.8923H31.3371C32.0952 13.8923 32.7098 14.4812 32.7098 15.2077C32.7098 15.9342 32.0952 16.5231 31.3371 16.5231H23.1004C22.3423 16.5231 21.7277 15.9342 21.7277 15.2077V7.31538C21.7277 6.58892 22.3423 6 23.1004 6Z" fill="#0787FF"/>
<path fill-rule="evenodd" clip-rule="evenodd" d="M13.4911 21.7846C13.4911 21.0581 14.1057 20.4692 14.8638 20.4692H25.846C26.6041 20.4692 27.2188 21.0581 27.2188 21.7846C27.2188 22.5111 26.6041 23.1 25.846 23.1H14.8638C14.1057 23.1 13.4911 22.5111 13.4911 21.7846Z" fill="#0787FF"/>
<path fill-rule="evenodd" clip-rule="evenodd" d="M13.4911 27.0461C13.4911 26.3197 14.1057 25.7308 14.8638 25.7308H25.846C26.6041 25.7308 27.2188 26.3197 27.2188 27.0461C27.2188 27.7726 26.6041 28.3615 25.846 28.3615H14.8638C14.1057 28.3615 13.4911 27.7726 13.4911 27.0461Z" fill="#0787FF"/>
<path fill-rule="evenodd" clip-rule="evenodd" d="M13.4911 16.5231C13.4911 15.7966 14.1057 15.2077 14.8638 15.2077H17.6094C18.3675 15.2077 18.9821 15.7966 18.9821 16.5231C18.9821 17.2495 18.3675 17.8385 17.6094 17.8385H14.8638C14.1057 17.8385 13.4911 17.2495 13.4911 16.5231Z" fill="#0787FF"/>
<path d="M31.4731 20.1797H21.8428L21.0403 36.3282C20.7193 40.0193 22.5116 40.942 23.4479 40.942H34.2819C36.208 41.8648 37.8933 40.5576 38.4952 39.7886V26.716L31.4731 20.1797Z" fill="white"/>
<path fill-rule="evenodd" clip-rule="evenodd" d="M21.1071 19.6664C21.728 19.0715 22.57 18.7373 23.4479 18.7373H31.1722C31.4649 18.7373 31.7456 18.8487 31.9525 19.047L39.6768 26.4484C39.8837 26.6467 40 26.9156 40 27.196V38.8268C40 39.6681 39.6512 40.4749 39.0304 41.0698C38.4096 41.6646 37.5676 41.9988 36.6896 41.9988H23.4479C22.57 41.9988 21.728 41.6646 21.1071 41.0698C20.4863 40.4749 20.1375 39.6681 20.1375 38.8268V21.9093C20.1375 21.0681 20.4863 20.2612 21.1071 19.6664ZM23.4479 20.852C23.1553 20.852 22.8746 20.9634 22.6677 21.1617C22.4607 21.36 22.3445 21.6289 22.3445 21.9093V38.8268C22.3445 39.1072 22.4607 39.3762 22.6677 39.5745C22.8746 39.7728 23.1553 39.8841 23.4479 39.8841H36.6896C36.9822 39.8841 37.2629 39.7728 37.4698 39.5745C37.6768 39.3762 37.793 39.1072 37.793 38.8268V27.634L30.7152 20.852H23.4479Z" fill="#0787FF"/>
<path fill-rule="evenodd" clip-rule="evenodd" d="M31.1722 18.7373C31.7817 18.7373 32.2757 19.2107 32.2757 19.7946V26.1387H38.8965C39.5059 26.1387 40 26.6121 40 27.196C40 27.78 39.5059 28.2534 38.8965 28.2534H31.1722C30.5628 28.2534 30.0688 27.78 30.0688 27.196V19.7946C30.0688 19.2107 30.5628 18.7373 31.1722 18.7373Z" fill="#0787FF"/>
</svg>
