<svg width="48" height="48" viewBox="0 0 48 48" fill="none" xmlns="http://www.w3.org/2000/svg">
<path d="M18 16H20V39.3846H18V16Z" fill="#0787FF"/>
<path d="M29 16H31V39.3846H29V16Z" fill="#0787FF"/>
<path d="M8 33V31H40V33H8Z" fill="#0787FF"/>
<path d="M8 26V24H40V26H8Z" fill="#0787FF"/>
<rect x="9.23072" y="9.23077" width="29.5385" height="8.61539" fill="#0787FF"/>
<path fill-rule="evenodd" clip-rule="evenodd" d="M37.5385 8H10.4615C9.10207 8 8 9.10207 8 10.4615V37.5385C8 38.8979 9.10207 40 10.4615 40H37.5385C38.8979 40 40 38.8979 40 37.5385V10.4615C40 9.10207 38.8979 8 37.5385 8ZM9.23072 10.4615C9.23072 9.78179 9.78175 9.23076 10.4615 9.23076H37.5384C38.2181 9.23076 38.7692 9.78179 38.7692 10.4615V37.5385C38.7692 38.2182 38.2181 38.7692 37.5384 38.7692H10.4615C9.78175 38.7692 9.23072 38.2182 9.23072 37.5385V10.4615Z" fill="#0787FF"/>
</svg>
