<svg width="48" height="48" viewBox="0 0 48 48" fill="none" xmlns="http://www.w3.org/2000/svg">
<path fill-rule="evenodd" clip-rule="evenodd" d="M10.4615 8H37.5385C38.8979 8 40 9.10207 40 10.4615V37.5385C40 38.8979 38.8979 40 37.5385 40H10.4615C9.10207 40 8 38.8979 8 37.5385V10.4615C8 9.10207 9.10207 8 10.4615 8ZM9.23072 26V31H18V26H9.23072ZM9.23072 33V37.5385C9.23072 38.2182 9.78175 38.7692 10.4615 38.7692H18V33H9.23072ZM20 38.7692H37.5384C38.2181 38.7692 38.7692 38.2182 38.7692 37.5385V17.8462H20V38.7692ZM9.23096 10.4372V17.8462H18V24H9.23072V10.4615C9.23072 10.4615 9.2308 10.4453 9.23096 10.4372Z" fill="#0787FF"/>
<path d="M30.2499 29.5L27.9999 27.25M31.7576 21.625V20.5M34.7122 22.7955L35.5076 22M34.7122 28.75L35.5076 29.5455M28.7577 22.7955L27.9622 22M35.8826 25.75H37.0076M25.0984 34.6515L32.0264 27.7235C32.3234 27.4265 32.4719 27.278 32.5275 27.1068C32.5765 26.9561 32.5765 26.7939 32.5275 26.6432C32.4719 26.472 32.3234 26.3235 32.0264 26.0265L31.4734 25.4735C31.1764 25.1765 31.0279 25.028 30.8566 24.9724C30.706 24.9234 30.5438 24.9234 30.3931 24.9724C30.2219 25.028 30.0734 25.1765 29.7764 25.4735L22.8484 32.4015C22.5514 32.6985 22.4029 32.847 22.3473 33.0182C22.2983 33.1689 22.2983 33.3311 22.3473 33.4818C22.4029 33.653 22.5514 33.8015 22.8484 34.0985L23.4014 34.6515C23.6984 34.9485 23.8469 35.097 24.0181 35.1526C24.1688 35.2016 24.331 35.2016 24.4816 35.1526C24.6529 35.097 24.8014 34.9485 25.0984 34.6515Z" stroke="#FF8900" stroke-width="1.5" stroke-linecap="round" stroke-linejoin="round"/>
</svg>
