<svg width="343" height="132" viewBox="0 0 343 132" fill="none" xmlns="http://www.w3.org/2000/svg">
<path d="M82.4219 76.1015C82.8646 75.7629 83.4245 75.6588 84.1016 75.789C84.8047 75.8932 85.3255 76.1666 85.6641 76.6093C86.0026 77.052 86.237 77.5859 86.3672 78.2109C86.5234 78.8359 86.4453 79.3567 86.1328 79.7734C85.8464 80.19 85.8854 80.5286 86.25 80.789C86.6406 81.0234 87.9688 81.5182 90.2344 82.2734C92.526 83.0025 94.375 83.8749 95.7812 84.8905C97.2135 85.9062 98.3854 87.1432 99.2969 88.6015C100.234 90.0598 100.768 91.1015 100.898 91.7265C101.055 92.3515 101.133 93.315 101.133 94.6171C101.159 95.9192 100.833 97.0911 100.156 98.1327C99.5052 99.1484 98.6328 100.294 97.5391 101.57C96.4714 102.82 95.2865 104.135 93.9844 105.516C92.7083 106.896 90.9375 108.302 88.6719 109.734C86.4323 111.167 84.2578 112.312 82.1484 113.172C80.0391 114.005 77.9557 114.591 75.8984 114.93C73.8672 115.268 72.5911 115.372 72.0703 115.242C71.5495 115.112 71.237 114.721 71.1328 114.07C71.0547 113.393 71.1719 111.74 71.4844 109.109C71.7969 106.479 73.3464 100.906 76.1328 92.3905C78.9193 83.8749 80.3776 79.3307 80.5078 78.7577C80.6641 78.1848 80.9115 77.69 81.25 77.2734C81.5885 76.8307 81.9792 76.44 82.4219 76.1015ZM87.9688 85.9062C86.3281 85.3853 85.1172 84.9947 84.3359 84.7343C83.5547 84.4478 82.9297 85.0208 82.4609 86.453C82.0182 87.8593 81.6146 89.0833 81.25 90.1249C80.8854 91.1405 80.4557 92.3905 79.9609 93.8749C79.4922 95.3593 78.6719 98.1197 77.5 102.156C76.3281 106.193 75.651 108.615 75.4688 109.422C75.3125 110.203 75.2865 110.698 75.3906 110.906C75.5208 111.115 76.5625 110.945 78.5156 110.398C80.4948 109.851 82.2786 109.148 83.8672 108.289C85.4818 107.43 87.3958 106.075 89.6094 104.226C91.8229 102.378 93.5807 100.529 94.8828 98.6796C96.1849 96.8046 96.8229 95.3723 96.7969 94.3827C96.7708 93.3671 96.3802 92.2213 95.625 90.9452C94.8698 89.6692 93.8151 88.6405 92.4609 87.8593C91.1328 87.052 89.6354 86.401 87.9688 85.9062Z" fill="#838F9D"/>
<path d="M100.839 100.594C101.777 96.9739 102.675 95.203 103.534 95.2812C104.42 95.3593 105.084 95.7499 105.527 96.453C105.969 97.1562 105.917 98.0286 105.37 99.0702C104.849 100.086 104.797 100.568 105.214 100.516C105.657 100.437 106.23 100.177 106.933 99.7343C107.636 99.2655 108.3 98.901 108.925 98.6405C109.576 98.3541 110.097 98.1718 110.487 98.0937C110.878 98.0155 111.62 98.1458 112.714 98.4843C113.834 98.8228 114.889 99.3046 115.878 99.9296C116.868 100.529 118.17 100.581 119.784 100.086C121.425 99.565 121.256 99.7343 119.277 100.594C117.297 101.427 115.266 101.818 113.183 101.766C111.126 101.713 109.524 101.961 108.378 102.508C107.258 103.055 106.308 103.667 105.527 104.344C104.745 104.995 104.016 106.088 103.339 107.625C102.688 109.135 102.18 110.411 101.816 111.453C101.477 112.495 101.165 113.354 100.878 114.031C100.618 114.682 100.058 115.034 99.1984 115.086C98.3651 115.112 97.8182 114.799 97.5578 114.148C97.2714 113.497 97.2062 113.081 97.3625 112.898C97.4927 112.69 97.8703 111.492 98.4953 109.305C99.1464 107.117 99.9276 104.213 100.839 100.594Z" fill="#838F9D"/>
<path d="M129.842 95.3202C130.441 95.164 131.092 95.1379 131.795 95.2421C132.524 95.3463 133.097 95.5676 133.514 95.9062C133.957 96.2447 134.373 96.9088 134.764 97.8984C135.155 98.8879 134.972 99.552 134.217 99.8905C133.488 100.229 132.824 100.112 132.225 99.539C131.626 98.9661 131.001 98.8489 130.35 99.1874C129.699 99.526 129.048 99.8775 128.397 100.242C127.772 100.581 126.991 101.128 126.053 101.883C125.116 102.638 124.152 103.601 123.162 104.773C122.173 105.945 121.626 106.7 121.522 107.039C121.418 107.351 121.665 107.299 122.264 106.883C122.889 106.466 123.827 105.841 125.077 105.008C126.353 104.148 127.941 103.276 129.842 102.391C131.769 101.505 132.98 101.167 133.475 101.375C133.996 101.557 134.439 101.909 134.803 102.43C135.168 102.95 135.376 103.406 135.428 103.797C135.48 104.161 135.415 104.461 135.233 104.695C135.077 104.904 134.881 105.398 134.647 106.18C134.439 106.961 134.465 107.716 134.725 108.445C134.985 109.174 135.311 109.682 135.702 109.969C136.118 110.229 136.678 110.307 137.381 110.203C138.084 110.073 138.944 109.539 139.959 108.601C141.001 107.638 140.962 107.859 139.842 109.266C138.722 110.646 137.837 111.531 137.186 111.922C136.535 112.286 136.027 112.469 135.662 112.469C135.298 112.443 134.816 112.325 134.217 112.117C133.644 111.883 133.097 111.531 132.577 111.062C132.056 110.594 131.639 110.021 131.327 109.344C131.04 108.667 130.845 108.172 130.741 107.859C130.636 107.521 130.389 107.156 129.998 106.766C129.634 106.375 129.178 106.297 128.631 106.531C128.084 106.74 127.121 107.338 125.741 108.328C124.386 109.318 123.11 110.138 121.912 110.789C120.741 111.414 119.686 111.857 118.748 112.117C117.811 112.351 117.199 112.43 116.912 112.351C116.652 112.273 116.366 111.987 116.053 111.492C115.715 110.971 115.519 110.411 115.467 109.812C115.415 109.213 115.506 108.615 115.741 108.016C115.949 107.391 116.769 106.167 118.202 104.344C119.66 102.495 121.053 100.984 122.381 99.8124C123.735 98.6405 125.168 97.651 126.678 96.8437C128.189 96.0103 129.243 95.5025 129.842 95.3202Z" fill="#838F9D"/>
<path d="M157.009 95.8671C158.936 95.9973 159.692 96.4791 159.275 97.3124C158.884 98.1458 158.481 99.6041 158.064 101.687C157.647 103.771 157.257 105.542 156.892 107C156.528 108.432 156.007 109.956 155.33 111.57C154.653 113.159 154.119 114.396 153.728 115.281C153.364 116.141 152.895 117.117 152.322 118.211C151.775 119.305 150.851 120.854 149.548 122.859C148.272 124.865 146.788 126.596 145.095 128.055C143.429 129.487 142.061 130.346 140.994 130.633C139.952 130.919 138.78 130.828 137.478 130.359C136.15 129.891 135.434 128.875 135.33 127.312C135.226 125.75 137.061 123.198 140.838 119.656C144.614 116.115 144.835 115.984 141.502 119.266C138.194 122.547 136.515 124.799 136.463 126.023C136.41 127.247 136.697 127.95 137.322 128.133C137.921 128.315 138.533 128.289 139.158 128.055C139.757 127.82 140.577 127.273 141.619 126.414C142.686 125.529 143.572 124.708 144.275 123.953C145.004 123.198 145.877 122.039 146.892 120.476C147.908 118.914 148.819 117.247 149.627 115.476C150.46 113.706 151.02 112.482 151.306 111.805C151.619 111.101 152.166 109.656 152.947 107.469C153.728 105.281 153.611 104.721 152.595 105.789C151.58 106.857 150.239 108.029 148.572 109.305C146.931 110.555 145.577 111.349 144.509 111.687C143.442 112.026 142.621 112.117 142.048 111.961C141.502 111.805 141.007 111.492 140.564 111.023C140.147 110.529 140.069 109.578 140.33 108.172C140.616 106.74 141.306 105.047 142.4 103.094C143.494 101.115 144.77 99.6041 146.228 98.5624C147.686 97.4947 148.989 96.7395 150.134 96.2968C151.28 95.8541 152.179 95.6458 152.83 95.6718C153.481 95.6978 154.21 95.8932 155.017 96.2577C155.851 96.5963 156.515 96.4661 157.009 95.8671ZM152.83 100.008C152.387 99.565 151.723 99.6171 150.838 100.164C149.952 100.685 148.963 101.492 147.869 102.586C146.775 103.654 145.864 104.799 145.134 106.023C144.405 107.247 144.757 107.43 146.189 106.57C147.621 105.711 148.91 104.773 150.056 103.758C151.202 102.742 152.048 101.909 152.595 101.258C153.142 100.607 153.22 100.19 152.83 100.008Z" fill="#838F9D"/>
<path d="M190.289 95.3202C190.888 95.164 191.539 95.1379 192.242 95.2421C192.971 95.3463 193.544 95.5676 193.961 95.9062C194.404 96.2447 194.82 96.9088 195.211 97.8984C195.602 98.8879 195.419 99.552 194.664 99.8905C193.935 100.229 193.271 100.112 192.672 99.539C192.073 98.9661 191.448 98.8489 190.797 99.1874C190.146 99.526 189.495 99.8775 188.844 100.242C188.219 100.581 187.438 101.128 186.5 101.883C185.562 102.638 184.599 103.601 183.609 104.773C182.62 105.945 182.073 106.7 181.969 107.039C181.865 107.351 182.112 107.299 182.711 106.883C183.336 106.466 184.273 105.841 185.523 105.008C186.799 104.148 188.388 103.276 190.289 102.391C192.216 101.505 193.427 101.167 193.922 101.375C194.443 101.557 194.885 101.909 195.25 102.43C195.615 102.95 195.823 103.406 195.875 103.797C195.927 104.161 195.862 104.461 195.68 104.695C195.523 104.904 195.328 105.398 195.094 106.18C194.885 106.961 194.911 107.716 195.172 108.445C195.432 109.174 195.758 109.682 196.148 109.969C196.565 110.229 197.125 110.307 197.828 110.203C198.531 110.073 199.391 109.539 200.406 108.601C201.448 107.638 201.409 107.859 200.289 109.266C199.169 110.646 198.284 111.531 197.633 111.922C196.982 112.286 196.474 112.469 196.109 112.469C195.745 112.443 195.263 112.325 194.664 112.117C194.091 111.883 193.544 111.531 193.023 111.062C192.503 110.594 192.086 110.021 191.773 109.344C191.487 108.667 191.292 108.172 191.188 107.859C191.083 107.521 190.836 107.156 190.445 106.766C190.081 106.375 189.625 106.297 189.078 106.531C188.531 106.74 187.568 107.338 186.188 108.328C184.833 109.318 183.557 110.138 182.359 110.789C181.188 111.414 180.133 111.857 179.195 112.117C178.258 112.351 177.646 112.43 177.359 112.351C177.099 112.273 176.812 111.987 176.5 111.492C176.161 110.971 175.966 110.411 175.914 109.812C175.862 109.213 175.953 108.615 176.188 108.016C176.396 107.391 177.216 106.167 178.648 104.344C180.107 102.495 181.5 100.984 182.828 99.8124C184.182 98.6405 185.615 97.651 187.125 96.8437C188.635 96.0103 189.69 95.5025 190.289 95.3202Z" fill="#838F9D"/>
<path d="M206.441 95.9062C206.988 95.6458 207.678 95.6978 208.511 96.0624C209.37 96.427 209.553 97.1041 209.058 98.0937C208.589 99.0833 207.808 100.724 206.714 103.016C205.62 105.281 205.503 105.906 206.363 104.891C207.248 103.849 208.303 102.794 209.527 101.726C210.777 100.659 211.675 99.9687 212.222 99.6562C212.769 99.3437 213.355 99.1093 213.98 98.953C214.631 98.7968 215.36 98.8359 216.167 99.0702C216.974 99.3046 217.665 99.9687 218.238 101.062C218.81 102.13 219.11 103.914 219.136 106.414C219.188 108.888 219.8 110.099 220.972 110.047C222.17 109.995 223.329 109.565 224.448 108.758C225.568 107.924 226.402 107.091 226.948 106.258C227.495 105.398 227.73 105.164 227.652 105.555C227.573 105.945 227.274 106.518 226.753 107.273C226.232 108.029 225.126 109.2 223.433 110.789C221.74 112.378 220.269 113.185 219.019 113.211C217.795 113.237 216.896 112.742 216.323 111.726C215.777 110.711 215.412 109.096 215.23 106.883C215.073 104.643 214.787 103.51 214.37 103.484C213.954 103.432 213.042 103.849 211.636 104.734C210.23 105.594 208.941 106.726 207.769 108.133C206.597 109.539 205.633 110.737 204.878 111.726C204.149 112.69 203.485 113.276 202.886 113.484C202.287 113.693 201.792 113.536 201.402 113.016C201.037 112.495 200.907 111.857 201.011 111.101C201.141 110.346 201.376 109.187 201.714 107.625C202.053 106.062 202.534 104.422 203.159 102.703C203.784 100.958 203.641 100.385 202.73 100.984C201.818 101.583 200.711 102.495 199.409 103.719C198.081 104.917 198.537 104.344 200.777 102C203.042 99.6301 204.292 98.2499 204.527 97.8593C204.787 97.4687 205.034 97.1171 205.269 96.8046C205.503 96.4661 205.894 96.1666 206.441 95.9062Z" fill="#838F9D"/>
<path d="M236.733 73.1718C237.045 72.7291 237.475 72.5338 238.022 72.5859C238.569 72.6119 239.077 72.8463 239.545 73.289C240.014 73.7057 240.509 74.3176 241.03 75.1249C241.577 75.9322 242.045 77.5598 242.436 80.0077C242.853 82.4296 242.918 84.7603 242.631 86.9999C242.371 89.2135 242.149 90.6197 241.967 91.2187C241.811 91.8176 242.071 92.4557 242.748 93.1327C243.426 93.8098 243.738 94.4348 243.686 95.0077C243.66 95.5807 243.399 96.0494 242.905 96.414C242.41 96.7786 241.928 96.8958 241.459 96.7655C240.991 96.6353 240.444 97.3515 239.819 98.914C239.22 100.476 238.478 102.013 237.592 103.523C236.707 105.008 235.899 106.258 235.17 107.273C234.441 108.289 233.439 109.357 232.163 110.476C230.913 111.57 229.936 112.195 229.233 112.351C228.53 112.508 227.918 112.508 227.397 112.351C226.876 112.169 226.394 111.726 225.952 111.023C225.509 110.32 225.261 109.005 225.209 107.078C225.183 105.151 225.756 103.25 226.928 101.375C228.1 99.4999 230.209 97.8593 233.256 96.453C236.303 95.0208 237.332 94.5129 236.342 94.9296C235.379 95.3202 231.72 95.8411 225.366 96.4921C219.011 97.1171 219.298 96.9609 226.225 96.0234C233.178 95.0859 236.993 94.2655 237.67 93.5624C238.373 92.8593 238.868 91.7135 239.155 90.1249C239.467 88.5103 239.636 87.0129 239.663 85.6327C239.689 84.2525 239.597 82.8723 239.389 81.4921C239.181 80.0859 238.556 78.6796 237.514 77.2734C236.498 75.8411 236.043 74.9036 236.147 74.4609C236.251 74.0182 236.446 73.5885 236.733 73.1718ZM234.116 99.9687C233.569 100.203 232.761 100.841 231.694 101.883C230.626 102.924 229.897 103.901 229.506 104.812C229.116 105.698 229.011 106.414 229.194 106.961C229.376 107.482 230.157 107.026 231.538 105.594C232.944 104.161 233.855 102.99 234.272 102.078C234.715 101.141 234.936 100.503 234.936 100.164C234.962 99.7994 234.689 99.7343 234.116 99.9687Z" fill="#838F9D"/>
<path d="M271.887 76.1015C272.33 75.7629 272.89 75.6588 273.567 75.789C274.27 75.8932 274.791 76.1666 275.13 76.6093C275.468 77.052 275.703 77.5859 275.833 78.2109C275.989 78.8359 275.911 79.3567 275.598 79.7734C275.312 80.19 275.351 80.5286 275.716 80.789C276.106 81.0234 277.434 81.5182 279.7 82.2734C281.992 83.0025 283.841 83.8749 285.247 84.8905C286.679 85.9062 287.851 87.1432 288.762 88.6015C289.7 90.0598 290.234 91.1015 290.364 91.7265C290.52 92.3515 290.598 93.315 290.598 94.6171C290.624 95.9192 290.299 97.0911 289.622 98.1327C288.971 99.1484 288.098 100.294 287.005 101.57C285.937 102.82 284.752 104.135 283.45 105.516C282.174 106.896 280.403 108.302 278.137 109.734C275.898 111.167 273.723 112.312 271.614 113.172C269.505 114.005 267.421 114.591 265.364 114.93C263.333 115.268 262.057 115.372 261.536 115.242C261.015 115.112 260.703 114.721 260.598 114.07C260.52 113.393 260.637 111.74 260.95 109.109C261.262 106.479 262.812 100.906 265.598 92.3905C268.385 83.8749 269.843 79.3307 269.973 78.7577C270.13 78.1848 270.377 77.69 270.716 77.2734C271.054 76.8307 271.445 76.44 271.887 76.1015ZM277.434 85.9062C275.794 85.3853 274.583 84.9947 273.802 84.7343C273.02 84.4478 272.395 85.0208 271.927 86.453C271.484 87.8593 271.08 89.0833 270.716 90.1249C270.351 91.1405 269.921 92.3905 269.427 93.8749C268.958 95.3593 268.137 98.1197 266.966 102.156C265.794 106.193 265.117 108.615 264.934 109.422C264.778 110.203 264.752 110.698 264.856 110.906C264.986 111.115 266.028 110.945 267.981 110.398C269.96 109.851 271.744 109.148 273.333 108.289C274.947 107.43 276.861 106.075 279.075 104.226C281.289 102.378 283.046 100.529 284.348 98.6796C285.651 96.8046 286.289 95.3723 286.262 94.3827C286.236 93.3671 285.846 92.2213 285.091 90.9452C284.335 89.6692 283.281 88.6405 281.927 87.8593C280.598 87.052 279.101 86.401 277.434 85.9062Z" fill="#838F9D"/>
<path d="M290.305 100.594C291.242 96.9739 292.141 95.203 293 95.2812C293.885 95.3593 294.549 95.7499 294.992 96.453C295.435 97.1562 295.383 98.0286 294.836 99.0702C294.315 100.086 294.263 100.568 294.68 100.516C295.122 100.437 295.695 100.177 296.398 99.7343C297.102 99.2655 297.766 98.901 298.391 98.6405C299.042 98.3541 299.562 98.1718 299.953 98.0937C300.344 98.0155 301.086 98.1458 302.18 98.4843C303.299 98.8228 304.354 99.3046 305.344 99.9296C306.333 100.529 307.635 100.581 309.25 100.086C310.891 99.565 310.721 99.7343 308.742 100.594C306.763 101.427 304.732 101.818 302.648 101.766C300.591 101.713 298.99 101.961 297.844 102.508C296.724 103.055 295.773 103.667 294.992 104.344C294.211 104.995 293.482 106.088 292.805 107.625C292.154 109.135 291.646 110.411 291.281 111.453C290.943 112.495 290.63 113.354 290.344 114.031C290.083 114.682 289.523 115.034 288.664 115.086C287.831 115.112 287.284 114.799 287.023 114.148C286.737 113.497 286.672 113.081 286.828 112.898C286.958 112.69 287.336 111.492 287.961 109.305C288.612 107.117 289.393 104.213 290.305 100.594Z" fill="#838F9D"/>
<path d="M311.378 97.1171C311.873 96.6484 312.472 96.3489 313.175 96.2187C313.904 96.0885 314.503 96.1275 314.972 96.3359C315.441 96.5442 315.831 96.9218 316.144 97.4687C316.482 97.9895 317.303 98.2369 318.605 98.2109C319.907 98.1848 321.521 98.1978 323.448 98.2499C325.402 98.276 324.998 98.328 322.238 98.4062C319.477 98.4843 317.902 98.6015 317.511 98.7577C317.146 98.8879 316.99 99.3437 317.042 100.125C317.12 100.906 317.172 101.74 317.198 102.625C317.251 103.484 317.264 104.448 317.238 105.516C317.211 106.583 317.133 107.378 317.003 107.898C316.873 108.419 316.678 108.966 316.417 109.539C316.157 110.112 315.766 110.724 315.245 111.375C314.751 112 314.126 112.586 313.37 113.133C312.641 113.68 311.964 114.096 311.339 114.383C310.714 114.643 310.037 114.656 309.308 114.422C308.579 114.161 307.98 113.771 307.511 113.25C307.068 112.703 306.704 112.143 306.417 111.57C306.157 110.997 306.04 109.995 306.066 108.562C306.118 107.13 306.274 105.984 306.534 105.125C306.821 104.24 307.251 103.328 307.823 102.391C308.396 101.427 308.566 100.984 308.331 101.062C308.097 101.115 308.032 101.075 308.136 100.945C308.266 100.815 308.722 100.255 309.503 99.2655C310.284 98.276 310.909 97.5598 311.378 97.1171ZM313.331 103.25C312.758 102.547 312.042 102.742 311.183 103.836C310.323 104.93 309.803 106.088 309.62 107.312C309.464 108.536 309.529 109.396 309.816 109.891C310.128 110.385 310.441 110.672 310.753 110.75C311.092 110.828 311.56 110.62 312.159 110.125C312.758 109.604 313.24 108.497 313.605 106.805C313.995 105.112 313.904 103.927 313.331 103.25Z" fill="#838F9D"/>
<path d="M322.881 96.9609C325.199 95.3984 326.618 94.526 327.139 94.3437C327.66 94.1614 328.09 94.2265 328.428 94.539C328.793 94.8515 329.001 95.2421 329.053 95.7109C329.131 96.1536 329.001 97.1432 328.663 98.6796C328.324 100.216 328.324 100.841 328.663 100.555C329.001 100.268 329.483 99.9817 330.108 99.6952C330.733 99.4088 331.514 99.0963 332.452 98.7577C333.415 98.4192 334.314 98.276 335.147 98.328C335.98 98.3801 336.605 98.5885 337.022 98.953C337.465 99.2916 337.738 99.578 337.842 99.8124C337.972 100.021 338.129 100.333 338.311 100.75C338.519 101.167 338.623 101.427 338.623 101.531C338.623 101.609 338.649 101.805 338.702 102.117C338.754 102.404 338.728 102.898 338.623 103.601C338.519 104.279 338.233 105.112 337.764 106.101C337.321 107.065 336.644 107.976 335.733 108.836C334.821 109.669 334.04 110.268 333.389 110.633C332.738 110.997 332.035 111.323 331.28 111.609C330.551 111.896 329.782 112.104 328.975 112.234C328.194 112.338 327.569 112.221 327.1 111.883C326.657 111.544 326.423 111.167 326.397 110.75C326.397 110.307 326.54 109.812 326.827 109.266C327.113 108.719 327.399 108.237 327.686 107.82C327.998 107.378 328.506 106.87 329.209 106.297C329.913 105.698 330.642 105.229 331.397 104.891C332.178 104.552 332.79 104.344 333.233 104.266C333.676 104.161 333.376 104.461 332.334 105.164C331.319 105.867 330.42 106.557 329.639 107.234C328.884 107.911 328.636 108.406 328.897 108.719C329.183 109.031 329.678 109.057 330.381 108.797C331.11 108.51 332.152 107.69 333.506 106.336C334.886 104.982 335.329 103.823 334.834 102.859C334.366 101.87 333.441 101.635 332.061 102.156C330.707 102.651 329.496 103.367 328.428 104.305C327.36 105.242 326.241 107.143 325.069 110.008C323.897 112.846 323.064 114.956 322.569 116.336C322.074 117.69 321.41 119.565 320.577 121.961C319.769 124.357 318.819 126.687 317.725 128.953C316.631 131.193 315.746 132.182 315.069 131.922C314.366 131.635 313.936 131.258 313.78 130.789C313.623 130.32 313.584 129.825 313.663 129.305C313.715 128.784 313.923 128.133 314.288 127.351C314.652 126.544 315.147 125.216 315.772 123.367C316.397 121.518 317.725 117.963 319.756 112.703C321.761 107.417 322.946 104.292 323.311 103.328C323.702 102.338 324.196 100.893 324.795 98.9921C325.394 97.0911 325.446 96.2317 324.952 96.414C324.483 96.5702 323.441 97.0911 321.827 97.9765C320.212 98.8359 320.564 98.4973 322.881 96.9609Z" fill="#838F9D"/>
<path fill-rule="evenodd" clip-rule="evenodd" d="M8.5 0.726363C4.867 1.21036 4 1.71136 4 3.32636C4 5.04836 4.625 5.30936 8.5 5.20036C27.216 4.67736 44.166 4.92336 50.5 5.80836C87.501 10.9814 115.199 29.1934 126.964 56.0864L129.484 61.8464L125.742 60.2224C123.684 59.3294 118.25 57.2214 113.667 55.5384C106.685 52.9744 105.187 52.7094 104.433 53.9024C103.031 56.1204 103.842 57.1904 108.08 58.7104C110.236 59.4834 116.738 62.0754 122.528 64.4714C136.782 70.3674 136.821 70.3624 136 62.5764C135.637 59.1394 135.039 51.3764 134.67 45.3264C134.054 35.2164 133.838 34.3264 132 34.3264C130.169 34.3264 130.004 34.9774 130.048 42.0414C130.075 46.2844 130.007 49.6594 129.898 49.5414C129.788 49.4234 127.383 45.8564 124.553 41.6144C109.949 19.7314 82.86 5.02336 49.526 0.879363C40.689 -0.218637 16.276 -0.309637 8.5 0.726363Z" fill="#838F9D"/>
</svg>
