<svg width="32" height="32" viewBox="0 0 32 32" fill="none" xmlns="http://www.w3.org/2000/svg">
<g clip-path="url(#clip0_7559_557)">
<path d="M2 8.07692V23.4615C2 25.1609 3.39289 26.5385 5.11111 26.5385H26.8889C28.6071 26.5385 30 25.1609 30 23.4615V10.8863C30 9.18695 28.4516 7.80936 26.7333 7.80936H17.5556L14.4444 5H5.11111C3.39289 5 2 6.37759 2 8.07692Z" fill="#FACC15"/>
<g filter="url(#filter0_dd_7559_557)">
<path d="M2 14.6309V23.4603C2 25.1596 3.39289 26.5372 5.11111 26.5372H26.8889C28.6071 26.5372 30 25.1596 30 23.4603V10.8859C30 9.18655 28.6071 7.80896 26.8889 7.80896H17.5556L14.4444 11.554H5.11111C3.39289 11.554 2 12.9315 2 14.6309Z" fill="#FDE047"/>
</g>
</g>
<defs>
<filter id="filter0_dd_7559_557" x="-1" y="5.80896" width="34" height="24.7283" filterUnits="userSpaceOnUse" color-interpolation-filters="sRGB">
<feFlood flood-opacity="0" result="BackgroundImageFix"/>
<feColorMatrix in="SourceAlpha" type="matrix" values="0 0 0 0 0 0 0 0 0 0 0 0 0 0 0 0 0 0 127 0" result="hardAlpha"/>
<feOffset dy="1"/>
<feGaussianBlur stdDeviation="1.5"/>
<feColorMatrix type="matrix" values="0 0 0 0 0 0 0 0 0 0 0 0 0 0 0 0 0 0 0.1 0"/>
<feBlend mode="normal" in2="BackgroundImageFix" result="effect1_dropShadow_7559_557"/>
<feColorMatrix in="SourceAlpha" type="matrix" values="0 0 0 0 0 0 0 0 0 0 0 0 0 0 0 0 0 0 127 0" result="hardAlpha"/>
<feOffset dy="1"/>
<feGaussianBlur stdDeviation="1"/>
<feColorMatrix type="matrix" values="0 0 0 0 0 0 0 0 0 0 0 0 0 0 0 0 0 0 0.06 0"/>
<feBlend mode="normal" in2="effect1_dropShadow_7559_557" result="effect2_dropShadow_7559_557"/>
<feBlend mode="normal" in="SourceGraphic" in2="effect2_dropShadow_7559_557" result="shape"/>
</filter>
<clipPath id="clip0_7559_557">
<rect width="32" height="32" fill="white"/>
</clipPath>
</defs>
</svg>
