<svg width="40" height="40" viewBox="0 0 40 40" fill="none" xmlns="http://www.w3.org/2000/svg">
<path d="M34.4 5.6C34.4 3.61177 32.7882 2 30.8 2H16.9L6.39999 12.8V34.4C6.39999 36.3882 8.01177 38 9.99999 38H30.8C32.7882 38 34.4 36.3882 34.4 34.4V5.6Z" fill="#E67E22"/>
<path opacity="0.3" d="M16.9 2L6.39996 12.8H13.3C15.2882 12.8 16.9 11.1882 16.9 9.2V2Z" fill="white"/>
<path d="M9.31975 31V25.1818H10.5499V27.5824H13.047V25.1818H14.2743V31H13.047V28.5966H10.5499V31H9.31975ZM15.0669 26.196V25.1818H19.8453V26.196H18.0641V31H16.8482V26.196H15.0669ZM20.6323 25.1818H22.1493L23.7516 29.0909H23.8198L25.422 25.1818H26.9391V31H25.7459V27.2131H25.6976L24.1919 30.9716H23.3794L21.8737 27.1989H21.8254V31H20.6323V25.1818ZM27.9526 31V25.1818H29.1827V29.9858H31.677V31H27.9526Z" fill="white"/>
</svg>
