<svg width="40" height="40" viewBox="0 0 40 40" fill="none" xmlns="http://www.w3.org/2000/svg">
<path d="M34 6C34 4.067 32.433 2.5 30.5 2.5H16.5L6 13.3V35C6 36.933 7.567 38.5 9.5 38.5H30.5C32.433 38.5 34 36.933 34 35V6Z" fill="#9E7E67"/>
<path opacity="0.3" d="M16.5 2.5L6 13.3H13C14.933 13.3 16.5 11.733 16.5 9.8V2.5Z" fill="white"/>
<path d="M11.8626 25.1818H13.0785V29.2386C13.0785 29.6136 12.9942 29.9394 12.8256 30.2159C12.659 30.4924 12.427 30.7055 12.1296 30.8551C11.8323 31.0047 11.4866 31.0795 11.0927 31.0795C10.7423 31.0795 10.4241 31.018 10.1381 30.8949C9.85405 30.7699 9.62867 30.5805 9.462 30.3267C9.29534 30.071 9.21295 29.75 9.21484 29.3636H10.4393C10.4431 29.517 10.4743 29.6487 10.533 29.7585C10.5936 29.8665 10.676 29.9498 10.7802 30.0085C10.8862 30.0653 11.0112 30.0938 11.1552 30.0938C11.3067 30.0938 11.4345 30.0616 11.5387 29.9972C11.6448 29.9309 11.7253 29.8343 11.7802 29.7074C11.8351 29.5805 11.8626 29.4242 11.8626 29.2386V25.1818ZM17.2518 26.8551C17.229 26.6259 17.1315 26.4479 16.9592 26.321C16.7868 26.1941 16.5529 26.1307 16.2575 26.1307C16.0567 26.1307 15.8872 26.1591 15.7489 26.2159C15.6107 26.2708 15.5046 26.3475 15.4308 26.446C15.3588 26.5445 15.3228 26.6562 15.3228 26.7812C15.319 26.8854 15.3408 26.9763 15.3881 27.054C15.4374 27.1316 15.5046 27.1989 15.5898 27.2557C15.6751 27.3106 15.7736 27.3589 15.8853 27.4006C15.997 27.4403 16.1164 27.4744 16.2433 27.5028L16.766 27.6278C17.0198 27.6847 17.2527 27.7604 17.4648 27.8551C17.677 27.9498 17.8607 28.0663 18.016 28.2045C18.1713 28.3428 18.2915 28.5057 18.3768 28.6932C18.4639 28.8807 18.5084 29.0956 18.5103 29.3381C18.5084 29.6941 18.4175 30.0028 18.2376 30.2642C18.0595 30.5237 17.802 30.7254 17.4648 30.8693C17.1296 31.0114 16.7253 31.0824 16.2518 31.0824C15.7821 31.0824 15.373 31.0104 15.0245 30.8665C14.6779 30.7225 14.4071 30.5095 14.212 30.2273C14.0188 29.9432 13.9175 29.5919 13.908 29.1733H15.0984C15.1116 29.3684 15.1675 29.5312 15.266 29.6619C15.3664 29.7907 15.4999 29.8883 15.6665 29.9545C15.8351 30.0189 16.0254 30.0511 16.2376 30.0511C16.4459 30.0511 16.6268 30.0208 16.7802 29.9602C16.9355 29.8996 17.0558 29.8153 17.141 29.7074C17.2262 29.5994 17.2688 29.4754 17.2688 29.3352C17.2688 29.2045 17.23 29.0947 17.1523 29.0057C17.0766 28.9167 16.9648 28.8409 16.8171 28.7784C16.6713 28.7159 16.4923 28.6591 16.2802 28.608L15.6467 28.4489C15.1561 28.3295 14.7688 28.143 14.4847 27.8892C14.2006 27.6354 14.0595 27.2936 14.0614 26.8636C14.0595 26.5114 14.1533 26.2036 14.3427 25.9403C14.534 25.6771 14.7963 25.4716 15.1296 25.3239C15.4629 25.1761 15.8417 25.1023 16.266 25.1023C16.6978 25.1023 17.0747 25.1761 17.3967 25.3239C17.7205 25.4716 17.9724 25.6771 18.1523 25.9403C18.3323 26.2036 18.4251 26.5085 18.4308 26.8551H17.2518ZM24.6843 28.0909C24.6843 28.7254 24.564 29.2652 24.3235 29.7102C24.0849 30.1553 23.7591 30.4953 23.3462 30.7301C22.9353 30.9631 22.4731 31.0795 21.9599 31.0795C21.4428 31.0795 20.9788 30.9621 20.5678 30.7273C20.1568 30.4924 19.832 30.1525 19.5934 29.7074C19.3548 29.2623 19.2354 28.7235 19.2354 28.0909C19.2354 27.4564 19.3548 26.9167 19.5934 26.4716C19.832 26.0265 20.1568 25.6875 20.5678 25.4545C20.9788 25.2197 21.4428 25.1023 21.9599 25.1023C22.4731 25.1023 22.9353 25.2197 23.3462 25.4545C23.7591 25.6875 24.0849 26.0265 24.3235 26.4716C24.564 26.9167 24.6843 27.4564 24.6843 28.0909ZM23.4371 28.0909C23.4371 27.6799 23.3756 27.3333 23.2525 27.0511C23.1313 26.7689 22.9599 26.5549 22.7383 26.4091C22.5167 26.2633 22.2572 26.1903 21.9599 26.1903C21.6625 26.1903 21.4031 26.2633 21.1815 26.4091C20.9599 26.5549 20.7875 26.7689 20.6644 27.0511C20.5432 27.3333 20.4826 27.6799 20.4826 28.0909C20.4826 28.5019 20.5432 28.8485 20.6644 29.1307C20.7875 29.4129 20.9599 29.6269 21.1815 29.7727C21.4031 29.9186 21.6625 29.9915 21.9599 29.9915C22.2572 29.9915 22.5167 29.9186 22.7383 29.7727C22.9599 29.6269 23.1313 29.4129 23.2525 29.1307C23.3756 28.8485 23.4371 28.5019 23.4371 28.0909ZM30.462 25.1818V31H29.3995L26.8683 27.3381H26.8256V31H25.5955V25.1818H26.6751L29.1864 28.8409H29.2376V25.1818H30.462Z" fill="white"/>
</svg>
