<svg width="40" height="40" viewBox="0 0 40 40" fill="none" xmlns="http://www.w3.org/2000/svg">
<path d="M34 5.6C34 3.61177 32.3882 2 30.4 2H16.5L6 12.8V34.4C6 36.3882 7.61177 38 9.6 38H30.4C32.3882 38 34 36.3882 34 34.4V5.6Z" fill="#D92D20"/>
<path opacity="0.3" d="M16.5 2L6 12.8H12.9C14.8882 12.8 16.5 11.1882 16.5 9.2V2Z" fill="white"/>
<path d="M12.6658 31V25.1818H14.9613C15.4026 25.1818 15.7785 25.2661 16.0891 25.4347C16.3997 25.6013 16.6365 25.8333 16.7994 26.1307C16.9641 26.4261 17.0465 26.767 17.0465 27.1534C17.0465 27.5398 16.9632 27.8807 16.7965 28.1761C16.6299 28.4716 16.3884 28.7017 16.0721 28.8665C15.7577 29.0312 15.377 29.1136 14.93 29.1136H13.467V28.1278H14.7312C14.9679 28.1278 15.163 28.0871 15.3164 28.0057C15.4717 27.9223 15.5872 27.8078 15.663 27.6619C15.7406 27.5142 15.7795 27.3447 15.7795 27.1534C15.7795 26.9602 15.7406 26.7917 15.663 26.6477C15.5872 26.5019 15.4717 26.3892 15.3164 26.3097C15.1611 26.2282 14.9641 26.1875 14.7255 26.1875H13.896V31H12.6658ZM19.908 31H17.8455V25.1818H19.9251C20.5103 25.1818 21.0141 25.2983 21.4364 25.5312C21.8588 25.7623 22.1836 26.0947 22.4109 26.5284C22.64 26.9621 22.7546 27.4811 22.7546 28.0852C22.7546 28.6913 22.64 29.2121 22.4109 29.6477C22.1836 30.0833 21.8569 30.4176 21.4308 30.6506C21.0065 30.8835 20.4989 31 19.908 31ZM19.0756 29.946H19.8569C20.2205 29.946 20.5264 29.8816 20.7745 29.7528C21.0245 29.6222 21.212 29.4205 21.337 29.1477C21.4639 28.8731 21.5273 28.5189 21.5273 28.0852C21.5273 27.6553 21.4639 27.304 21.337 27.0312C21.212 26.7585 21.0254 26.5578 20.7773 26.429C20.5292 26.3002 20.2234 26.2358 19.8597 26.2358H19.0756V29.946ZM23.6658 31V25.1818H27.5181V26.196H24.896V27.5824H27.2624V28.5966H24.896V31H23.6658Z" fill="white"/>
</svg>
