<svg width="40" height="40" viewBox="0 0 40 40" fill="none" xmlns="http://www.w3.org/2000/svg">
<path d="M34 5.6C34 3.61177 32.3882 2 30.4 2H16.5L6 12.8V34.4C6 36.3882 7.61177 38 9.6 38H30.4C32.3882 38 34 36.3882 34 34.4V5.6Z" fill="#444CE7"/>
<path opacity="0.3" d="M16.5 2L5.99997 12.8H12.9C14.8882 12.8 16.5 11.1882 16.5 9.2V2Z" fill="white"/>
<path d="M12.7166 31V25.1818H15.0121C15.4534 25.1818 15.8293 25.2661 16.1399 25.4347C16.4505 25.6013 16.6873 25.8333 16.8501 26.1307C17.0149 26.4261 17.0973 26.767 17.0973 27.1534C17.0973 27.5398 17.014 27.8807 16.8473 28.1761C16.6806 28.4716 16.4392 28.7017 16.1229 28.8665C15.8085 29.0312 15.4278 29.1136 14.9808 29.1136H13.5178V28.1278H14.782C15.0187 28.1278 15.2138 28.0871 15.3672 28.0057C15.5225 27.9223 15.638 27.8078 15.7138 27.6619C15.7914 27.5142 15.8303 27.3447 15.8303 27.1534C15.8303 26.9602 15.7914 26.7917 15.7138 26.6477C15.638 26.5019 15.5225 26.3892 15.3672 26.3097C15.2119 26.2282 15.0149 26.1875 14.7763 26.1875H13.9467V31H12.7166ZM17.8963 31V25.1818H21.7486V26.196H19.1264V27.5824H21.4929V28.5966H19.1264V31H17.8963ZM23.7294 25.1818L24.9027 27.1648H24.9482L26.1271 25.1818H27.5163L25.7408 28.0909L27.5561 31H26.1413L24.9482 29.0142H24.9027L23.7095 31H22.3004L24.1214 28.0909L22.3345 25.1818H23.7294Z" fill="white"/>
</svg>
