<svg width="40" height="40" viewBox="0 0 40 40" fill="none" xmlns="http://www.w3.org/2000/svg">
<path d="M11 5L12.8284 3.17157C13.5786 2.42143 14.596 2 15.6569 2H29C31.2091 2 33 3.79086 33 6V34C33 36.2091 31.2091 38 29 38H10C7.79086 38 6 36.2091 6 34V12.0464C6 11.0514 6.37089 10.092 7.04024 9.35574L11 5Z" fill="white"/>
<path d="M13 10C13.5523 10 14 9.55228 14 9V2L6 10H13Z" fill="#D1D5DB"/>
<path d="M14 2H19.5H30C31.6569 2 33 3.34315 33 5V35C33 36.6569 31.6569 38 30 38H9C7.34315 38 6 36.6569 6 35V20V10M14 2V9C14 9.55228 13.5523 10 13 10H6M14 2L6 10" stroke="#D1D5DB" stroke-linejoin="bevel"/>
<path d="M17.7185 30.2188C17.7185 29.4407 17.5033 28.6778 17.0968 28.0144C16.6902 27.3509 16.1081 26.8129 15.4149 26.4597C14.7216 26.1065 13.9442 25.9519 13.1685 26.013C12.3929 26.0742 11.6492 26.3486 11.0198 26.806L13.4999 30.2187L17.7185 30.2188Z" fill="#7BCC29"/>
<path d="M17.7188 30.6406C17.7188 31.386 17.5277 32.1188 17.1637 32.7693C16.7998 33.4197 16.2752 33.966 15.64 34.3559C15.0048 34.7458 14.2802 34.9663 13.5355 34.9964C12.7908 35.0265 12.0508 34.8652 11.3861 34.5279C10.7215 34.1905 10.1545 33.6884 9.73928 33.0694C9.32403 32.4505 9.07439 31.7354 9.01423 30.9925C8.95406 30.2496 9.08537 29.5037 9.39561 28.826C9.70586 28.1483 10.1847 27.5615 10.7863 27.1216L13.3594 30.6406H17.7188Z" fill="#4DA6FF"/>
<path d="M28.3125 22L28.3125 13.2812C28.3125 13.1259 28.4384 13 28.5938 13L29.7188 13C29.8741 13 30 13.1259 30 13.2813L30 22H28.3125Z" fill="#F25858"/>
<path d="M27.5423 22V17.4036C27.5423 17.2793 27.4338 17.1786 27.3 17.1786H26.0538C25.92 17.1786 25.8115 17.2793 25.8115 17.4036L25.8115 22H27.5423Z" fill="#4DA6FF"/>
<path d="M25.0845 22L25.0845 14.7913C25.0845 14.6893 24.976 14.6065 24.8422 14.6065L23.596 14.6065C23.4622 14.6065 23.3537 14.6893 23.3537 14.7913V22H25.0845Z" fill="#7BCC29"/>
<path d="M21 22V20.5937C21 20.4384 21.1259 20.3125 21.2812 20.3125H22.4062C22.5616 20.3125 22.6875 20.4384 22.6875 20.5938V22L21 22Z" fill="#EC7838"/>
<rect x="23" y="27" width="7" height="1" rx="0.5" fill="#E3E4E7"/>
<rect x="21" y="27" width="1" height="1" rx="0.25" fill="#F25858"/>
<rect x="21" y="30" width="1" height="1" rx="0.25" fill="#1D91FF"/>
<rect x="21" y="33" width="1" height="1" rx="0.25" fill="#FF8900"/>
<rect x="23" y="30" width="7" height="1" rx="0.5" fill="#E3E4E7"/>
<rect x="23" y="33" width="7" height="1" rx="0.5" fill="#E3E4E7"/>
<path d="M21 7C21 6.72386 21.2239 6.5 21.5 6.5H29.5C29.7761 6.5 30 6.72386 30 7C30 7.27614 29.7761 7.5 29.5 7.5H21.5C21.2239 7.5 21 7.27614 21 7Z" fill="#E3E4E7"/>
<path d="M21 10C21 9.72386 21.2239 9.5 21.5 9.5H29.5C29.7761 9.5 30 9.72386 30 10V10C30 10.2761 29.7761 10.5 29.5 10.5H21.5C21.2239 10.5 21 10.2761 21 10V10Z" fill="#E3E4E7"/>
<path d="M9 15.5C9 15.2239 9.22386 15 9.5 15H17.5C17.7761 15 18 15.2239 18 15.5C18 15.7761 17.7761 16 17.5 16H9.5C9.22386 16 9 15.7761 9 15.5Z" fill="#E3E4E7"/>
<path d="M9 18.5C9 18.2239 9.22386 18 9.5 18H17.5C17.7761 18 18 18.2239 18 18.5C18 18.7761 17.7761 19 17.5 19H9.5C9.22386 19 9 18.7761 9 18.5Z" fill="#E3E4E7"/>
<path d="M9 21.5C9 21.2239 9.22386 21 9.5 21H17.5C17.7761 21 18 21.2239 18 21.5C18 21.7761 17.7761 22 17.5 22H9.5C9.22386 22 9 21.7761 9 21.5Z" fill="#E3E4E7"/>
</svg>
