<?xml version="1.0" standalone="no"?>
<!DOCTYPE svg PUBLIC "-//W3C//DTD SVG 1.1//EN" "http://www.w3.org/Graphics/SVG/1.1/DTD/svg11.dtd" >
<svg xmlns="http://www.w3.org/2000/svg">
<metadata>Generated by IcoMoon</metadata>
<defs>
<font id="ejreportdesigner" horiz-adv-x="1024">
<font-face units-per-em="1024" ascent="960" descent="-64" />
<missing-glyph horiz-adv-x="1024" />
<glyph unicode="&#x20;" horiz-adv-x="512" d="" />
<glyph unicode="&#xe900;" glyph-name="add" d="M1024 512h-448v448h-128v-448h-448v-128h448v-448h128v448h448z" />
<glyph unicode="&#xe901;" glyph-name="close" d="M1024 866.987l-93.013 93.013-418.987-409.6-418.987 409.6-93.013-93.013 409.6-418.987-409.6-418.987 93.013-93.013 418.987 409.6 418.987-409.6 93.013 93.013-409.6 418.987z" />
<glyph unicode="&#xe902;" glyph-name="code-module" d="M1024 461.227l-330.667 242.773-47.36-61.44 275.627-197.12-275.627-204.8 47.36-63.147 314.88 227.84 15.787 15.787zM330.667 704l-314.88-226.987-15.787-15.787v-39.253l330.667-244.053 47.36 63.147-275.627 204.373 275.627 197.12zM381.013 157.867l182.613 602.88 76.373-22.613-183.467-602.88z" />
<glyph unicode="&#xe903;" glyph-name="configuration-dataset" d="M512 938.667c-204.8 0-430.933-64-430.933-200.533v-584.533c0-136.533 221.867-200.533 430.933-200.533 204.8 0 430.933 64 430.933 200.533v584.533c0 136.533-226.133 200.533-430.933 200.533zM878.933 157.867c0-76.8-166.4-136.533-366.933-136.533-204.8 0-366.933 59.733-366.933 136.533v115.2c64-64 217.6-98.133 366.933-98.133s302.933 34.133 366.933 98.133v-115.2zM878.933 341.333v0c0 0 0 0 0 0 0-76.8-166.4-136.533-366.933-136.533s-366.933 59.733-366.933 136.533c0 0 0 0 0 0v0 115.2c64-64 217.6-98.133 366.933-98.133s302.933 34.133 366.933 98.133v-115.2zM878.933 524.8v0c0 0 0 0 0 0 0-76.8-166.4-136.533-366.933-136.533s-366.933 59.733-366.933 136.533c0 0 0 0 0 0v0 106.667c81.067-64 226.133-89.6 366.933-89.6s285.867 29.867 366.933 89.6v-106.667zM512 601.6c-204.8 0-366.933 59.733-366.933 136.533s166.4 136.533 366.933 136.533c204.8 0 366.933-59.733 366.933-136.533s-162.133-136.533-366.933-136.533z" />
<glyph unicode="&#xe904;" glyph-name="configuration-datasource" d="M1024 924.587h-1024v-284.587h1024zM962.133 700.16h-900.267v163.84h900.267zM866.133 782.080c0-21.915-17.765-39.68-39.68-39.68s-39.68 17.765-39.68 39.68c0 21.915 17.765 39.68 39.68 39.68s39.68-17.765 39.68-39.68zM866.133 398.080c0-21.915-17.765-39.68-39.68-39.68s-39.68 17.765-39.68 39.68c0 21.915 17.765 39.68 39.68 39.68s39.68-17.765 39.68-39.68zM640 92.16v60.16h-98.133v103.68h482.133v284.16h-1024v-284.16h481.707v-103.68h-97.707v-60.16h-384v-60.16h384v-60.16h256v59.733h384v60.587zM61.867 316.16v163.84h900.267v-163.84z" />
<glyph unicode="&#xe905;" glyph-name="configuration-imagemanager" d="M995.84 178.773l-8.96 5.547c1.877 9.172 2.951 19.714 2.951 30.507s-1.074 21.335-3.122 31.524l9.557 3.249c16.257 9.584 26.992 27.005 26.992 46.933 0 29.989-24.311 54.299-54.299 54.299-10.060 0-19.481-2.736-27.56-7.504l-8.28-4.128c-14.839 12.789-32.269 23.074-51.335 29.934l-1.145 11.453c0 29.926-24.26 54.187-54.187 54.187s-54.187-24.26-54.187-54.187v-10.24c-20.709-7.223-38.578-17.668-53.979-30.904l-8.741 5.73c-7.694 4.559-16.959 7.253-26.853 7.253-0.010 0-0.019 0-0.029 0-0.065 0-0.144 0-0.224 0-29.926 0-54.187-24.26-54.187-54.187 0-19.956 10.787-37.392 26.849-46.795l9.643-5.685c-1.877-9.172-2.951-19.714-2.951-30.507s1.074-21.335 3.122-31.524l-9.557-3.249c-16.257-9.584-26.992-27.005-26.992-46.933 0-29.989 24.311-54.299 54.299-54.299 10.060 0 19.481 2.736 27.56 7.504l8.28-0.138c14.839-12.789 32.269-23.074 51.335-29.934l1.145-11.026c0-29.926 24.26-54.187 54.187-54.187s54.187 24.26 54.187 54.187v11.947c20.644 6.698 38.525 16.589 54.060 29.25l8.234-5.783c7.85-4.569 17.277-7.267 27.334-7.267 30.398 0 55.040 24.642 55.040 55.040 0 0.605-0.010 1.208-0.029 1.808-0.092 20.239-11.105 37.972-27.469 47.557zM985.6 122.027c-3.529-5.868-9.838-9.748-17.057-9.813-3.469 0.094-6.689 1.032-9.499 2.613l-20.377 11.467c-2.879 2.165-6.514 3.467-10.453 3.467s-7.574-1.302-10.498-3.499c-15.78-16.219-35.846-28.266-58.366-34.323-8.865-1.996-14.765-8.916-14.975-17.249v-23.489c-1.972-9.167-10.009-15.939-19.627-15.939s-17.655 6.771-19.603 15.807l-0.024 21.465c-0.537 7.662-5.935 13.927-13.106 15.76-23.898 6.263-44.273 18.478-60.248 34.978-2.851 2.169-6.416 3.453-10.28 3.453-0.148 0-0.295-0.002-0.441-0.006-0.062 0.002-0.161 0.003-0.261 0.003-3.909 0-7.518-1.282-10.431-3.449l-19.153-7.647c-1.026-0.195-2.207-0.306-3.413-0.306s-2.387 0.111-3.532 0.324c-10.688 0.324-19.318 9.167-19.318 20.026 0 5.493 2.208 10.47 5.786 14.092l20.478 11.945c5.12 3.092 8.499 8.614 8.533 14.928 0.117 0.774 0.184 1.662 0.184 2.565s-0.067 1.791-0.196 2.658c-2.969 10.055-4.683 21.718-4.683 33.782 0 0.239 0.001 0.478 0.002 0.716 0 12.735 1.87 25.070 5.353 36.709-0.195-0.459-0.173 0.062-0.173 0.587s-0.022 1.046-0.064 1.561c0.005-0.017 0.005 0.043 0.005 0.104 0 6.178-3.203 11.608-8.038 14.72l-20.123 11.562c-6.1 3.544-10.136 10.047-10.136 17.493 0 11.136 9.027 20.163 20.163 20.163 3.69 0 7.148-0.991 10.123-2.721l19.53-11.468c2.879-2.165 6.514-3.467 10.453-3.467s7.574 1.302 10.498 3.499c15.78 16.219 35.846 28.266 58.366 34.323 8.865 1.996 14.765 8.916 14.975 17.249v26.049c1.972 9.167 10.009 15.939 19.627 15.939s17.655-6.771 19.603-15.807l0.024-23.599c0.154-8.013 5.672-14.695 13.105-16.613 23.898-6.263 44.273-18.478 60.248-34.979 2.851-2.169 6.416-3.453 10.28-3.453 0.148 0 0.295 0.002 0.441 0.006 0.062-0.002 0.161-0.003 0.261-0.003 3.909 0 7.518 1.282 10.431 3.449l19.58 11.487c3.566 3.311 8.36 5.343 13.629 5.343 11.075 0 20.053-8.978 20.053-20.053 0-8.776-5.637-16.235-13.488-18.954l-21.474-14.976c-5.12-3.092-8.499-8.614-8.533-14.928-0.117-0.774-0.184-1.662-0.184-2.565s0.067-1.791 0.196-2.658c2.969-10.055 4.683-21.718 4.683-33.782 0-0.239-0.001-0.478-0.002-0.716 0-12.735-1.87-25.070-5.353-36.709 0.152 0.329 0.105-0.337 0.105-1.014s0.046-1.343 0.136-1.996c0.026-6.243 3.404-11.765 8.447-14.814l20.132-11.137c5.685-3.605 9.404-9.864 9.404-16.992 0-3.295-0.795-6.405-2.203-9.148zM825.173 286.72c-0.635 0.020-1.382 0.031-2.132 0.031-40.295 0-72.96-32.665-72.96-72.96s32.665-72.96 72.96-72.96c40.295 0 72.96 32.665 72.96 72.96 0 0.139 0 0.278-0.001 0.417 0-0.016 0-0.008 0-0.001 0 39.695-31.7 71.985-71.165 72.938zM825.173 176.213c-20.972 0-37.973 17.001-37.973 37.973s17.001 37.973 37.973 37.973c20.972 0 37.973-17.001 37.973-37.973s-17.001-37.973-37.973-37.973v0zM579.84 157.013h-528.64v142.080l247.467 304.213 227.413-283.307 120.32 156.587 66.987-78.933 8.533 4.693c3.761 16.392 10.884 30.735 20.639 42.872l-98.293 114.142-120.32-154.027-225.28 279.893-247.467-304.213v469.333h815.36v-372.48c21.832-9.69 39.34-25.823 50.497-45.962l0.277 471.349h-917.333v-796.587h579.413c-2.039 7.749-3.21 16.644-3.21 25.813s1.171 18.065 3.372 26.546zM704 711.68c-1.407-30.455-26.44-54.613-57.116-54.613-31.576 0-57.173 25.597-57.173 57.173 0 31.556 25.565 57.141 57.113 57.173 31.544-0.949 56.751-26.745 56.751-58.428 0-0.159-0.001-0.317-0.002-0.476z" />
<glyph unicode="&#xe906;" glyph-name="configuration-parameters" d="M1019.733 901.973c-4.946 10.605-15.485 17.84-27.723 17.92h-961.29c-0.058 0-0.127 0.001-0.195 0.001-16.966 0-30.72-13.754-30.72-30.72 0-7.682 2.82-14.706 7.481-20.093l370.314-447.961v-413.867c-0.017-0.387-0.027-0.841-0.027-1.297 0-16.966 13.754-30.72 30.72-30.72 5.153 0 10.010 1.269 14.276 3.511l207.618 102.746c10.43 5.059 17.493 15.568 17.493 27.727 0 0.002 0 0.005 0 0.007v310.186l370.347 448.427c3.731 4.978 5.975 11.259 5.975 18.063 0 0.1 0 0.199-0.001 0.298 0 0 0 0.019 0 0.037 0 5.8-1.585 11.229-4.346 15.879zM588.8 453.547c-4.248-5.068-6.829-11.659-6.829-18.853 0-0.122 0.001-0.244 0.002-0.365v-295.661l-146.347-74.667v367.787c-0.118 7.359-2.843 14.059-7.287 19.241l-326.793 397.613h810.667z" />
<glyph unicode="&#xe907;" horiz-adv-x="1046" d="M0 960h1045.787v-1024h-1045.787v1024z" />
<glyph unicode="&#xe908;" horiz-adv-x="1046" d="M653.617 633.191v-130.723h-370.383v130.723h370.383z" />
<glyph unicode="&#xe909;" horiz-adv-x="1046" d="M762.553 872.851v-130.723h-675.404v130.723h675.404z" />
<glyph unicode="&#xe90a;" horiz-adv-x="1046" d="M958.638 393.532v-130.723h-544.681v130.723h544.681z" />
<glyph unicode="&#xe90b;" horiz-adv-x="1046" d="M501.106 153.872v-130.723h-413.957v130.723h413.957z" />
<glyph unicode="&#xe90c;" d="M0 960h1024v-1024h-1024v1024z" />
<glyph unicode="&#xe90d;" glyph-name="double-drag" d="M448 873.813c0-47.6-38.587-86.187-86.187-86.187s-86.187 38.587-86.187 86.187c0 47.6 38.587 86.187 86.187 86.187s86.187-38.587 86.187-86.187zM748.373 873.813c0-47.6-38.587-86.187-86.187-86.187s-86.187 38.587-86.187 86.187c0 47.6 38.587 86.187 86.187 86.187s86.187-38.587 86.187-86.187zM448 590.080c0-47.6-38.587-86.187-86.187-86.187s-86.187 38.587-86.187 86.187c0 47.6 38.587 86.187 86.187 86.187s86.187-38.587 86.187-86.187zM748.373 590.080c0-47.6-38.587-86.187-86.187-86.187s-86.187 38.587-86.187 86.187c0 47.6 38.587 86.187 86.187 86.187s86.187-38.587 86.187-86.187zM448 305.92c0-47.6-38.587-86.187-86.187-86.187s-86.187 38.587-86.187 86.187c0 47.6 38.587 86.187 86.187 86.187s86.187-38.587 86.187-86.187zM748.373 305.92c0-47.6-38.587-86.187-86.187-86.187s-86.187 38.587-86.187 86.187c0 47.6 38.587 86.187 86.187 86.187s86.187-38.587 86.187-86.187zM448 22.187c0-47.6-38.587-86.187-86.187-86.187s-86.187 38.587-86.187 86.187c0 47.6 38.587 86.187 86.187 86.187s86.187-38.587 86.187-86.187zM748.373 22.187c0-47.6-38.587-86.187-86.187-86.187s-86.187 38.587-86.187 86.187c0 47.6 38.587 86.187 86.187 86.187s86.187-38.587 86.187-86.187z" />
<glyph unicode="&#xe90e;" glyph-name="filter" d="M0 933.547l348.587-670.72v-298.667h326.827v298.667l348.587 670.72zM878.507 845.227l-93.013-176.64h-546.987l-93.013 176.64zM282.453 580.267h459.093l-70.827-136.533h-317.44zM587.093 50.773h-150.187v229.547l-35.413 70.827h225.28l-35.413-70.827v-229.547z" />
<glyph unicode="&#xe90f;" glyph-name="move" d="M1024 460.8l-6.4 12.8-134.4 134.4c-6.374 5.684-14.827 9.158-24.092 9.158-20.030 0-36.267-16.237-36.267-36.267 0-9.264 3.474-17.717 9.19-24.127l76.769-76.764h-358.4v364.8l76.8-76.8c6.797-5.983 15.772-9.635 25.6-9.635s18.803 3.652 25.643 9.672c5.94 6.76 9.592 15.735 9.592 25.563s-3.652 18.803-9.672 25.643l-134.363 134.357-19.2 6.4h-25.6l-147.2-147.2c-5.236-5.559-8.453-13.071-8.453-21.333s3.217-15.774 8.468-21.349c4.365-7.339 12.276-12.19 21.319-12.19s16.953 4.851 21.271 12.092l76.863 76.913v-358.4h-356.267l76.8 74.667c7.355 4.38 12.205 12.29 12.205 21.333s-4.851 16.953-12.092 21.271c-6.91 6.046-15.885 9.698-25.713 9.698s-18.803-3.652-25.643-9.672l-127.957-132.23-12.8-12.8v-25.6l6.4-12.8 134.4-134.4c6.797-5.983 15.772-9.635 25.6-9.635s18.803 3.652 25.643 9.672c5.94 6.76 9.592 15.735 9.592 25.563s-3.652 18.803-9.672 25.643l-76.763 76.757h358.4v-358.4l-76.8 70.4c-6.673 7.485-16.343 12.175-27.108 12.175-20.030 0-36.267-16.237-36.267-36.267 0-10.765 4.69-20.435 12.139-27.077l134.436-134.431 19.2-6.4h25.6l12.8 6.4 134.4 134.4c5.684 6.374 9.158 14.827 9.158 24.092 0 20.030-16.237 36.267-36.267 36.267-9.264 0-17.717-3.474-24.127-9.19l-76.764-76.769v358.4h358.4l-70.4-76.8c-5.684-6.374-9.158-14.827-9.158-24.092 0-20.030 16.237-36.267 36.267-36.267 9.264 0 17.717 3.474 24.127 9.19l134.364 134.369 6.4 12.8z" />
<glyph unicode="&#xe910;" glyph-name="reference" d="M929.28 739.413l-196.693 197.12c-11.675 13.44-28.383 22.244-47.159 23.456l-543.774 0.010c-0.127 0.001-0.277 0.001-0.428 0.001-38.881 0-70.4-31.519-70.4-70.4 0-0.15 0-0.301 0.001-0.451v-882.324c-0.001-0.127-0.001-0.277-0.001-0.428 0-38.881 31.519-70.4 70.4-70.4 0.15 0 0.301 0 0.451 0.001h740.67c0.127-0.001 0.277-0.001 0.428-0.001 38.881 0 70.4 31.519 70.4 70.4 0 0.15 0 0.301-0.001 0.451v677.524c0.011 0.475 0.018 1.035 0.018 1.597 0 21.205-9.208 40.26-23.844 53.384zM715.947 841.813l128-128h-128zM448.853 874.667v-417.28l-78.507 93.013-78.933-94.72v418.987zM150.187 8.107v866.56h63.147v-640l157.44 189.013 157.013-189.013v640h112.213v-166.827c-0.001-0.127-0.001-0.277-0.001-0.428 0-38.881 31.519-70.4 70.4-70.4 0.15 0 0.301 0 0.451 0.001h165.524v-630.187z" />
<glyph unicode="&#xe911;" glyph-name="search" d="M1009.92 21.333l-282.027 278.187c21.341 27.075 39.676 58.013 53.635 91.243 21.477 49.456 33.405 104.032 33.405 161.395 0 0.132 0 0.264 0 0.397-0.257 57.491-12.156 112.156-33.459 161.832-62.196 144.421-205.858 245.586-373.151 245.614h-0.003c-0.352 0.001-0.77 0.002-1.187 0.002-112.766 0-214.743-46.195-288.039-120.694-35.361-36.763-64.147-80.052-84.351-127.853-21.812-49.365-34.158-103.693-34.741-160.839l-0.002-2.349c0-0.104 0-0.227 0-0.349 0-55.646 11.454-108.617 32.134-156.683l-0.987 5.139c21.796-51.686 51.608-95.862 88.37-133.171l21.71-21.709c71.218-62.4 165.121-100.464 267.915-100.464 57.335 0 111.903 11.842 161.394 33.213 33.236 13.979 64.189 32.606 91.955 55.022l276.176-278.331c8.591-8.695 20.514-14.080 33.696-14.080 0.004 0 0.008 0 0.011 0h2.133c0.003 0 0.007 0 0.011 0 13.181 0 25.105 5.385 33.691 14.075 8.71 8.854 14.085 21.003 14.085 34.407 0 0.056 0 0.111 0 0.167v-0.009s0 0 0 0c0.095 1.125 0.149 2.435 0.149 3.757 0 12.393-4.76 23.674-12.552 32.115zM717.653 552.96v0c0-0.095 0-0.208 0-0.32 0-84.28-33.705-160.687-88.371-216.478l0.051 0.052c-55.712-56.33-133.009-91.214-218.453-91.214s-162.741 34.884-218.426 91.186c-27.986 28.347-50.728 61.894-66.646 99.060-17.625 35.919-28.655 75.428-31.464 117.19l-0.051 0.951c-0.001 0.259-0.001 0.564-0.001 0.87 0 85.569 34.554 163.068 90.469 219.304 55.763 57.636 133.83 93.426 220.256 93.426 0.111 0 0.223 0 0.334 0h-0.018c43.749-0.109 85.382-9.040 123.256-25.105 71.904-31.629 129.833-89.282 161.811-161.046l0.8-2.010c15.376-35.432 24.321-76.699 24.321-120.056 0-0.243 0-0.486-0.001-0.728v-3.376z" />
<glyph unicode="&#xe912;" glyph-name="search-collapse" d="M474.453 21.333v0c-0.023 0-0.051 0-0.079 0-16.605 0-31.65 6.68-42.593 17.499l-410.448 405.328 405.333 406.187c11.206 16.362 29.791 26.958 50.852 26.958 33.932 0 61.44-27.508 61.44-61.44 0-21.060-10.596-39.646-26.749-50.716l-315.516-320.136 320-320c10.123-10.98 16.33-25.705 16.33-41.88 0-33.159-26.086-60.225-58.856-61.795zM934.4 21.333v0c-0.023 0-0.051 0-0.079 0-16.605 0-31.65 6.68-42.593 17.499l-406.181 406.181 406.187 406.187c11.206 16.362 29.791 26.958 50.852 26.958 33.932 0 61.44-27.508 61.44-61.44 0-21.060-10.596-39.646-26.749-50.716l-319.356-320.136 320-320c10.123-10.98 16.33-25.705 16.33-41.88 0-33.159-26.086-60.225-58.856-61.795z" />
<glyph unicode="&#xe913;" glyph-name="selection" d="M893.44 448v5.547l109.227 21.76-16.213 109.227-109.227-21.76c-17.87 52.374-43.857 97.621-76.885 136.729l71.339 84.711-85.333 70.827-70.827-85.333c-42.338 25.672-91.793 44.728-144.569 54.221l-2.631 114.739h-110.933v-114.347c-55.529-7.047-105.444-26.458-148.419-55.386l-69.608 86.106-81.92-69.12 70.827-85.333c-37.559-37.252-65.796-83.846-80.939-136.009l-109.781 19.529-16.213-108.8 109.227-21.76v-5.547c0.147-52.952 10.153-103.524 28.279-150.036l-99.106-57.324 54.613-98.133 103.253 60.16c33.54-38.43 73.207-70.477 117.665-94.879l-40.438-110.347 103.68-37.973 42.667 114.347c17.354-3.716 37.292-5.845 57.727-5.845 4.607 0 9.189 0.108 13.743 0.322 3.008-0.157 7.298-0.233 11.606-0.233 22.666 0 44.843 2.094 66.349 6.099l40.441-114.691 103.68 37.973-42.667 114.347c47.362 23.601 86.984 56.127 118.055 95.689l105.518-58.142 54.613 98.133-98.133 60.16c12.917 41.885 20.666 90.097 21.33 140.020zM512 175.36c-0.764-0.008-1.668-0.012-2.572-0.012-149.161 0-270.080 120.919-270.080 270.080 0 0.904 0.004 1.808 0.013 2.71-0.009 0.627-0.013 1.53-0.013 2.434 0 149.161 120.919 270.080 270.080 270.080 0.904 0 1.808-0.004 2.71-0.013 0.627 0.009 1.53 0.013 2.434 0.013 149.161 0 270.080-120.919 270.080-270.080 0-0.904-0.004-1.808-0.013-2.71 0.009-0.627 0.013-1.53 0.013-2.434 0-149.161-120.919-270.080-270.080-270.080-0.904 0-1.808 0.004-2.71 0.013zM512 611.413c-0.897 0.018-1.955 0.028-3.015 0.028-88.601 0-160.427-71.825-160.427-160.427 0-1.060 0.010-2.118 0.031-3.173-0.020-0.739-0.031-1.797-0.031-2.857 0-88.601 71.825-160.427 160.427-160.427 1.060 0 2.118 0.010 3.173 0.031 0.739-0.020 1.797-0.031 2.857-0.031 88.601 0 160.427 71.825 160.427 160.427 0 1.060-0.010 2.118-0.031 3.173 0.020 0.739 0.031 1.797 0.031 2.857 0 88.601-71.825 160.427-160.427 160.427-1.060 0-2.118-0.010-3.173-0.031zM512 393.387c-0.92-0.059-1.996-0.092-3.079-0.092-28.513 0-51.627 23.114-51.627 51.627 0 1.083 0.033 2.158 0.099 3.225-0.066 0.774-0.099 1.849-0.099 2.932 0 28.513 23.114 51.627 51.627 51.627 1.083 0 2.158-0.033 3.225-0.099 0.774 0.066 1.849 0.099 2.932 0.099 28.513 0 51.627-23.114 51.627-51.627 0-1.083-0.033-2.158-0.099-3.225 0.066-0.774 0.099-1.849 0.099-2.932 0-28.513-23.114-51.627-51.627-51.627-1.083 0-2.158 0.033-3.225 0.099z" />
<glyph unicode="&#xe914;" glyph-name="single-drag" d="M401.067 448v0c0 61.267 49.667 110.933 110.933 110.933s110.933-49.667 110.933-110.933c0-61.267-49.667-110.933-110.933-110.933s-110.933 49.667-110.933 110.933zM401.067 827.733v0c-0.001 0.127-0.001 0.277-0.001 0.427 0 61.031 49.476 110.507 110.507 110.507 0.15 0 0.301 0 0.451-0.001h-0.023c61.267 0 110.933-49.667 110.933-110.933s-49.667-110.933-110.933-110.933v0c-0.017 0-0.037 0-0.057 0-30.49 0-58.084 12.396-78.019 32.423l-0.004 0.004c-20.218 19.723-32.78 47.214-32.853 77.639v0.014zM401.067 68.267v0c0 61.267 49.667 110.933 110.933 110.933s110.933-49.667 110.933-110.933c0-61.267-49.667-110.933-110.933-110.933s-110.933 49.667-110.933 110.933z" />
<glyph unicode="&#xe915;" glyph-name="syncfusion" d="M21.333 795.307h242.773v-242.773h-242.773zM841.387 576l161.28 186.453-189.867 160-159.573-188.16zM309.76 795.307h242.773v-242.773h-242.773zM21.333 505.173h242.773v-242.773h-242.773zM309.76 505.173h242.773v-242.773h-242.773zM600.32 505.173h242.773v-242.773h-242.773zM21.333 216.32h242.773v-242.773h-242.773zM309.76 216.32h242.773v-242.773h-242.773zM600.32 216.32h242.773v-242.773h-242.773z" />
<glyph unicode="&#xe916;" glyph-name="toolbar-copy" d="M849.493 785.493h-92.16v91.733c0.068 1.052 0.107 2.282 0.107 3.52 0 32.047-25.979 58.027-58.027 58.027-1.238 0-2.468-0.039-3.687-0.115l-349.273 0.008-232.96-234.667v-532.053c-0.068-1.052-0.107-2.282-0.107-3.52 0-32.047 25.979-58.027 58.027-58.027 1.238 0 2.468 0.039 3.687 0.115l91.567-0.008v-92.16c-0.053-0.924-0.082-2.004-0.082-3.092 0-32.047 25.979-58.027 58.027-58.027 1.23 0 2.451 0.038 3.662 0.114l521.221-0.008c1.052-0.068 2.282-0.107 3.52-0.107 32.047 0 58.027 25.979 58.027 58.027 0 1.238-0.039 2.468-0.115 3.687l0.008 705.113c0.068 1.052 0.107 2.282 0.107 3.52 0 32.047-25.979 58.027-58.027 58.027-1.238 0-2.468-0.039-3.687-0.115zM328.107 834.56v-110.507h-110.507zM174.507 661.333h213.333v213.333h306.773v-702.72h-520.107zM849.493 18.773h-521.387v91.733h367.787c1.052-0.068 2.282-0.107 3.52-0.107 32.047 0 58.027 25.979 58.027 58.027 0 1.238-0.039 2.468-0.115 3.687l0.008 551.94h92.16v-705.28z" />
<glyph unicode="&#xe917;" glyph-name="toolbar-cut" d="M610.133 448l392.533 232.96-24.747 23.040c-28.552 32.767-70.355 53.358-116.966 53.358-12.849 0-25.333-1.565-37.271-4.514l-471.256-268.151-85.76 48.64c61.713 28.054 103.895 89.075 104.107 159.972 0 98.29-79.657 177.948-177.92 177.948-94.954-3.31-170.672-81.082-170.672-176.539 0-0.486 0.002-0.971 0.006-1.455-0.005-0.407-0.008-0.976-0.008-1.546 0-85.982 63.584-157.114 146.296-168.94l122.938-74.774-120.747-73.387c-83.624-11.933-147.208-83.064-147.208-169.047 0-0.57 0.003-1.139 0.008-1.707-0.001-98.176 79.657-177.833 177.919-177.833s177.92 79.657 177.92 177.92c0 0.151 0.001 0.329 0.001 0.507 0 71.191-43.589 132.201-105.534 157.798l84.2 49.482 459.947-269.653 5.973-5.973c9.594-3.847 20.717-6.079 32.36-6.079 1.524 0 3.040 0.038 4.545 0.114 1.636-0.097 3.801-0.148 5.977-0.148 44.955 0 84.883 21.525 110.039 54.831l24.572 24.668-391.253 238.507zM82.773 693.333c0.484 63.962 52.447 115.627 116.477 115.627 64.33 0 116.48-52.15 116.48-116.48 0-64.329-52.148-116.478-116.477-116.48-0.001 0-0.002 0-0.003 0-64.33 0-116.48 52.15-116.48 116.48 0 0.3 0.001 0.6 0.003 0.899zM315.733 202.667c0-64.33-52.15-116.48-116.48-116.48s-116.48 52.15-116.48 116.48c-0.064 1.421-0.101 3.087-0.101 4.762 0 62.209 50.431 112.64 112.64 112.64 1.386 0 2.766-0.025 4.139-0.075 63.483-2.291 114.462-53.568 116.277-117.156zM843.093 699.307c5.292 1.035 11.378 1.628 17.602 1.628 13.522 0 26.391-2.796 38.060-7.84l-448.195-269.414-36.693 24.32 429.227 251.307zM849.067 196.267l-337.067 190.293 36.693 24.32 349.44-208.64c-8.103-5.917-18.262-9.467-29.249-9.467-7.002 0-13.667 1.442-19.715 4.044z" />
<glyph unicode="&#xe918;" glyph-name="toolbar-delete" d="M880.213 846.507h-245.333v12.373c0.091 1.388 0.143 3.010 0.143 4.644 0 39.054-29.645 71.184-67.659 75.116l-110.404 0.027c-38.338-3.959-67.983-36.089-67.983-75.143 0-1.634 0.052-3.255 0.154-4.863l-0.011-12.154h-245.333v-61.013h30.72v-768c-0.027-0.667-0.043-1.45-0.043-2.236 0-32.047 25.979-58.027 58.027-58.027 1.216 0 2.423 0.037 3.621 0.111l551.942-0.008c1.052-0.068 2.282-0.107 3.52-0.107 32.047 0 58.027 25.979 58.027 58.027 0 1.238-0.039 2.468-0.115 3.687l0.008 767.833h30.72zM450.56 858.88c-0.023 0.42-0.037 0.911-0.037 1.406 0 6.444 2.268 12.359 6.048 16.989l110.468-0.048c3.743-4.582 6.010-10.496 6.010-16.941 0-0.495-0.013-0.986-0.040-1.474l0.003-12.305h-122.453zM788.053 18.773h-552.107v768h552.107zM634.88 693.333h61.44v-582.827h-61.44zM481.707 693.333h61.44v-582.827h-61.867zM328.533 693.333h61.013v-582.827h-61.44z" />
<glyph unicode="&#xe919;" glyph-name="toolbar-design" d="M21.333 67.413c-0.001-0.127-0.001-0.277-0.001-0.428 0-60.56 49.093-109.653 109.653-109.653 0.15 0 0.301 0 0.451 0.001h661.31c0.127-0.001 0.277-0.001 0.428-0.001 60.56 0 109.653 49.093 109.653 109.653 0 0.15 0 0.301-0.001 0.451v526.91l-85.333-85.333v-465.92h-710.4v710.4h465.493l85.333 85.333h-526.507c-0.127 0.001-0.277 0.001-0.428 0.001-60.56 0-109.653-49.093-109.653-109.653 0-0.15 0-0.301 0.001-0.451zM848.213 925.013l-67.413-67.413 140.8-140.8 67.413 67.413c8.529 9.761 13.731 22.62 13.731 36.693s-5.202 26.933-13.787 36.759l-67.357 67.348c-9.761 8.529-22.62 13.731-36.693 13.731s-26.933-5.202-36.759-13.787zM307.2 384.853l418.133 419.84 138.667-138.667-419.84-419.84zM260.267 192h128l-128 128z" />
<glyph unicode="&#xe91a;" glyph-name="toolbar-menu" d="M21.333 775.253h981.333v-109.227h-981.333zM21.333 502.613h981.333v-109.227h-981.333zM21.333 229.973h981.333v-109.227h-981.333z" />
<glyph unicode="&#xe91b;" glyph-name="toolbar-new" d="M864 728.747l-187.307 188.587c-11.182 12.364-26.971 20.38-44.637 21.326l-427.256 0.007c-37.206-5.958-65.567-36.954-67.406-74.91l-0.007-839.010c-0.001-0.127-0.001-0.278-0.001-0.428 0-36.996 29.991-66.987 66.987-66.987 0.15 0 0.301 0 0.451 0.001h614.377c0.127-0.001 0.278-0.001 0.428-0.001 36.996 0 66.987 29.991 66.987 66.987 0 0.15 0 0.301-0.001 0.451v651.497c0.017 0.563 0.026 1.226 0.026 1.891 0 20.074-8.719 38.111-22.576 50.532zM661.76 826.453l119.893-119.893h-119.893zM213.333 32.427v823.893h374.613v-157.44c-0.001-0.127-0.001-0.278-0.001-0.428 0-36.846 29.749-66.744 66.538-66.985h156.183v-597.333z" />
<glyph unicode="&#xe91c;" glyph-name="toolbar-open-folder" d="M58.453 590.080h26.88v248.32c-0.071 0.822-0.112 1.779-0.112 2.745 0 18.616 15.091 33.707 33.707 33.707 1.242 0 2.468-0.067 3.675-0.198l284.011 0.013c11.583-0.101 21.871-5.554 28.527-14.002l134.886-142.158h333.653c0.523 0.029 1.136 0.046 1.752 0.046 18.616 0 33.707-15.091 33.707-33.707 0-0.616-0.017-1.229-0.049-1.837l0.004 0.085v-93.013h28.587c0.523 0.029 1.136 0.046 1.752 0.046 18.616 0 33.707-15.091 33.707-33.707 0-0.616-0.017-1.229-0.049-1.837l0.004-7.169-57.173-483.413c-3.271-22.123-20.543-39.396-42.392-42.633l-781.075-0.033c-7.253 0-21.333 7.253-28.587 7.253-8.631 8.008-15.777 17.471-21.076 28.022l-49.75 490.805c-7.253 21.333 7.253 35.413 35.413 42.667v0zM165.12 590.080h702.72v49.493h-313.173c-11.184 1.812-20.964 6.844-28.61 14.102l-133.95 142.058h-226.987zM924.587 512h-823.467l49.493-411.733h725.333z" />
<glyph unicode="&#xe91d;" glyph-name="toolbar-paste" d="M788.053 478.72v306.773h-153.173v61.013h-116.907c-11.315 51.804-55.947 90.316-109.885 92.155-55.682-2.685-101.698-40.322-116.87-91.249l-116.712-0.906v-61.013h-153.173v-828.16h981.333v521.387zM235.947 785.493h110.507v30.293c-0.006 0.329-0.010 0.718-0.010 1.107 0 31.512 24.057 57.405 54.807 60.315 31.236-2.91 55.293-28.803 55.293-60.315 0-0.389-0.004-0.777-0.011-1.165l0.001-30.662h116.48v-91.733h-337.067zM82.773 17.493v706.56h91.733v-92.16h460.373v92.16h90.453v-245.333h-244.053v-459.947zM941.227 17.493h-398.507v399.787h398.507zM603.733 324.267h276.053v-61.44h-275.627zM603.733 171.093h276.053v-61.44h-275.627z" />
<glyph unicode="&#xe91e;" glyph-name="toolbar-preview" d="M512 593.493v0c1.373 0.051 2.985 0.080 4.605 0.080 38.476 0 73.116-16.429 97.285-42.655 26.411-25.504 42.759-61.106 42.759-100.526 0-0.541-0.003-1.082-0.009-1.622 0.027-0.937 0.042-2.138 0.042-3.342 0-78.94-63.993-142.933-142.933-142.933-0.615 0-1.228 0.004-1.841 0.012l0.093-0.001c-0.483-0.006-1.054-0.009-1.625-0.009-40.871 0-77.939 16.279-105.075 42.708-24.39 23.318-39.572 56.158-39.572 92.544 0 4.964 0.283 9.863 0.833 14.68 3.634 77.452 67.043 139.522 145.291 141.062zM516.693 671.147c-3.558 0.142-7.734 0.222-11.93 0.222-19.759 0-39.1-1.788-57.871-5.212-54.805-12.577-104.954-32.726-150.744-59.518-74.976-42-141.055-95.297-196.935-157.894 62.702-71.977 138.387-130.627 223.309-173.698 57.722-31.969 121.475-49.791 189.357-50.193l4.814-0.001c62.153 1.842 120.556 15.953 173.503 39.979 90.721 44.356 169.475 106.464 232.632 182.055-47.015 52.805-99.377 99.075-155.998 139.795-66.062 45.756-141.986 75.223-224.061 84.27zM516.693 738.987h29.013c97.052-10.153 184.364-45.103 257.519-98.333 71.072-45.868 133.43-100.494 186.956-162.915 8.138-8.768 12.547-19.058 12.547-30.378s-4.408-21.611-11.602-29.248c-76.021-87.801-168.037-159.499-271.831-211.041-62.677-32.916-131.051-50.912-203.628-50.912-0.239 0-0.479 0-0.718 0.001h-2.949c-79.87 2.254-154.682 21.694-221.581 54.73-99.93 52.828-187.117 122.991-258.687 206.882-6.843 8.45-10.372 17.754-10.372 27.882s3.529 19.432 9.424 26.749c63.606 75.247 138.982 138.25 223.708 186.784 54.469 31.219 112.832 54.565 174.591 69.111 25.477 7.56 49.706 11.411 74.834 11.411 4.194 0 8.362-0.107 12.503-0.319z" />
<glyph unicode="&#xe91f;" glyph-name="toolbar-redo" d="M733.867 865.28h-75.947l238.080-255.147h-600.747c-152.124-4.512-273.747-128.824-273.92-281.583 0-3.004 0-5.564 0-8.124s0-4.693 0-7.68c0-0.042 0-0.092 0-0.142 0-152.608 121.211-276.906 272.611-281.872l0.456 59.721c-118.663 4.483-213.179 101.685-213.333 220.999 0 3.001 0 6.415 0 9.401s0 4.267 0 6.827c0 0.040 0 0.087 0 0.133 0 119.361 94.621 216.623 212.946 220.869l604.548 0.011-245.76-262.827h75.093l274.773 293.973z" />
<glyph unicode="&#xe920;" glyph-name="toolbar-run" d="M85.333 938.667l853.333-490.667-853.333-490.667v981.333z" />
<glyph unicode="&#xe921;" glyph-name="toolbar-save" d="M795.307 938.667h-725.333v-981.333h884.907v782.080zM325.973 667.307v207.36h341.333v-207.36zM733.013 603.307v271.36h32l128-159.573v-686.080h-752.213v845.653h119.467v-270.933zM213.333 395.947h597.333v-64h-597.333zM213.333 212.48h597.333v-63.147h-597.333zM571.733 802.987h64v-111.787h-64z" />
<glyph unicode="&#xe922;" glyph-name="toolbar-undo" d="M725.333 606.72h-602.453l239.36 256h-71.68l-269.227-286.72 277.333-292.693h75.52l-251.307 263.253h602.453c118.755-4.205 213.43-101.488 213.43-220.883 0-2.296-0.035-4.584-0.105-6.864 0.070-1.612 0.105-3.9 0.105-6.197 0-119.396-94.675-216.679-213.047-220.872l-0.383-59.744c153.308 6.082 275.287 131.837 275.287 286.082 0 2.475-0.031 4.942-0.094 7.402 0.013 0.28 0.016 1.040 0.016 1.802 0 152.848-122.706 277.037-274.984 279.431z" />
<glyph unicode="&#xe923;" glyph-name="toolbar-zoomin" d="M506.027 935.68c-267.202-1.206-483.487-217.491-484.693-484.577 0-271.104 219.679-490.783 490.666-490.783s490.667 219.679 490.667 490.667c-9.172 268.094-227.5 482.246-496.403 484.692zM506.027 49.067c-221.974 0-401.92 179.946-401.92 401.92s179.946 401.92 401.92 401.92c221.974 0 401.92-179.946 401.92-401.92-0.243-221.876-180.043-401.677-401.896-401.92zM251.733 490.667h508.587v-85.333h-508.587z" />
<glyph unicode="&#xe924;" glyph-name="toolbar-zoomout" d="M506.027 935.68c-267.202-1.206-483.487-217.491-484.693-484.577 1.444-270.521 220.262-489.338 490.528-490.782 270.543 1.444 489.36 220.261 490.804 490.528-9.171 268.232-227.499 482.384-496.402 484.83zM506.027 49.067c-221.974 0-401.92 179.946-401.92 401.92s179.946 401.92 401.92 401.92c221.974 0 401.92-179.946 401.92-401.92-0.243-221.876-180.043-401.677-401.896-401.92zM554.667 704h-90.027v-213.333h-213.333v-85.333h213.333v-206.933h90.027v206.933h206.933v85.333h-206.933z" />
<glyph unicode="&#xe925;" glyph-name="variables" d="M21.333 938.667v-981.333h981.333v981.333zM933.12 861.44v-108.373h-834.56v108.373zM98.56 26.88v648.96h826.88v-648.96zM175.787 621.653h317.013v-77.227h-317.013zM268.8 482.56h317.013v-77.227h-317.013zM361.387 343.467h317.013v-77.227h-317.013zM175.787 212.48h317.013v-77.227h-317.013z" />
<glyph unicode="&#xe926;" glyph-name="widget-basicshapes" d="M1002.667 538.453c0 0 0 0 0 0 0 167.777-136.010 303.787-303.787 303.787-0.15 0-0.3 0-0.45 0-117.012-1.907-218.309-67.463-270.943-163.484l-118.155 211.698-288-517.12h224v-367.787h517.12v239.787c137.314 29.474 238.956 149.248 240.212 292.983zM117.333 421.547l197.547 357.12 96-170.667c-7.105-16.611-11.235-35.94-11.235-56.234 0-4.537 0.206-9.025 0.61-13.457l-0.042-15.216h-149.333v-101.547zM714.667 58.88h-410.453v410.453h410.453zM768 298.667v224h-314.453v15.787c0 0.127 0 0.277 0 0.427 0 138.322 112.132 250.453 250.453 250.453 0 0 0 0 0 0 135.565-0.217 245.378-110.164 245.378-245.76 0-1.65-0.016-3.297-0.049-4.939-0.535-113.146-76.088-208.747-179.551-239.514z" />
<glyph unicode="&#xe927;" glyph-name="widget-circle" d="M512-42.667c-268.8 0-490.667 221.867-490.667 490.667s221.867 490.667 490.667 490.667 490.667-221.867 490.667-490.667-221.867-490.667-490.667-490.667zM512 870.4c-230.4 0-422.4-187.733-422.4-422.4 0-230.4 187.733-422.4 422.4-422.4s422.4 187.733 422.4 422.4c0 230.4-192 422.4-422.4 422.4z" />
<glyph unicode="&#xe928;" glyph-name="untitled" d="M512 874.667c-268.8 0-490.667-221.867-490.667-490.667 0-140.8 55.467-268.8 162.133-362.667l42.667 46.933c-89.6 81.067-140.8 196.267-140.8 315.733 0 238.933 187.733 435.2 426.667 435.2s426.667-192 426.667-426.667c0-115.2-42.667-221.867-123.733-298.667-4.267-4.267-8.533-8.533-17.067-17.067v0l42.667-46.933c4.267 4.267 8.533 8.533 21.333 21.333 93.867 93.867 140.8 217.6 140.8 341.333 0 260.267-221.867 482.133-490.667 482.133z" />
<glyph unicode="&#xe929;" glyph-name="untitled2" d="M785.067 614.4l-38.4 38.4-200.533-200.533c-8.533 4.267-21.333 8.533-34.133 8.533-42.667 0-81.067-34.133-81.067-81.067 0-12.8 4.267-25.6 8.533-34.133l-46.933-46.933 38.4-38.4 46.933 46.933c8.533-4.267 21.333-8.533 34.133-8.533 42.667 0 81.067 34.133 81.067 81.067 0 12.8-4.267 25.6-8.533 34.133l200.533 200.533z" />
<glyph unicode="&#xe92a;" glyph-name="untitled3" d="M750.933 452.267c-72.533 0-132.267 59.733-132.267 132.267s59.733 132.267 132.267 132.267 132.267-59.733 132.267-132.267c0-72.533-59.733-132.267-132.267-132.267zM750.933 674.133c-51.2 0-89.6-38.4-89.6-89.6s38.4-89.6 89.6-89.6 89.6 38.4 89.6 89.6-42.667 89.6-89.6 89.6z" />
<glyph unicode="&#xe92b;" glyph-name="untitled4" d="M21.333 814.933v-733.867h981.333v733.867h-981.333zM123.733 145.067l170.667 264.533 93.867-132.267 128 221.867 217.6-354.133h-610.133zM938.667 145.067h-149.333l-273.067 439.467-132.267-230.4-98.133 132.267-200.533-320v584.533h853.333v-605.867z" />
<glyph unicode="&#xe92c;" glyph-name="widget-leftarrow" d="M474.88 21.333c-15.921 0.34-30.009 7.896-39.171 19.518l-414.376 404.589 414.293 414.293c12.176 9.32 27.619 14.935 44.373 14.935s32.197-5.614 44.55-15.065c9.144-12.047 14.758-27.489 14.758-44.244s-5.614-32.197-15.065-44.55l-325.417-325.37 325.547-325.547c9.32-12.176 14.935-27.619 14.935-44.373s-5.614-32.197-15.065-44.55c-11.843-6.244-26.063-10.016-41.165-10.016-2.887 0-5.741 0.138-8.557 0.407zM938.667 21.333c-15.921 0.34-30.009 7.896-39.171 19.518l-414.376 404.589 414.293 414.293c12.176 9.32 27.619 14.935 44.373 14.935s32.197-5.614 44.55-15.065c9.144-12.047 14.758-27.489 14.758-44.244s-5.614-32.197-15.065-44.55l-325.417-325.37 325.547-325.547c9.32-12.176 14.935-27.619 14.935-44.373s-5.614-32.197-15.065-44.55c-11.843-6.244-26.063-10.016-41.165-10.016-2.887 0-5.741 0.138-8.557 0.407z" />
<glyph unicode="&#xe92d;" glyph-name="widget-line" d="M46.128 912.616l-3.017-3.017c14.996 14.996 39.31 14.996 54.306 0l874.323-874.323c14.996-14.996 14.996-39.31 0-54.306l3.017 3.017c-14.996-14.996-39.31-14.996-54.306 0l-874.323 874.323c-14.996 14.996-14.996 39.31 0 54.306z" />
<glyph unicode="&#xe92e;" glyph-name="untitled5" d="M512-42.667l-29.867 59.733c-25.6 51.2-256 494.933-256 640 0 157.867 128 285.867 285.867 285.867s285.867-128 285.867-285.867c0-140.8-226.133-588.8-256-640l-29.867-59.733zM512 870.4c-119.467 0-217.6-98.133-217.6-217.6 0-93.867 136.533-388.267 217.6-550.4 81.067 162.133 217.6 456.533 217.6 550.4 0 119.467-98.133 217.6-217.6 217.6z" />
<glyph unicode="&#xe92f;" glyph-name="untitled6" d="M512 499.2c-85.333 0-157.867 72.533-157.867 157.867s72.533 157.867 157.867 157.867 157.867-72.533 157.867-157.867-72.533-157.867-157.867-157.867zM512 746.667c-51.2 0-89.6-42.667-89.6-89.6s42.667-89.6 89.6-89.6 89.6 42.667 89.6 89.6-38.4 89.6-89.6 89.6z" />
<glyph unicode="&#xe930;" glyph-name="widget-map" d="M95.977 794.856c21.884 76.825 56.353 115.238 103.408 115.238s147.4 0 301.038 0h68.667l-68.667-57.619 129.077-74.899v74.899l117.725-55.238c18.285-8.58 26.153-30.358 17.573-48.643-1.21-2.579-2.718-5.008-4.492-7.238l-117.645-147.835c-7.921-9.953-20.445-15.076-33.071-13.526-85.197 10.457-121.586-19.085-109.167-88.623 26.765 5.695 44.349 5.695 52.751 0 17.993-12.195-6.887-19.606 18.232-44.821 11.82-11.865 46.803-36.671 104.95-74.417l48.166 38.656c14.223 11.415 34.683 10.606 47.961-1.896l144.041-135.625c14.4-13.559 15.411-36.11 2.281-50.903l-77.625-87.456-251.292-198.91 103.736 217.051c6.281 13.143 4.164 28.761-5.39 39.757l-56.461 64.981c-10.98 12.637-11.978 31.116-2.422 44.862l32.436 46.658-161.363 117.96c-131.046 81.886-202.758 148.012-215.138 198.377s-12.38 80.424 0 90.175l-85.9 96.654-103.408-57.619z" />
<glyph unicode="&#xe931;" glyph-name="widget-rectangle" d="M1002.667 64h-981.333v768h981.333v-768zM89.6 132.267h840.533v631.467h-840.533v-631.467z" />
<glyph unicode="&#xe932;" glyph-name="widget-rightarrow" d="M544.427 17.067c-16.13 0.379-30.383 8.1-39.593 19.937-9.474 12.417-15.128 28.006-15.128 44.916s5.653 32.499 15.173 44.981l318.588 318.539-318.72 328.96c-9.387 12.301-15.041 27.89-15.041 44.8s5.653 32.499 15.173 44.981c12.169 9.207 27.758 14.86 44.668 14.86s32.499-5.653 44.981-15.173l408.139-418.428-418.56-418.56c-9.813-9.813-19.627-9.813-39.68-9.813zM75.093 17.067c-16.13 0.379-30.383 8.1-39.593 19.937-9.474 12.417-15.128 28.006-15.128 44.916s5.653 32.499 15.173 44.981l318.588 318.539-317.867 328.96c-9.387 12.301-15.041 27.89-15.041 44.8s5.653 32.499 15.173 44.981c12.169 9.207 27.758 14.86 44.668 14.86s32.499-5.653 44.981-15.173l408.139-418.428-418.133-418.56c-10.24-9.813-20.053-9.813-40.107-9.813z" />
<glyph unicode="&#xe933;" glyph-name="widget-textbox" d="M593.067 238.933h-328.533l-38.4-89.6c-12.8-29.867-17.067-55.467-17.067-72.533 0-25.6 8.533-46.933 29.867-55.467 12.8-8.533 42.667-12.8 89.6-17.067v-25.6h-307.2v25.6c34.133 4.267 59.733 17.067 81.067 42.667 21.333 21.333 46.933 68.267 81.067 140.8l328.533 733.867h12.8l332.8-759.467c29.867-72.533 59.733-115.2 76.8-136.533 17.067-12.8 38.4-21.333 64-25.6v-25.6h-443.733v25.6h17.067c34.133 0 59.733 4.267 76.8 17.067 8.533 8.533 17.067 17.067 17.067 29.867 0 8.533 0 17.067-4.267 25.6 0 4.267-8.533 21.333-21.333 51.2l-46.933 115.2zM567.467 290.133l-136.533 320-140.8-320h277.333z" />
<glyph unicode="&#xe934;" glyph-name="untitled7" d="M21.333 4.267l307.2 640 128-149.333 170.667 243.2 140.8-128 234.667 285.867v-896z" />
<glyph unicode="&#xe935;" glyph-name="untitled8" d="M21.333 4.267l332.8 396.8 102.4-106.667 187.733 251.733 136.533-106.667 221.867 256v-695.467z" />
<glyph unicode="&#xe936;" glyph-name="untitled9" d="M145.067 4.267l209.067 179.2 106.667-85.333 192 204.8 132.267-81.067 217.6 238.933v-460.8z" />
<glyph unicode="&#xe937;" glyph-name="untitled10" d="M510.579 940.087v-162.133h-490.667v162.133h490.667z" />
<glyph unicode="&#xe938;" glyph-name="untitled11" d="M756.506 666.428v-162.133h-738.133v162.133h738.133z" />
<glyph unicode="&#xe939;" glyph-name="untitled12" d="M513.894 394.906v-162.133h-490.667v162.133h490.667z" />
<glyph unicode="&#xe93a;" glyph-name="untitled13" d="M1001.954 120.179v-162.133h-981.333v162.133h981.333z" />
<glyph unicode="&#xe93b;" glyph-name="untitled14" d="M230.4-38.4c-115.2 0-209.067 89.6-209.067 204.8s89.6 204.8 209.067 204.8c115.2 0 209.067-89.6 209.067-204.8 4.267-115.2-89.6-204.8-209.067-204.8zM230.4 320c-85.333 0-157.867-68.267-157.867-149.333s68.267-149.333 157.867-149.333 157.867 68.267 157.867 149.333c0 81.067-68.267 149.333-157.867 149.333z" />
<glyph unicode="&#xe93c;" glyph-name="untitled15" d="M742.4 12.8c-85.333 0-157.867 68.267-157.867 157.867s68.267 157.867 157.867 157.867 157.867-68.267 157.867-157.867-68.267-157.867-157.867-157.867zM742.4 268.8c-55.467 0-102.4-42.667-102.4-102.4s42.667-102.4 102.4-102.4c59.733 0 102.4 42.667 102.4 102.4s-42.667 102.4-102.4 102.4z" />
<glyph unicode="&#xe93d;" glyph-name="untitled16" d="M1002.667 576c0-87.187-70.679-157.867-157.867-157.867s-157.867 70.679-157.867 157.867c0 87.187 70.679 157.867 157.867 157.867s157.867-70.679 157.867-157.867z" />
<glyph unicode="&#xe93e;" glyph-name="untitled17" d="M593.067 704c0-127.246-103.154-230.4-230.4-230.4s-230.4 103.154-230.4 230.4c0 127.246 103.154 230.4 230.4 230.4s230.4-103.154 230.4-230.4z" />
<glyph unicode="&#xe93f;" glyph-name="untitled18" d="M174.933 657.067h-38.4v119.467h-55.467v-115.2h-42.667c-4.267 0-17.067-4.267-17.067-17.067v-550.4c0-12.8 12.8-17.067 17.067-17.067h42.667v-115.2h59.733v115.2h42.667c4.267 0 17.067 4.267 17.067 17.067v546.133c-4.267 12.8-17.067 17.067-25.6 17.067z" />
<glyph unicode="&#xe940;" glyph-name="untitled19" d="M699.733 669.867h-34.133v119.467h-59.733v-115.2h-42.667c-4.267 0-17.067-4.267-17.067-17.067v-302.933c0-12.8 12.8-17.067 17.067-17.067h42.667v-115.2h59.733v115.2h42.667c4.267 0 17.067 4.267 17.067 17.067v298.667c-4.267 12.8-12.8 17.067-25.6 17.067z" />
<glyph unicode="&#xe941;" glyph-name="untitled20" d="M435.2 477.867h-34.133v115.2h-59.733v-115.2h-42.667c-4.267 0-17.067-4.267-17.067-17.067v-302.933c0-12.8 12.8-17.067 17.067-17.067h42.667v-119.467h59.733v115.2h42.667c4.267 0 17.067 4.267 17.067 17.067v302.933c0 12.8-12.8 21.333-25.6 21.333z" />
<glyph unicode="&#xe942;" glyph-name="untitled21" d="M981.333 823.467h-34.133v115.2h-59.733v-115.2h-42.667c-4.267 0-17.067-4.267-17.067-17.067v-550.4c0-12.8 12.8-17.067 17.067-17.067h42.667v-115.2h59.733v115.2h42.667c4.267 0 17.067 4.267 17.067 17.067v550.4c-4.267 8.533-17.067 17.067-25.6 17.067z" />
<glyph unicode="&#xe943;" glyph-name="untitled22" d="M21.333 448h162.133v-490.667h-162.133v490.667z" />
<glyph unicode="&#xe944;" glyph-name="untitled23" d="M294.4 691.2h162.133v-738.133h-162.133v738.133z" />
<glyph unicode="&#xe945;" glyph-name="untitled24" d="M567.467 448h162.133v-490.667h-162.133v490.667z" />
<glyph unicode="&#xe946;" glyph-name="untitled25" d="M840.533 938.667h162.133v-981.333h-162.133v981.333z" />
<glyph unicode="&#xe947;" glyph-name="untitled26" d="M546.133 665.6c106.667-17.067 187.733-106.667 187.733-217.6 0-46.933-12.8-85.333-38.4-119.467l192-192c72.533 85.333 115.2 196.267 115.2 315.733 0 260.267-200.533 469.333-456.533 490.667v-277.333z" />
<glyph unicode="&#xe948;" glyph-name="untitled27" d="M648.533 277.333c-38.4-29.867-85.333-46.933-136.533-46.933-119.467 0-221.867 98.133-221.867 221.867 0 110.933 81.067 200.533 187.733 217.6v268.8c-256-17.067-456.533-230.4-456.533-490.667 0-268.8 221.867-490.667 490.667-490.667 128 0 243.2 46.933 328.533 128l-192 192z" />
<glyph unicode="&#xe949;" glyph-name="untitled28" d="M448 460.8l115.2-38.4c0-4.267 0-8.533 0-12.8 0-34.133 21.333-59.733 51.2-68.267v-110.933h-51.2v-46.933h149.333v46.933h-51.2v110.933c21.333 8.533 38.4 25.6 46.933 51.2l149.333-17.067 4.267 21.333-149.333 21.333c0 29.867-21.333 55.467-46.933 64v136.533h51.2v51.2h-149.333v-51.2h51.2v-140.8c-17.067-4.267-29.867-17.067-38.4-34.133l-115.2 38.4z" />
<glyph unicode="&#xe94a;" glyph-name="untitled29" d="M311.467 486.4l-153.6-51.2c-8.533 17.067-21.333 29.867-38.4 34.133v247.467h51.2v51.2h-149.333v-46.933h46.933v-251.733c-29.867-8.533-46.933-38.4-46.933-68.267s21.333-59.733 46.933-68.267v-251.733h-46.933v-51.2h149.333v51.2h-51.2v251.733c29.867 8.533 51.2 34.133 51.2 64 0 4.267 0 8.533 0 12.8l153.6 51.2z" />
<glyph unicode="&#xe94b;" glyph-name="untitled30" d="M857.6 371.2c0-29.867 21.333-59.733 46.933-68.267v-273.067h-51.2v-46.933h149.333v46.933h-46.933v273.067c29.867 8.533 46.933 38.4 46.933 68.267 0 34.133-21.333 59.733-46.933 68.267v277.333h46.933v51.2h-149.333v-51.2h51.2v-273.067c-21.333-8.533-38.4-25.6-46.933-51.2z" />
<glyph unicode="&#xe94c;" glyph-name="untitled31" d="M320 460.8c8.533-17.067 25.6-29.867 42.667-34.133v-298.667h-46.933v-46.933h149.333v46.933h-51.2v298.667c12.8 4.267 25.6 17.067 34.133 29.867l8.533 25.6c0 4.267 0 8.533 0 12.8 0 29.867-17.067 55.467-42.667 68.267v298.667h51.2v51.2h-149.333v-46.933h51.2v-298.667c-29.867-8.533-55.467-38.4-55.467-72.533 0-4.267 0-8.533 0-8.533l8.533-25.6z" />
<glyph unicode="&#xe94d;" glyph-name="untitled32" d="M558.933 524.8l362.667-311.467c51.2 72.533 81.067 162.133 81.067 260.267 0 247.467-200.533 448-443.733 452.267v-401.067z" />
<glyph unicode="&#xe94e;" glyph-name="untitled33" d="M486.4 490.667v384c-4.267 0-8.533 0-12.8 0-247.467 4.267-452.267-200.533-452.267-448 0-251.733 204.8-452.267 452.267-452.267 157.867 0 298.667 81.067 379.733 204.8l-366.933 311.467z" />
<glyph unicode="&#xe94f;" glyph-name="untitled34" d="M968.533 883.2c12.8 25.6-4.267 55.467-29.867 55.467h-853.333c-29.867 0-42.667-29.867-29.867-55.467l119.467-192h674.133l119.467 192z" />
<glyph unicode="&#xe950;" glyph-name="untitled35" d="M849.067 691.2h-674.133l153.6-243.2h366.933z" />
<glyph unicode="&#xe951;" glyph-name="untitled36" d="M669.867 405.333l25.6 42.667h-366.933l25.6-42.667v-204.8h315.733z" />
<glyph unicode="&#xe952;" glyph-name="untitled37" d="M669.867-8.533v209.067h-315.733v-209.067c0-21.333 17.067-34.133 34.133-34.133h243.2c21.333 0 38.4 17.067 38.4 34.133z" />
<glyph unicode="&#xe953;" glyph-name="line-chart" d="M72.533 136.533l-51.2 46.933 452.267 529.067 140.8-388.267 332.8 435.2 55.467-42.667-409.6-533.333-140.8 392.533z" />
<glyph unicode="&#xe954;" glyph-name="untitled38" d="M166.4 64l-51.2 17.067 162.133 426.667c8.533 25.6 34.133 42.667 59.733 42.667s51.2-12.8 59.733-38.4l119.467-256c4.267-8.533 8.533-8.533 12.8-8.533s8.533 0 12.8 8.533l145.067 473.6c8.533 25.6 29.867 46.933 59.733 46.933 25.6 0 51.2-17.067 64-42.667l145.067-388.267-51.2-17.067-145.067 388.267c-4.267 8.533-8.533 8.533-12.8 8.533s-8.533 0-12.8-8.533l-145.067-473.6c-8.533-25.6-29.867-42.667-59.733-46.933-25.6 0-51.2 12.8-64 38.4l-119.467 256c-4.267 8.533-8.533 8.533-12.8 8.533s-8.533 0-12.8-8.533l-153.6-426.667z" />
<glyph unicode="&#xe955;" glyph-name="untitled39" d="M652.8 238.933c0-56.554-45.846-102.4-102.4-102.4s-102.4 45.846-102.4 102.4c0 56.554 45.846 102.4 102.4 102.4s102.4-45.846 102.4-102.4z" />
<glyph unicode="&#xe956;" glyph-name="untitled40" d="M857.6 772.267c0-56.554-45.846-102.4-102.4-102.4s-102.4 45.846-102.4 102.4c0 56.554 45.846 102.4 102.4 102.4s102.4-45.846 102.4-102.4z" />
<glyph unicode="&#xe957;" glyph-name="untitled41" d="M443.733 533.333c0-56.554-45.846-102.4-102.4-102.4s-102.4 45.846-102.4 102.4c0 56.554 45.846 102.4 102.4 102.4s102.4-45.846 102.4-102.4z" />
<glyph unicode="&#xe958;" glyph-name="untitled42" d="M1002.667 413.867c0-56.554-45.846-102.4-102.4-102.4s-102.4 45.846-102.4 102.4c0 56.554 45.846 102.4 102.4 102.4s102.4-45.846 102.4-102.4z" />
<glyph unicode="&#xe959;" glyph-name="untitled43" d="M226.133 123.733c0-56.554-45.846-102.4-102.4-102.4s-102.4 45.846-102.4 102.4c0 56.554 45.846 102.4 102.4 102.4s102.4-45.846 102.4-102.4z" />
<glyph unicode="&#xe95a;" glyph-name="untitled44" d="M512 938.667c-273.067 0-490.667-217.6-490.667-490.667 0-136.533 55.467-256 145.067-345.6l345.6 345.6v490.667z" />
<glyph unicode="&#xe95b;" glyph-name="untitled45" d="M512 448l-345.6-345.6c89.6-89.6 213.333-145.067 345.6-145.067 136.533 0 260.267 55.467 345.6 145.067l-345.6 345.6z" />
<glyph unicode="&#xe95c;" glyph-name="untitled46" d="M857.6 793.6c-76.8 81.067-183.467 132.267-302.933 140.8-12.8 0-29.867 4.267-42.667 4.267v-490.667l345.6-345.6c17.067 17.067 29.867 34.133 42.667 51.2 64 81.067 98.133 183.467 98.133 294.4 4.267 136.533-51.2 260.267-140.8 345.6z" />
<glyph unicode="&#xe95d;" glyph-name="untitled47" d="M955.733 375.467h-443.733v-302.933l221.867 81.067 25.6-21.333 98.133-102.4 145.067 345.6z" />
<glyph unicode="&#xe95e;" glyph-name="untitled48" d="M243.2 375.467h-221.867l145.067-345.6 34.133 34.133 64 68.267 247.467 243.2-196.267 196.267z" />
<glyph unicode="&#xe95f;" glyph-name="untitled49" d="M832 686.933l25.6 29.867-345.6 149.333v-490.667l247.467 243.2z" />
<glyph unicode="&#xe960;" glyph-name="untitled50" d="M759.467 618.667l-247.467-243.2h345.6z" />
<glyph unicode="&#xe961;" glyph-name="untitled51" d="M512 29.867v345.6l-247.467-243.2z" />
<glyph unicode="&#xe962;" glyph-name="untitled52" d="M512 725.333l-247.467-102.4 247.467-247.467z" />
<glyph unicode="&#xe963;" glyph-name="untitled53" d="M516.267 938.667l-162.133-328.533h324.267l-162.133 328.533z" />
<glyph unicode="&#xe964;" glyph-name="untitled54" d="M1006.933-42.667l-162.133 328.533h-657.067l-162.133-328.533h981.333z" />
<glyph unicode="&#xe965;" glyph-name="untitled55" d="M678.4 610.133h-324.267l-166.4-324.267h657.067l-166.4 324.267z" />
<glyph unicode="&#xe966;" glyph-name="untitled56" d="M512 426.667l247.467-247.467z" />
<glyph unicode="&#xe967;" glyph-name="untitled57" d="M512 76.8c93.867 0 183.467 38.4 247.467 102.4l-247.467 247.467v-349.867z" />
<glyph unicode="&#xe968;" glyph-name="untitled58" d="M166.4 426.667h345.6l-247.467 243.2c-59.733-59.733-98.133-149.333-98.133-243.2z" />
<glyph unicode="&#xe969;" glyph-name="untitled59" d="M200.533 110.933c81.067-81.067 192-132.267 311.467-132.267v98.133c-93.867 0-183.467 38.4-247.467 102.4l-64-68.267z" />
<glyph unicode="&#xe96a;" glyph-name="untitled60" d="M512 870.4c-119.467 0-234.667-51.2-315.733-128l72.533-72.533c59.733 64 149.333 102.4 243.2 102.4v98.133z" />
<glyph unicode="&#xe96b;" glyph-name="untitled61" d="M832 738.133l-72.533-68.267c59.733-64 98.133-149.333 98.133-243.2h98.133c0 119.467-46.933 230.4-123.733 311.467z" />
<glyph unicode="&#xe96c;" glyph-name="untitled62" d="M955.733 426.667h-443.733l349.867-349.867c89.6 89.6 145.067 213.333 145.067 345.6h-51.2z" />
<glyph unicode="&#xe96d;" glyph-name="untitled63" d="M512 917.333v-490.667l247.467 243.2 72.533 68.267 29.867 25.6c-85.333 93.867-213.333 153.6-349.867 153.6z" />
<glyph unicode="&#xe96e;" glyph-name="untitled64" d="M166.4 426.667h-145.067c0-136.533 51.2-256 145.067-345.6l349.867 349.867h-349.867z" />
<glyph unicode="&#xe96f;" glyph-name="untitled65" d="M494.933 59.733l209.067 533.333c12.8 34.133 59.733 34.133 72.533 0l221.867-533.333h-503.467z" />
<glyph unicode="&#xe970;" glyph-name="untitled66" d="M260.267 59.733l226.133 763.733c4.267 21.333 34.133 21.333 42.667 0l238.933-763.733h-507.733z" />
<glyph unicode="&#xe971;" glyph-name="untitled67" d="M21.333 59.733l221.867 260.267c12.8 17.067 38.4 17.067 55.467 0l230.4-260.267h-507.733z" />
<glyph unicode="&#xe972;" glyph-name="untitled68" d="M21.333 746.667h162.133v-789.333h-162.133v789.333z" />
<glyph unicode="&#xe973;" glyph-name="untitled69" d="M294.4 622.933h162.133v-422.4h-162.133v422.4z" />
<glyph unicode="&#xe974;" glyph-name="untitled70" d="M567.467 938.667h162.133v-631.467h-162.133v631.467z" />
<glyph unicode="&#xe975;" glyph-name="untitled71" d="M840.533 448h162.133v-490.667h-162.133v490.667z" />
<glyph unicode="&#xe976;" glyph-name="untitled72" d="M482.133 132.267c59.733 0 110.933 46.933 110.933 106.667 0 0 0 0 0 0 0 59.733-51.2 106.667-110.933 110.933-59.733 0-106.667-51.2-110.933-110.933 4.267-59.733 51.2-106.667 110.933-106.667v0zM482.133 294.4c25.6 0 51.2-21.333 51.2-51.2s-21.333-51.2-51.2-51.2-51.2 21.333-51.2 51.2c4.267 29.867 25.6 51.2 51.2 51.2 0 0 0 0 0 0z" />
<glyph unicode="&#xe977;" glyph-name="untitled73" d="M891.733 712.533c59.733 0 110.933 46.933 110.933 110.933v0c0 59.733-46.933 110.933-110.933 110.933s-110.933-46.933-110.933-110.933c4.267-64 51.2-110.933 110.933-110.933 0 0 0 0 0 0zM891.733 874.667c25.6 0 51.2-21.333 51.2-51.2s-21.333-51.2-51.2-51.2c-25.6 0-51.2 21.333-51.2 51.2s25.6 51.2 51.2 51.2z" />
<glyph unicode="&#xe978;" glyph-name="untitled74" d="M132.267 640c59.733 0 110.933 46.933 110.933 106.667s-51.2 106.667-110.933 110.933c-59.733 0-110.933-51.2-110.933-110.933s51.2-106.667 110.933-106.667zM132.267 802.133c25.6 0 51.2-21.333 51.2-51.2s-25.6-51.2-51.2-51.2-51.2 25.6-51.2 51.2c0 25.6 21.333 51.2 51.2 51.2v0z" />
<glyph unicode="&#xe979;" glyph-name="untitled75" d="M759.467-34.133c59.733 0 110.933 46.933 110.933 110.933v0c0 59.733-46.933 110.933-110.933 110.933-59.733 0-110.933-46.933-110.933-110.933 4.267-64 51.2-110.933 110.933-110.933 0 0 0 0 0 0zM759.467 132.267c25.6 0 51.2-21.333 51.2-51.2 0-25.6-21.333-51.2-51.2-51.2-25.6 0-51.2 21.333-51.2 51.2s25.6 51.2 51.2 51.2z" />
<glyph unicode="&#xe97a;" glyph-name="untitled76" d="M981.333 349.867c0-61.267-49.667-110.933-110.933-110.933s-110.933 49.667-110.933 110.933c0 61.267 49.667 110.933 110.933 110.933s110.933-49.667 110.933-110.933z" />
<glyph unicode="&#xe97b;" glyph-name="untitled77" d="M648.533 571.733c0-61.267-49.667-110.933-110.933-110.933s-110.933 49.667-110.933 110.933c0 61.267 49.667 110.933 110.933 110.933s110.933-49.667 110.933-110.933z" />
<glyph unicode="&#xe97c;" glyph-name="untitled78" d="M324.267 81.067c0-61.267-49.667-110.933-110.933-110.933s-110.933 49.667-110.933 110.933c0 61.267 49.667 110.933 110.933 110.933s110.933-49.667 110.933-110.933z" />
<glyph unicode="&#xe97d;" glyph-name="untitled79" d="M21.333 93.867l315.733 375.467c21.333 25.6 68.267 21.333 81.067-8.533v0c17.067-34.133 64-38.4 85.333-4.267l115.2 170.667c21.333 29.867 64 29.867 85.333 0l8.533-17.067c21.333-29.867 64-29.867 85.333 0l115.2 170.667c25.6 42.667 89.6 21.333 89.6-29.867v-661.333l-981.333 4.267z" />
<glyph unicode="&#xe97e;" glyph-name="untitled80" d="M145.067 93.867l157.867 140.8c29.867 25.6 68.267 25.6 98.133 0v0c29.867-25.6 76.8-21.333 106.667 8.533l110.933 119.467c17.067 21.333 46.933 29.867 76.8 21.333l51.2-12.8c29.867-8.533 64 4.267 81.067 29.867l34.133 51.2c42.667 64 140.8 34.133 140.8-42.667v-320l-857.6 4.267z" />
<glyph unicode="&#xe97f;" glyph-name="smooth-line-chart" d="M85.333 251.733c-38.4 0-59.733 8.533-64 8.533l25.6 81.067c4.267 0 132.267-34.133 234.667 110.933 12.8 21.333 132.267 213.333 268.8 174.933 21.333-4.267 128-29.867 200.533-174.933 12.8-29.867 42.667-59.733 55.467-59.733 8.533 0 29.867 17.067 55.467 85.333l64 162.133 76.8-29.867-64-157.867c-12.8-34.133-51.2-136.533-132.267-140.8-76.8-4.267-128 89.6-136.533 106.667-59.733 115.2-136.533 128-140.8 132.267h-4.267c-55.467 12.8-140.8-89.6-174.933-140.8-89.6-132.267-196.267-157.867-264.533-157.867z" />
<glyph unicode="&#xe980;" glyph-name="untitled81" d="M166.4 264.533c-29.867 0-51.2 4.267-55.467 8.533l21.333 68.267c4.267 0 110.933-29.867 196.267 93.867 8.533 17.067 110.933 174.933 221.867 149.333 17.067-4.267 106.667-25.6 166.4-145.067 12.8-25.6 34.133-51.2 46.933-51.2 8.533 0 25.6 17.067 46.933 72.533l55.467 136.533 64-25.6-55.467-136.533c-8.533-25.6-42.667-115.2-106.667-115.2-64-4.267-106.667 72.533-115.2 89.6-51.2 98.133-115.2 106.667-115.2 110.933h-4.267c-51.2 12.8-119.467-72.533-149.333-119.467-72.533-115.2-162.133-136.533-217.6-136.533z" />
<glyph unicode="&#xe981;" glyph-name="untitled82" d="M226.133 320c0-56.554-45.846-102.4-102.4-102.4s-102.4 45.846-102.4 102.4c0 56.554 45.846 102.4 102.4 102.4s102.4-45.846 102.4-102.4z" />
<glyph unicode="&#xe982;" glyph-name="untitled83" d="M614.4 558.933c0-56.554-45.846-102.4-102.4-102.4s-102.4 45.846-102.4 102.4c0 56.554 45.846 102.4 102.4 102.4s102.4-45.846 102.4-102.4z" />
<glyph unicode="&#xe983;" glyph-name="untitled84" d="M1002.667 576c0-56.554-45.846-102.4-102.4-102.4s-102.4 45.846-102.4 102.4c0 56.554 45.846 102.4 102.4 102.4s102.4-45.846 102.4-102.4z" />
<glyph unicode="&#xe984;" glyph-name="untitled85" d="M21.333 4.267l332.8 550.4 102.4-136.533 166.4 294.4 166.4-157.867 213.333 341.333v-896z" />
<glyph unicode="&#xe985;" glyph-name="untitled86" d="M21.333 4.267l332.8 396.8 102.4-106.667 187.733 251.733 136.533-106.667 221.867 256v-695.467z" />
<glyph unicode="&#xe986;" glyph-name="untitled87" d="M145.067 4.267l209.067 179.2 106.667-85.333 192 204.8 132.267-81.067 217.6 238.933v-460.8z" />
<glyph unicode="&#xe987;" glyph-name="untitled88" d="M21.333 861.867h981.333v-827.733h-981.333v827.733z" />
<glyph unicode="&#xe988;" glyph-name="untitled89" d="M21.333 38.4l362.667 430.933 72.533-140.8 204.8 302.933 93.867-140.8 247.467 371.2v-827.733z" />
<glyph unicode="&#xe989;" glyph-name="untitled90" d="M145.067 38.4l209.067 179.2 106.667-85.333 192 209.067 145.067-38.4 204.8 302.933v-571.733z" />
<glyph unicode="&#xe98a;" glyph-name="untitled91" d="M960.713 937.954v-162.133h-896v162.133h896z" />
<glyph unicode="&#xe98b;" glyph-name="untitled92" d="M695.637 665.297v-162.133h-631.467v162.133h631.467z" />
<glyph unicode="&#xe98c;" glyph-name="untitled93" d="M906.974 395.447v-162.133h-840.533v162.133h840.533z" />
<glyph unicode="&#xe98d;" glyph-name="untitled94" d="M763.87 121.024v-162.133h-699.733v162.133h699.733z" />
<glyph unicode="&#xe98e;" glyph-name="untitled95" d="M553.485 940.326v-162.133h-490.667v162.133h490.667z" />
<glyph unicode="&#xe98f;" glyph-name="untitled96" d="M449.237 666.364v-162.133h-384v162.133h384z" />
<glyph unicode="&#xe990;" glyph-name="untitled97" d="M625.984 391.791v-162.133h-558.933v162.133h558.933z" />
<glyph unicode="&#xe991;" glyph-name="untitled98" d="M422.17 120.657v-162.133h-358.4v162.133h358.4z" />
<glyph unicode="&#xe992;" glyph-name="untitled99" d="M1001.954 120.179v-162.133h-981.333v162.133h981.333z" />
<glyph unicode="&#xe993;" glyph-name="untitled100" d="M1002.428 392.772v-162.133h-981.333v162.133h981.333z" />
<glyph unicode="&#xe994;" glyph-name="untitled101" d="M1002.906 665.361v-162.133h-981.333v162.133h981.333z" />
<glyph unicode="&#xe995;" glyph-name="untitled102" d="M1003.379 937.954v-162.133h-981.333v162.133h981.333z" />
<glyph unicode="&#xe996;" glyph-name="untitled103" d="M510.579 940.087v-162.133h-490.667v162.133h490.667z" />
<glyph unicode="&#xe997;" glyph-name="untitled104" d="M756.506 666.428v-162.133h-738.133v162.133h738.133z" />
<glyph unicode="&#xe998;" glyph-name="untitled105" d="M513.894 394.906v-162.133h-490.667v162.133h490.667z" />
<glyph unicode="&#xe999;" glyph-name="untitled106" d="M694.844 120.265v-162.133h-674.133v162.133h674.133z" />
<glyph unicode="&#xe99a;" glyph-name="untitled107" d="M21.333 896h162.133v-896h-162.133v896z" />
<glyph unicode="&#xe99b;" glyph-name="untitled108" d="M294.4 631.467h162.133v-631.467h-162.133v631.467z" />
<glyph unicode="&#xe99c;" glyph-name="untitled109" d="M567.467 840.533h162.133v-840.533h-162.133v840.533z" />
<glyph unicode="&#xe99d;" glyph-name="untitled110" d="M840.533 699.733h162.133v-699.733h-162.133v699.733z" />
<glyph unicode="&#xe99e;" glyph-name="untitled111" d="M21.333 490.667h162.133v-490.667h-162.133v490.667z" />
<glyph unicode="&#xe99f;" glyph-name="untitled112" d="M294.4 384h162.133v-384h-162.133v384z" />
<glyph unicode="&#xe9a0;" glyph-name="untitled113" d="M567.467 558.933h162.133v-558.933h-162.133v558.933z" />
<glyph unicode="&#xe9a1;" glyph-name="untitled114" d="M840.533 358.4h162.133v-358.4h-162.133v358.4z" />
<glyph unicode="&#xe9a2;" glyph-name="untitled115" d="M840.533 938.667h162.133v-981.333h-162.133v981.333z" />
<glyph unicode="&#xe9a3;" glyph-name="untitled116" d="M567.467 938.667h162.133v-981.333h-162.133v981.333z" />
<glyph unicode="&#xe9a4;" glyph-name="untitled117" d="M294.4 938.667h162.133v-981.333h-162.133v981.333z" />
<glyph unicode="&#xe9a5;" glyph-name="untitled118" d="M21.333 938.667h162.133v-981.333h-162.133v981.333z" />
<glyph unicode="&#xe9a6;" glyph-name="untitled119" d="M21.333 448h162.133v-490.667h-162.133v490.667z" />
<glyph unicode="&#xe9a7;" glyph-name="untitled120" d="M294.4 691.2h162.133v-738.133h-162.133v738.133z" />
<glyph unicode="&#xe9a8;" glyph-name="untitled121" d="M567.467 448h162.133v-490.667h-162.133v490.667z" />
<glyph unicode="&#xe9a9;" glyph-name="untitled122" d="M840.533 631.467h162.133v-674.133h-162.133v674.133z" />
<glyph unicode="&#xe9aa;" glyph-name="untitled123" d="M806.4 938.667v-196.267h-341.333v-341.333h-443.733v-98.133h541.867v341.333h341.333v294.4z" />
<glyph unicode="&#xe9ab;" glyph-name="untitled124" d="M759.467 401.067v-345.6h-490.667v785.067h-247.467v-98.133h149.333v-785.067h682.667v345.6h149.333v98.133z" />
<glyph unicode="&#xe9ac;" glyph-name="stock-range-chart" d="M157.867 874.667v0c0 12.8-8.533 21.333-21.333 21.333h-25.6c-12.8 0-21.333-4.267-21.333-21.333v-115.2h-68.267v-68.267h68.267v-669.867c0-12.8 8.533-21.333 21.333-21.333h25.6c12.8 0 21.333 8.533 21.333 21.333v115.2h68.267v68.267h-68.267v669.867zM405.333 669.867v0c0 12.8-8.533 21.333-21.333 21.333h-29.867c-12.8-4.267-17.067-8.533-17.067-21.333v-51.2h-68.267v-68.267h68.267v-320c0-12.8 8.533-21.333 21.333-21.333h25.6c12.8 0 21.333 8.533 21.333 21.333v46.933h68.267v68.267h-68.267v324.267zM686.933 580.267v0c0 12.8-8.533 21.333-21.333 21.333h-25.6c-12.8 0-21.333-8.533-21.333-21.333v-102.4h-68.267v-68.267h68.267v-328.533c0-12.8 8.533-21.333 21.333-21.333h25.6c12.8 0 21.333 8.533 21.333 21.333v55.467h68.267v68.267h-68.267v375.467zM934.4 853.333v0c0 12.8-8.533 21.333-21.333 21.333h-25.6c-12.8 0-21.333-8.533-21.333-21.333v-115.2h-68.267v-68.267h68.267v-648.533c0-12.8 8.533-21.333 21.333-21.333h25.6c12.8 0 21.333 8.533 21.333 21.333v115.2h68.267v68.267h-68.267v648.533z" />
<glyph unicode="&#xe9ad;" glyph-name="dataset-boolean" d="M276.48 561.92c-5.509 4.647-12.644 7.523-20.447 7.679-0.179 0.003-0.352 0.004-0.524 0.004-8.113 0-15.547-2.903-21.322-7.727-7.238-7.149-12.397-16.484-14.402-26.94-4.319-21.74-6.762-46.363-6.762-71.556 0-5.409 0.113-10.792 0.336-16.146-0.261-4.204-0.395-10.028-0.395-15.883 0-24.286 2.308-48.033 6.718-71.034 1.919-9.554 7.519-19.886 15.422-27.954 5.778-4.655 13.221-7.478 21.323-7.478s15.545 2.823 21.399 7.539c7.31 7.999 12.155 18.475 13.148 30.052 4.971 23.021 7.811 49.248 7.811 76.139 0 3.3-0.043 6.59-0.128 9.869 0.238 4.421 0.368 10.173 0.368 15.955 0 24.359-2.304 48.18-6.706 71.257-2.412 8.919-8.090 18.613-15.83 26.216zM790.187 561.92c-5.67 4.787-13.060 7.697-21.131 7.697-0.371 0-0.741-0.006-1.11-0.018-0.092 0.004-0.265 0.005-0.437 0.005-8.113 0-15.547-2.903-21.322-7.727-7.238-7.149-12.397-16.484-14.402-26.94-4.319-21.74-6.762-46.363-6.762-71.556 0-5.409 0.113-10.792 0.336-16.146-0.261-4.204-0.395-10.028-0.395-15.883 0-24.286 2.308-48.033 6.718-71.034 1.919-9.554 7.519-19.886 15.422-27.954 5.778-4.655 13.221-7.478 21.323-7.478s15.545 2.823 21.399 7.539c7.248 7.126 12.413 16.468 14.391 26.937 4.376 21.66 6.852 46.192 6.852 71.302 0 6.098-0.146 12.161-0.435 18.187 0.26 4.055 0.39 9.807 0.39 15.588 0 24.359-2.304 48.18-6.706 71.257-1.91 8.778-7.020 18.475-14.171 26.268zM938.667 807.68h-853.333c-35.498-0.718-64-29.664-64-65.267 0-0.004 0-0.009 0-0.013v-588.799c0-0.004 0-0.008 0-0.013 0-35.603 28.502-64.549 63.933-65.266l853.4-0.001c35.498 0.718 64 29.664 64 65.267 0 0.004 0 0.009 0 0.013v588.799c0 0.004 0 0.008 0 0.013 0 35.603-28.502 64.549-63.933 65.266zM333.227 306.773c-17.425-21.704-43.955-35.479-73.703-35.479-1.239 0-2.473 0.024-3.7 0.071-0.645-0.030-1.611-0.044-2.581-0.044-31.762 0-60.030 14.959-78.143 38.217-20.807 33.99-33.029 74.855-33.029 118.574 0 7.001 0.313 13.929 0.927 20.771-0.59 4.929-0.89 11.688-0.89 18.517 0 45.006 13.025 86.969 35.51 122.327 16.875 20.583 43.288 34.22 72.886 34.22 1.934 0 3.854-0.058 5.759-0.173 1.062 0.079 2.613 0.117 4.173 0.117 29.956 0 56.65-13.969 73.922-35.749 21.351-34.191 33.921-75.469 33.921-119.684 0-7.203-0.334-14.327-0.986-21.36 0.6-4.96 0.904-11.776 0.904-18.663 0-45.094-13.027-87.146-35.524-122.597zM589.227 277.333h-66.56v250.027c-23.627-22.134-52.141-39.364-83.722-49.882l-1.612 59.695c21.605 7.929 40.267 18.761 56.648 32.262 18.7 13.522 33.4 32.205 42.049 53.95l54.050 0.827zM850.773 306.773c-17.425-21.736-43.974-35.534-73.746-35.534-1.674 0-3.339 0.044-4.992 0.13-0.59-0.034-1.557-0.048-2.527-0.048-31.762 0-60.030 14.959-78.143 38.217-22.209 34.837-35.298 77.023-35.298 122.265 0 5.699 0.208 11.35 0.616 16.945-0.57 5.063-0.87 11.822-0.87 18.651 0 45.006 13.025 86.969 35.51 122.327 16.875 20.536 43.259 34.139 72.82 34.139 1.356 0 2.705-0.029 4.047-0.085 1.132 0.073 2.683 0.111 4.243 0.111 29.956 0 56.65-13.969 73.922-35.749 22.279-34.739 35.424-76.882 35.424-122.096 0-6.352-0.259-12.643-0.768-18.863 0.587-5.044 0.891-11.86 0.891-18.747 0-45.094-13.027-87.146-35.524-122.597z" />
<glyph unicode="&#xe9ae;" glyph-name="dataset-bottomarrow" d="M933.973 522.24l-370.773-370.773v787.2h-102.4v-787.2l-371.2 370.773-68.267-74.24 490.667-490.667 490.667 490.667-68.693 74.24z" />
<glyph unicode="&#xe9af;" glyph-name="dataset-char" d="M938.667 807.68h-853.333c-35.498-0.718-64-29.664-64-65.267 0-0.004 0-0.009 0-0.013v-588.799c0-0.004 0-0.008 0-0.013 0-35.603 28.502-64.549 63.933-65.266l853.4-0.001c35.498 0.718 64 29.664 64 65.267 0 0.004 0 0.009 0 0.013v588.799c0 0.004 0 0.008 0 0.013 0 35.603-28.502 64.549-63.933 65.266zM589.653 260.267c-2.815 11.433-6.176 21.243-10.285 30.652l-2.088 10.735c-15.235-15.195-33.183-27.679-53.053-36.661-19.087-8.285-40.003-12.839-61.983-12.839-0.508 0-1.015 0.002-1.521 0.007-1.794-0.096-3.986-0.151-6.191-0.151-32.737 0-62.67 12.010-85.632 31.864-20.104 18.969-32.725 46.002-32.725 75.982 0 0.988 0.014 1.974 0.041 2.956-0.019 0.532-0.027 1.33-0.027 2.13 0 20.101 5.56 38.903 15.226 54.953 10.020 16.033 24.541 29.046 41.795 37.235 23.53 10.458 50.205 18.482 78.046 23.039 38.634 6.011 71.25 14.479 102.522 25.761l-3.752 7.351c0.252 1.916 0.396 4.132 0.396 6.381 0 14.147-5.691 26.966-14.907 36.291-12.778 8.044-28.325 12.82-44.987 12.82-3.088 0-6.138-0.164-9.141-0.484-1.091 0.14-2.799 0.201-4.522 0.201-13.997 0-27.052-4.036-38.063-11.008-11.187-9.11-19.708-21.636-23.9-36.008l-88.875 16.127c7.666 33.246 26.259 61.284 51.719 80.82 28.148 16.893 61.691 26.736 97.534 26.736 4.683 0 9.326-0.168 13.924-0.498 3.219 0.256 7.705 0.382 12.221 0.382 30.993 0 60.603-5.922 87.759-16.696 17.685-7.936 33.318-21.784 43.795-39.101 8.981-22.359 14.045-47.759 14.045-74.34 0-5.376-0.207-10.703-0.614-15.975l0.043-114.927c-0.096-3.289-0.151-7.158-0.151-11.040 0-22.009 1.762-43.607 5.151-64.66 3.8-16.731 9.831-33.551 17.745-49.258zM450.133 421.973c-7.731-4.811-12.8-13.262-12.8-22.898 0-0.050 0-0.1 0-0.15s-0.001-0.116-0.001-0.183c0-9.202 3.937-17.485 10.218-23.256 6.373-6.115 15.012-9.867 24.526-9.867 0.536 0 1.069 0.012 1.599 0.035 12.52 0.163 24.079 4.469 33.335 11.614 6.996 5.18 12.358 12.473 15.144 20.935 1.789 8.133 2.765 17.129 2.765 26.353 0 1.942-0.043 3.874-0.129 5.795l0.010 12.527c-10.048-3.255-23.233-6.648-36.661-9.374-15.818-2.432-27.738-6.314-38.685-11.844z" />
<glyph unicode="&#xe9b0;" glyph-name="dataset-column-deselect" d="M891.733 832c-12.8 12.8-38.4 12.8-51.2 0l-128-128c-157.867 68.267-324.267 51.2-486.4-51.2-119.467-76.8-192-179.2-196.267-183.467-8.533-12.8-8.533-29.867 0-42.667 68.267-85.333 140.8-149.333 213.333-196.267l-115.2-115.2c-12.8-12.8-12.8-38.4 0-51.2 8.533-8.533 17.067-8.533 25.6-8.533s17.067 4.267 25.6 8.533l712.533 716.8c17.067 12.8 17.067 34.133 0 51.2zM601.6 588.8l-38.4-38.4c-42.667 17.067-93.867 8.533-132.267-25.6-21.333-21.333-34.133-51.2-34.133-85.333 0-17.067 4.267-29.867 8.533-46.933l-110.933-110.933c-64 38.4-128 93.867-192 166.4 25.6 29.867 81.067 89.6 162.133 140.8 132.267 85.333 264.533 106.667 396.8 55.467l-59.733-55.467zM994.133 469.333c-46.933 64-98.133 115.2-153.6 153.6-17.067 12.8-38.4 8.533-51.2-4.267-12.8-17.067-8.533-38.4 4.267-51.2 42.667-34.133 81.067-72.533 123.733-119.467-25.6-25.6-68.267-76.8-132.267-123.733-119.467-89.6-243.2-119.467-362.667-93.867-21.333 4.267-38.4-8.533-42.667-29.867s8.533-38.4 29.867-42.667c29.867-8.533 64-8.533 93.867-8.533 46.933 0 93.867 8.533 140.8 21.333 64 21.333 123.733 51.2 183.467 93.867 102.4 72.533 162.133 153.6 162.133 157.867 17.067 17.067 17.067 34.133 4.267 46.933z" />
<glyph unicode="&#xe9b1;" glyph-name="dataset-column-select" d="M994.133 469.333c-149.333 183.467-307.2 277.333-473.6 277.333-285.867 0-486.4-268.8-490.667-277.333-8.533-12.8-8.533-29.867 0-42.667 149.333-183.467 307.2-277.333 473.6-277.333 285.867 0 482.133 264.533 490.667 277.333 12.8 12.8 12.8 29.867 0 42.667zM503.467 221.867c-140.8 0-277.333 76.8-405.333 230.4 51.2 59.733 213.333 226.133 418.133 226.133 140.8 0 277.333-76.8 405.333-230.4-46.933-59.733-209.067-226.133-418.133-226.133zM618.667 448c0-58.91-47.756-106.667-106.667-106.667s-106.667 47.756-106.667 106.667c0 58.91 47.756 106.667 106.667 106.667s106.667-47.756 106.667-106.667z" />
<glyph unicode="&#xe9b2;" glyph-name="dataset-datetime" d="M512 633.6c-102.504 0-185.6-83.096-185.6-185.6s83.096-185.6 185.6-185.6c102.504 0 185.6 83.096 185.6 185.6s-83.096 185.6-185.6 185.6zM625.92 382.293c-3.413-3.497-8.173-5.666-13.44-5.666s-10.027 2.169-13.436 5.662l-94.724 74.67c-0.067 0.576-0.106 1.244-0.106 1.92s0.038 1.344 0.113 2c-0.055 0.431-0.082 1.026-0.082 1.626s0.027 1.195 0.080 1.782l-0.006 85.258c0 10.486 8.501 18.987 18.987 18.987s18.987-8.501 18.987-18.987v0-65.28l88.32-70.827c3.497-3.413 5.666-8.173 5.666-13.44s-2.169-10.027-5.662-13.436zM938.667 807.68h-853.333c-35.498-0.718-64-29.664-64-65.267 0-0.004 0-0.009 0-0.013v-588.799c0-0.004 0-0.008 0-0.013 0-35.603 28.502-64.549 63.933-65.266l853.4-0.001c35.498 0.718 64 29.664 64 65.267 0 0.004 0 0.009 0 0.013v588.799c0 0.004 0 0.008 0 0.013 0 35.603-28.502 64.549-63.933 65.266zM512 186.453c-144.448 0-261.547 117.098-261.547 261.547s117.098 261.547 261.547 261.547c144.448 0 261.547-117.098 261.547-261.547s-117.098-261.547-261.547-261.547z" />
<glyph unicode="&#xe9b3;" glyph-name="dataset-filter" d="M384-0.427v350.293l-356.693 524.8c-3.595 6.121-5.719 13.481-5.719 21.338 0 23.564 19.103 42.667 42.667 42.667 0.211 0 0.421-0.002 0.63-0.005h895.968c22.158-1.703 39.491-20.102 39.491-42.548 0-7.903-2.149-15.304-5.893-21.651l-354.451-529.294v-213.333c0.010-0.347 0.016-0.755 0.016-1.165 0-12.558-5.425-23.848-14.059-31.656l-177.957-132.299c-9.387-14.080-56.32-18.773-64 32.853zM141.227 852.907l317.867-471.893c3.199-5.18 5.095-11.459 5.095-18.181 0-1.866-0.146-3.697-0.427-5.483l0.026-280.122 90.88 72.107v209.92c0 9.387 4.693 14.080 4.693 23.467l318.293 471.893z" />
<glyph unicode="&#xe9b4;" glyph-name="dataset-folder" d="M932.693 27.307h-841.387c-1.192-0.077-2.583-0.12-3.986-0.12-36.524 0-66.133 29.609-66.133 66.133 0 1.544 0.053 3.075 0.157 4.592l-0.011 700.382c0 0 0 0.001 0 0.001 0 38.731 31.276 70.157 69.95 70.399h371.65l69.973-140.373h399.36c1.312 0.093 2.843 0.146 4.387 0.146 36.524 0 66.133-29.609 66.133-66.133 0-1.402-0.044-2.794-0.13-4.175l0.009-560.451c0 0 0-0.001 0-0.001 0-38.731-31.276-70.157-69.95-70.399zM91.307 798.293v-700.587h841.387v560.64h-441.6l-70.4 139.947z" />
<glyph unicode="&#xe9b5;" glyph-name="dataset-misc" d="M938.667 807.68h-853.333c-35.498-0.718-64-29.664-64-65.267 0-0.004 0-0.009 0-0.013v-588.799c0-0.004 0-0.008 0-0.013 0-35.603 28.502-64.549 63.933-65.266l853.4-0.001c35.498 0.718 64 29.664 64 65.267 0 0.004 0 0.009 0 0.013v588.799c0 0.004 0 0.008 0 0.013 0 35.603-28.502 64.549-63.933 65.266zM610.133 186.453l-98.133 247.893-149.76-220.587h-103.253l210.347 327.253-28.587 85.333h-66.133v83.2h130.987l170.667-419.84 69.973 23.040 21.76-78.080z" />
<glyph unicode="&#xe9b6;" glyph-name="dataset-number" d="M938.667 807.68h-853.333c-35.498-0.718-64-29.664-64-65.267 0-0.004 0-0.009 0-0.013v-588.799c0-0.004 0-0.008 0-0.013 0-35.603 28.502-64.549 63.933-65.266l853.4-0.001c35.498 0.718 64 29.664 64 65.267 0 0.004 0 0.009 0 0.013v588.799c0 0.004 0 0.008 0 0.013 0 35.603-28.502 64.549-63.933 65.266zM273.92 273.92h-65.28v256c-24.679-22.76-54.513-40.332-87.523-50.751l-1.65 59.711c22.098 8.155 41.183 19.273 57.93 33.118 18.761 13.939 33.47 33.043 42.046 55.201l54.904 0.854zM615.253 339.2v-65.28h-234.24c3.133 24.509 11.298 46.606 23.436 65.957 21.129 31.633 45.336 59.636 72.608 84.315 20.494 18.041 38.65 36.873 55.175 57.090 9.193 12.71 14.305 27.515 14.328 43.512 0.050 0.819 0.079 1.769 0.079 2.726 0 12.304-4.734 23.501-12.48 31.871-8.79 7.208-20.188 11.596-32.612 11.596s-23.822-4.388-32.73-11.699c-8.956-11.041-14.436-25.373-14.436-40.984 0-0.566 0.007-1.131 0.022-1.694l-65.282 6.483c0.966 31.824 15.243 60.133 37.426 79.682 20.93 15.346 47.036 24.494 75.279 24.494 1.478 0 2.949-0.025 4.415-0.075 1.747 0.126 4.038 0.194 6.345 0.194 28.93 0 55.35-10.743 75.489-28.458 18.52-16.818 30.181-41.153 30.181-68.212 0-0.581-0.005-1.16-0.016-1.739 0.002-0.054 0.002-0.221 0.002-0.388 0-16.113-3.134-31.494-8.826-45.567-6.984-16.472-16.008-31.385-26.859-44.755-13.19-16.115-27.148-30.884-42.086-44.602q-32.31-29.721-42.977-38.681c-4.864-5.549-9.37-11.685-13.326-18.193zM871.253 303.36c-22.464-19.936-52.205-32.112-84.791-32.112-29.766 0-57.16 10.161-78.901 27.203-20.21 17.682-33.833 42.987-36.385 71.481l65.25 8.095c1.174-14.849 7.463-28.040 17.083-37.991 8.232-8.166 19.592-13.223 32.134-13.223 0.397 0 0.793 0.005 1.188 0.015 0.26-0.009 0.635-0.014 1.011-0.014 13.712 0 26 6.103 34.294 15.74 9.113 10.697 14.627 24.601 14.627 39.792 0 1.032-0.025 2.058-0.076 3.077 0.172 1.488 0.267 3.383 0.267 5.299 0 14.275-5.271 27.319-13.972 37.291-7.815 9.102-19.42 14.874-32.374 14.874-0.299 0-0.596-0.003-0.893-0.009-11.043-0.37-21.561-2.215-31.51-5.346l6.807 53.133c1.913-0.217 4.13-0.341 6.376-0.341 13.713 0 26.348 4.621 36.43 12.391 8.784 7.756 14.384 19.207 14.384 31.966 0 0.426-0.006 0.85-0.019 1.273 0.029 0.465 0.044 1.083 0.044 1.704 0 19.53-15.257 35.496-34.503 36.629l-3.94 0.005c-11.445-0.047-21.818-4.593-29.453-11.959-8.652-9.319-14.2-21.65-14.915-35.262l-66.566 10.528c3.328 19.316 10.2 36.549 19.958 51.752 8.954 12.441 21.353 22.649 35.8 29.091 15.545 7.234 33.095 11.325 51.602 11.325 0.506 0 1.012-0.003 1.516-0.009 1.362 0.072 3.047 0.112 4.742 0.112 29.393 0 55.953-12.131 74.945-31.66 14.415-14.583 23.305-34.606 23.305-56.706 0-33.222-20.090-61.752-48.785-74.104 19.028-3.971 35.713-14.248 47.577-28.647 13.101-15.033 21.020-34.64 21.020-56.096 0-0.128 0-0.256-0.001-0.384 0.049-1.177 0.076-2.583 0.076-3.994 0-30.787-13.148-58.503-34.136-77.839z" />
<glyph unicode="&#xe9b7;" glyph-name="dataset-openfolder" d="M991.573 576c-9.296 11.986-23.7 19.627-39.889 19.627-0.077 0-0.153 0-0.23-0.001h-74.655v100.693c0 16.731-13.563 30.293-30.293 30.293h-384l-72.533 79.787c-5.401 6.329-13.293 10.394-22.141 10.666l-316.206 0.001c-16.731 0-30.293-13.563-30.293-30.293v-677.547c0-16.731 13.563-30.293 30.293-30.293h801.707c20.778 2.618 37.456 17.572 42.589 37.196l105.465 413.364c1.277 4.219 2.012 9.069 2.012 14.090 0 12.383-4.471 23.722-11.886 32.491zM354.56 755.2l72.107-80.213c5.401-6.329 13.293-10.394 22.141-10.666l369.113-0.001v-70.4h-621.653c-23.631-0.294-43.384-16.552-48.99-38.472l-65.784-262.328v462.080zM838.4 136.107h-739.84l102.4 400.64h742.4z" />
<glyph unicode="&#xe9b8;" glyph-name="dataset-preview" d="M938.667 693.333c-87.503 147.992-246.261 245.687-427.838 245.687-89.769 0-173.96-23.878-246.569-65.63-145.585-86.227-243.28-244.985-243.28-426.562 0-89.769 23.878-173.96 65.63-246.569 86.227-145.585 244.985-243.28 426.562-243.28 89.769 0 173.96 23.878 246.569 65.63 145.585 86.227 243.28 244.985 243.28 426.562 0 89.769-23.878 173.96-65.63 246.569zM718.080 90.027c-59.137-34.631-130.22-55.081-206.080-55.081-228.124 0-413.054 184.931-413.054 413.054 0 152.264 82.388 285.285 205.016 356.917 59.496 33.388 128.25 52.432 201.453 52.432 228.101 0 413.013-184.912 413.013-413.013 0-149.729-79.676-280.849-198.942-353.275zM698.453 467.627l-271.787 157.013c-24.32 14.507-42.667 4.693-42.667-24.32v-313.6c0-29.44 19.627-39.253 42.667-24.32l269.653 151.893c26.453 19.2 26.453 38.4 2.133 53.333z" />
<glyph unicode="&#xe9b9;" glyph-name="dataset-schema" d="M941.227 509.44v367.787h-919.893v-797.44h490.667c-0.068-1.052-0.107-2.282-0.107-3.52 0-32.047 25.979-58.027 58.027-58.027 1.238 0 2.468 0.039 3.687 0.115l368.047-0.008c1.052-0.068 2.282-0.107 3.52-0.107 32.047 0 58.027 25.979 58.027 58.027 0 1.238-0.039 2.468-0.115 3.687l0.008 368.047c0.069 1.061 0.109 2.3 0.109 3.548 0 32.047-25.979 58.027-58.027 58.027-1.389 0-2.767-0.049-4.132-0.145zM665.173 631.893h183.893v-122.88h-183.893zM298.667 171.947h-185.173v183.893h185.173zM298.667 448h-185.173v183.893h185.173zM512 171.947h-122.453v183.893h122.453zM573.44 509.44v0c-1.052 0.068-2.282 0.107-3.52 0.107-32.047 0-58.027-25.979-58.027-58.027 0-1.238 0.039-2.468 0.115-3.687l-122.462 0.167v183.893h183.893zM757.333 141.227l-177.92 178.773 42.667 42.667 128-128 128 128 42.667-42.667z" />
<glyph unicode="&#xe9ba;" glyph-name="dataset-schema-column" d="M1002.667 874.667h-981.333v-853.333h981.333zM315.733 120.747h-196.267v196.267h196.267zM315.733 415.147h-196.267v196.267h196.267zM610.133 120.747h-196.267v196.267h196.267zM610.133 415.147h-196.267v196.267h196.267zM904.533 120.747h-196.267v196.267h196.267v-196.267zM904.533 415.147h-196.267v196.267h196.267v-196.267z" />
<glyph unicode="&#xe9bb;" glyph-name="dataset-string" d="M938.667 807.68h-853.333c-35.498-0.718-64-29.664-64-65.267 0-0.004 0-0.009 0-0.013v-588.799c0-0.004 0-0.008 0-0.013 0-35.603 28.502-64.549 63.933-65.266l853.4-0.001c35.498 0.718 64 29.664 64 65.267 0 0.004 0 0.009 0 0.013v588.799c0 0.004 0 0.008 0 0.013 0 35.603-28.502 64.549-63.933 65.266zM372.48 266.24c-26.038-19.908-59.051-31.898-94.865-31.898-3.552 0-7.076 0.118-10.569 0.35-2.485-0.208-5.943-0.313-9.426-0.313-33.483 0-64.714 9.642-91.068 26.301-23.085 16.224-40.258 40.906-46.93 69.618l81.764 13.168c2.646-14.515 10.183-26.932 20.808-35.76 11.432-7.849 25.444-12.487 40.539-12.487 0.783 0 1.563 0.012 2.34 0.037 2.176-0.234 4.835-0.365 7.524-0.365 15.298 0 29.601 4.26 41.787 11.658 6.146 4.587 10.319 12.215 10.319 20.817 0 0.261-0.004 0.521-0.011 0.779 0.010 0.199 0.015 0.478 0.015 0.757 0 5.815-2.281 11.097-5.996 15-7.729 5.335-16.963 9.103-26.937 10.613-47.322 7.764-89.473 21.751-128.338 41.309-19.692 13.253-34.192 37.94-34.192 66.014 0 0.835 0.013 1.668 0.038 2.497 0.313 26.19 12.489 49.594 31.416 65.037 24.104 17.487 54.080 27.899 86.488 27.899 4.153 0 8.266-0.171 12.332-0.506 1.983 0.168 4.929 0.243 7.893 0.243 31.984 0 61.912-8.798 87.498-24.106 20.041-13.933 35.262-35.121 41.726-59.849l-77.064-15.24c-2.984 12.449-10.524 22.772-20.717 29.326-10.325 6.34-22.601 10.027-35.738 10.027-1.303 0-2.598-0.036-3.883-0.108-1.803 0.165-4.112 0.254-6.441 0.254-14.372 0-27.95-3.4-39.974-9.44-4.841-3.271-8.353-9.205-8.447-15.966 0.149-6.527 3.669-12.185 8.877-15.328 22.162-10.287 47.816-18.306 74.655-22.835 36.070-5.358 66.768-17.395 93.551-34.919 14.934-13.304 24.86-33.52 24.86-56.055 0-1.556-0.047-3.102-0.141-4.635 0.010 0.136 0.011 0.047 0.011-0.042 0-28.82-13.048-54.593-33.559-71.734zM577.707 235.52c-0.607-0.013-1.322-0.020-2.039-0.020-13.708 0-26.792 2.671-38.759 7.521-9.85 3.607-18.662 10.082-25.242 18.404-6.21 9.204-10.449 20.047-11.998 31.74-0.709 9.001-1.089 19.047-1.089 29.182s0.38 20.181 1.128 30.125l-0.080 133.502h-38.827v65.28h37.12v61.44l79.36 48.64v-110.080h55.467v-65.28h-55.467v-123.307c-0.459-6.381-0.721-13.827-0.721-21.333s0.262-14.952 0.776-22.327c0.963-3.467 3.576-7.192 7.138-9.634 3.647-2.455 8.066-3.896 12.821-3.896 0.314 0 0.626 0.006 0.936 0.019 11.995 0.859 23.168 3.601 33.506 7.938l8.263-67.673c-17.186-6.771-37.092-10.696-57.914-10.696-1.090 0-2.177 0.011-3.262 0.032zM878.507 471.893c-10.699 7.728-23.925 12.59-38.249 13.221-0.607 0.022-1.143 0.031-1.681 0.031-10.198 0-19.607-3.375-27.172-9.069-9.2-8.87-15.855-20.528-18.584-33.626-4.449-24.98-6.95-53.25-6.95-82.104 0-7.588 0.173-15.135 0.515-22.638l-0.039-94.509h-81.92v308.053h75.947v-42.667c8.929 16.949 20.826 31.163 35.136 42.456 10.059 6.375 21.959 10.032 34.712 10.032 0.344 0 0.688-0.003 1.030-0.008 19.903-0.27 38.438-6.114 54.136-16.039z" />
<glyph unicode="&#xe9bc;" glyph-name="dataset-table" d="M938.667 874.667h-853.333c-0.701 0.028-1.523 0.045-2.349 0.045-34.168 0-61.867-27.699-61.867-61.867 0-1.818 0.078-3.618 0.232-5.396l-0.016-719.129c-0.138-1.547-0.216-3.347-0.216-5.165 0-34.168 27.699-61.867 61.867-61.867 0.826 0 1.649 0.016 2.467 0.048l853.216-0.004c1.050-0.064 2.277-0.1 3.513-0.1 34.168 0 61.867 27.699 61.867 61.867 0 1.236-0.036 2.463-0.108 3.681l0.008 720.899c0.141 1.566 0.221 3.387 0.221 5.227 0 34.168-27.699 61.867-61.867 61.867-1.279 0-2.548-0.039-3.808-0.115zM315.733 120.747h-196.267v196.267h196.267zM315.733 415.147h-196.267v196.267h196.267zM610.133 120.747h-196.267v196.267h196.267zM610.133 415.147h-196.267v196.267h196.267zM904.533 120.747h-196.267v196.267h196.267v-196.267zM904.533 415.147h-196.267v196.267h196.267v-196.267z" />
<glyph unicode="&#xe9bd;" glyph-name="dataset-toparrow" d="M1002.667 448l-490.667 490.667-490.667-490.667 68.267-74.24 371.2 370.773v-787.2h102.4v787.2l370.773-370.773 68.693 74.24z" />
<glyph unicode="&#xe9be;" glyph-name="errorinfo" d="M512-42.667c-270.315 0.889-489.103 220.226-489.103 490.664 0 270.988 219.679 490.667 490.667 490.667 135.105 0 257.455-54.605 346.187-142.948l-0.018 0.018c89.261-88.87 144.497-211.853 144.497-347.736 0-270.988-219.679-490.667-490.667-490.667-0.55 0-1.099 0.001-1.649 0.003zM512 849.493c-110.712-2.217-210.794-45.974-285.669-116.267-69.85-74.433-113.607-174.515-115.817-284.79 2.21-111.149 45.967-211.23 116.26-286.106 68.493-71.486 165.040-116.056 271.996-116.056 4.653 0 9.286 0.084 13.898 0.252 110.045 2.198 210.126 45.955 285.002 116.247 71.482 70.607 115.898 168.923 115.898 277.612 0 2.677-0.027 5.349-0.081 8.013-2.211 110.314-45.968 210.395-116.26 285.271l0.213-0.229c-74.646 70.079-174.728 113.836-285.003 116.046zM467.2 546.133h89.173v-374.613h-89.173v374.613zM467.2 724.48h89.173v-89.173h-89.173v89.173z" />
<glyph unicode="&#xe9bf;" glyph-name="expression" d="M422.4 614.4h89.6c0.181-1.352 0.284-2.916 0.284-4.504 0-9.696-3.851-18.494-10.106-24.946l-98.978 0.009c4.713-10.084 7.462-21.894 7.462-34.347s-2.75-24.263-7.675-34.857c-17.68-109.578-38.17-202.053-63.2-292.643-16.921-41.995-40.105-93.682-67.003-143.055-14.984-20.032-34.355-42.518-55.831-62.799-28.141-20.951-63.31-33.424-101.392-33.424-12.672 0-25.021 1.381-36.906 4.001-31.789 6.126-56.456 34.302-57.32 68.393-0.002 19.718 9.812 39.344 29.438 39.344 6.758 4.11 14.929 6.543 23.668 6.543 14.091 0 26.704-6.325 35.157-16.29 4.908-6.899 7.814-15.41 7.814-24.6s-2.905-17.701-7.848-24.666l0.089-9.681c-9.813-9.813 0-19.627 9.813-19.627 0.608-0.019 1.324-0.030 2.042-0.030 23.392 0 44.087 11.549 56.694 29.256l29.584 59.093c15.982 46.875 29.665 102.988 38.531 160.689 20.349 103.418 39.975 211.365 69.415 328.698v9.813h-98.56c0 9.813 0 19.627 9.813 19.627h97.707c9.813 0 9.813 0 9.813 9.813 11.75 66.124 32.229 125.249 60.513 179.666 16.337 27.593 39.296 53.681 66.443 74.597 31.671 21.014 69.792 33.254 110.772 33.254 12.947 0 25.608-1.222 37.875-3.556 9.196-9.823 22.617-16.827 37.558-19.366 14.875-13.909 23.846-33.358 23.846-54.903 0-8.462-1.384-16.6-3.937-24.201q-14.351-28.904-29.284-28.904h-19.627c-19.627 0-39.253 0-49.067 19.627-4.11 6.758-6.543 14.929-6.543 23.668 0 14.091 6.325 26.704 16.29 35.157l9.88 9.868c9.813 9.813 9.813 9.813-9.813 19.627-3.49 0.484-7.522 0.76-11.618 0.76-26.594 0-50.468-11.641-66.806-30.106-18.416-19.052-32.063-42.656-39.085-68.965-11.374-69.837-25.030-128.841-42.139-186.36zM579.413 487.253c-7.823 0.751-14.681 4.374-19.605 9.789 22.111 48.087 55.445 87.717 96.767 116.747 22.106 13.355 47.68 20.893 75.015 20.893 4.858 0 9.66-0.238 14.395-0.703 21.747-3.866 39.901-18.77 48.308-38.779 10.733-23.403 17.757-50.107 19.744-78.201l0.042-10.546c19.627 29.44 49.067 58.88 68.693 87.893l29.44 29.44c10.703 8.095 24.235 12.966 38.906 12.966 7.139 0 14.008-1.153 20.432-3.284 17.733-6.755 30.431-24.030 30.431-44.272 0-4.702-0.685-9.244-1.961-13.532-4.419-18.769-21.322-32.769-41.496-32.769-6.262 0-12.21 1.349-17.567 3.773-9.545-0.109-9.545 9.705-19.358 9.705-3.381 4.509-8.713 7.396-14.72 7.396s-11.339-2.887-14.686-7.348c-27.421-18.934-48.042-45.902-58.602-77.479l-0.312-20.702c9.813-49.067 19.627-97.707 29.44-156.587 0-9.813 9.813-19.627 9.813-29.44 6.443-6.247 15.24-10.097 24.936-10.097 1.588 0 3.151 0.103 4.684 0.303 9.633 9.794 19.446 9.794 19.446 19.607 19.627 29.44 39.253 49.067 58.88 78.507 5.123-5.178 11.886-8.723 19.446-9.792-18.189-51.223-48.415-94.365-87.307-127.682-17.255-10.757-37.262-17.772-58.703-19.918-1.605-0.098-2.804-0.127-4.010-0.127-28.152 0-52.623 15.76-65.072 38.939-18.345 22.020-31.952 48.097-39.163 76.716-0.284 20.958-10.097 40.584-10.097 60.211l-9.813-9.813c-19.627-39.253-49.067-68.693-68.693-107.52l-39.253-39.253c-14.515-6.438-31.446-10.187-49.253-10.187-3.388 0-6.745 0.136-10.064 0.402-18.14 6.656-31.185 24.125-31.185 44.641 0 5.075 0.798 9.963 2.276 14.546 1.576 20.638 18.186 37.249 39.010 38.909 9.963 0.010 19.776-9.804 29.59-9.804 19.627-19.627 19.627-19.627 39.253 0 30.893 27.729 57.012 59.965 77.516 95.825 2.081 9.622 5.627 16.385 10.801 21.505-9.81 39.256-19.624 87.896-29.437 128.003 0 9.813-9.813 19.627-9.813 29.44s-9.813 9.813-19.627 9.813-19.627-9.813-29.44-19.627c-19.627-19.627-29.44-49.067-49.067-68.693 0.006-0.13 0.010-0.283 0.010-0.436 0-5.038-3.968-9.148-8.95-9.377z" />
<glyph unicode="&#xe9c0;" glyph-name="backarrow" d="M512 938.667l-490.667-490.667 490.667-490.667 72.533 68.267-371.2 371.2h789.333v102.4h-789.333l371.2 371.2z" />
<glyph unicode="&#xe9c1;" glyph-name="dataset-foreignkey" d="M585.956 237.511c-22.756-22.756-51.2-39.822-85.333-56.889 0 0 0 0 0 0l-17.067-5.689 11.378 17.067c5.689 11.378 11.378 17.067 17.067 28.444s5.689 22.756 11.378 34.133v5.689c-22.756 11.378-45.511 28.444-62.578 45.511h-170.667v5.689c-5.689 5.689-5.689 11.378-11.378 22.756 0 11.378-5.689 17.067-5.689 28.444s0 28.444-5.689 39.822v0c0 5.689 0 11.378 0 22.756v5.689h119.467c0 11.378-5.689 28.444-5.689 39.822 0 0 0 5.689 0 5.689h-108.089v5.689c0 22.756 0 39.822 5.689 56.889 0 11.378 5.689 17.067 5.689 28.444 0 5.689 0 17.067 0 22.756v5.689h142.222c11.378 17.067 28.444 28.444 39.822 45.511h-164.978l5.689 11.378c0 0 0 5.689 5.689 5.689 0 5.689 0 11.378 5.689 17.067s5.689 11.378 11.378 17.067 11.378 17.067 17.067 22.756v0c0 0 0 0 0 0v0c0 0 5.689 5.689 5.689 5.689s0 0 5.689 0c0 0 5.689 0 5.689 0s5.689 0 5.689 0c0 0 0 0 5.689 0 0 0 0 0 5.689 0 0 0 0 0 0 0h5.689c5.689 0 5.689 0 11.378 0v0 11.378c0 0 0 0 0 0s5.689 0 5.689 0c0 0 0 0 0 0s0 0 5.689 0c0 0 0 0 5.689 0 0 0 0 0 5.689 0 0 0 0 0 5.689 0 0 0 5.689 0 5.689-5.689 5.689-5.689 11.378-17.067 22.756-22.756-5.689-17.067 0-22.756 0-28.444 5.689-5.689 5.689-11.378 11.378-17.067 0 0 0 0 0 0s0-5.689 5.689-5.689v-5.689c11.378 5.689 22.756 11.378 39.822 22.756 0 0 0 5.689-5.689 5.689 0 5.689-5.689 11.378-11.378 22.756v5.689c0 0 0 0 0 5.689l-11.378 5.689 17.067-5.689c5.689 0 11.378-5.689 17.067-11.378 11.378-5.689 17.067-11.378 28.444-17.067 17.067 5.689 39.822 11.378 62.578 11.378-11.378 11.378-22.756 17.067-34.133 28.444-22.756 17.067-51.2 28.444-79.644 39.822-34.133 11.378-68.267 17.067-108.089 17.067 0 0 0 0 0 0s0 0 0 0 0 0 0 0c-11.378 0-28.444 0-39.822 0s-22.756-5.689-34.133-5.689c0 0 0 0-5.689 0-28.444-11.378-51.2-17.067-79.644-34.133-11.378-5.689-22.756-17.067-39.822-22.756-45.511-34.133-79.644-85.333-102.4-136.533-5.689-11.378-11.378-22.756-11.378-34.133-11.378-28.444-17.067-62.578-17.067-96.711v0c0-11.378 0-28.444 0-39.822v0-5.689c11.378-62.578 34.133-119.467 73.956-164.978s91.022-79.644 147.911-102.4c17.067-5.689 34.133-11.378 51.2-11.378 17.067-5.689 34.133-5.689 56.889-5.689 0 0 0 0 0 0s0 0 0 0 0 0 0 0c11.378 0 28.444 0 39.822 0s22.756 5.689 34.133 5.689c0 0 0 0 5.689 0 28.444 5.689 56.889 17.067 79.644 28.444 11.378 5.689 28.444 17.067 39.822 28.444 22.756 17.067 39.822 34.133 56.889 56.889-22.756 0-39.822 0-56.889 0zM182.044 647.111c28.444 28.444 56.889 51.2 96.711 62.578 0 0 0 0 0 0l17.067 5.689-11.378-11.378c-5.689-5.689-11.378-17.067-17.067-28.444s-5.689-17.067-11.378-34.133v-5.689h-85.333l11.378 11.378zM102.4 476.444c0 17.067 5.689 28.444 5.689 45.511 0 0 0 5.689 0 5.689 5.689 11.378 11.378 28.444 17.067 39.822v0c5.689 5.689 5.689 17.067 11.378 22.756v5.689h102.4v-5.689c0-11.378-5.689-17.067-5.689-28.444s-5.689-17.067-5.689-28.444c0-17.067 0-39.822 0-56.889v-5.689h-125.156v5.689zM142.222 300.089v0c-22.756 39.822-34.133 73.956-39.822 119.467v5.689h125.156v-11.378c0-5.689 0-11.378 0-22.756 0-5.689 0-11.378 0-17.067v-5.689c0-5.689 0-11.378 0-17.067v-5.689c0 0 0-5.689 0-5.689s0-5.689 0-5.689v-5.689c0-5.689 0-11.378 5.689-17.067v-5.689h-91.022zM273.067 186.311c-5.689 0-11.378 5.689-17.067 11.378-28.444 11.378-51.2 28.444-73.956 51.2l-11.378 11.378h79.644v-5.689c0-5.689 5.689-11.378 5.689-11.378 0-5.689 5.689-11.378 5.689-17.067 5.689-5.689 5.689-11.378 11.378-17.067v-5.689c0 0 0 0 0-5.689l11.378-17.067-11.378 5.689zM472.178 248.889c0 0 0-5.689-5.689-5.689 0-11.378-5.689-17.067-11.378-22.756s-5.689-11.378-11.378-17.067-11.378-17.067-22.756-22.756v0c0 0 0 0 0 0v0c0 0-5.689-5.689-5.689-5.689s0 0-5.689 0c0 0-5.689 0-5.689 0s-5.689 0-5.689 0c0 0 0 0-5.689 0 0 0 0 0-5.689 0 0 0 0 0 0 0h-5.689c-5.689 0-5.689 0-11.378 0v0h-5.689c0 0 0 0-5.689 0 0 0-5.689 0-5.689 0s0 0 0 0 0 0-5.689 0c0 0 0 0-5.689 0 0 0 0 0-5.689 0 0 0 0 0-5.689 5.689 0 0-5.689 0-5.689 5.689-5.689 5.689-11.378 17.067-22.756 22.756-5.689 5.689-5.689 11.378-11.378 17.067s-5.689 11.378-11.378 17.067c0 0 0 0 0 0s0 5.689-5.689 5.689l-5.689 11.378h176.356l28.444-11.378zM614.4 504.889c0-21.993-17.829-39.822-39.822-39.822s-39.822 17.829-39.822 39.822c0 21.993 17.829 39.822 39.822 39.822s39.822-17.829 39.822-39.822zM961.422 277.333l-159.289 159.289c0 11.378 5.689 17.067 5.689 28.444 0 102.4-85.333 187.733-187.733 187.733s-187.733-85.333-187.733-187.733c0-102.4 85.333-187.733 187.733-187.733 28.444 0 56.889 5.689 79.644 22.756v-62.578h62.578v-62.578h62.578v-62.578h142.222v153.6l-5.689 11.378zM927.289 157.867h-62.578v62.578h-62.578v62.578h-62.578v62.578h-56.889c-17.067-11.378-45.511-17.067-68.267-17.067-79.644 0-142.222 62.578-142.222 142.222s62.578 142.222 142.222 142.222 142.222-62.578 142.222-142.222c0-11.378 0-22.756-5.689-34.133v-11.378l170.667-170.667v-96.711z" />
<glyph unicode="&#xe9c2;" glyph-name="dataset-join" d="M654.222 760.889c-51.2 0-96.711-11.378-142.222-34.133-45.511 22.756-91.022 34.133-142.222 34.133-170.667 0-312.889-142.222-312.889-312.889s142.222-312.889 312.889-312.889c51.2 0 96.711 11.378 142.222 34.133 45.511-22.756 91.022-34.133 142.222-34.133 170.667 0 312.889 142.222 312.889 312.889s-142.222 312.889-312.889 312.889zM369.778 192c-142.222 0-256 113.778-256 256s113.778 256 256 256c28.444 0 56.889-5.689 85.333-17.067-51.2-39.822-85.333-96.711-102.4-159.289 0 0 0 0 0 0-5.689-11.378-5.689-22.756-5.689-34.133 0 0 0-5.689 0-5.689-5.689-11.378-5.689-28.444-5.689-39.822s0-28.444 0-39.822c0 0 0-5.689 0-5.689 0-11.378 5.689-22.756 5.689-34.133 0 0 0 0 0 0 17.067-62.578 51.2-119.467 102.4-159.289-22.756-11.378-51.2-17.067-79.644-17.067zM654.222 192c-28.444 0-56.889 5.689-85.333 17.067 51.2 39.822 85.333 96.711 102.4 159.289 0 0 0 0 0 0 5.689 11.378 5.689 22.756 5.689 34.133 0 0 0 5.689 0 5.689 0 11.378 0 22.756 0 39.822s0 28.444 0 39.822c0 0 0 5.689 0 5.689 0 11.378-5.689 22.756-5.689 34.133 0 0 0 0 0 0-17.067 62.578-51.2 119.467-102.4 159.289 28.444 11.378 56.889 17.067 85.333 17.067 142.222 0 256-113.778 256-256s-113.778-256-256-256z" />
<glyph unicode="&#xe9c3;" glyph-name="dataset-primarykey" d="M170.667 550.4c0-130.844 108.089-238.933 238.933-238.933 39.822 0 73.956 11.378 102.4 22.756v-79.644h79.644v-79.644h79.644v-68.267h182.044v199.111l-210.489 210.489c0 11.378 5.689 22.756 5.689 39.822-5.689 125.156-113.778 233.244-238.933 233.244s-238.933-108.089-238.933-238.933zM591.644 550.4c0-11.378 0-28.444-5.689-45.511v-11.378l11.378-11.378 204.8-210.489v-119.467h-79.644v79.644h-79.644v79.644h-79.644v85.333h-62.578l-5.689-5.689c-22.756-11.378-56.889-22.756-91.022-22.756-102.4 0-182.044 85.333-182.044 182.044s85.333 182.044 182.044 182.044 187.733-79.644 187.733-182.044zM301.511 607.289c0-28.444 22.756-51.2 51.2-51.2s51.2 22.756 51.2 51.2-22.756 51.2-51.2 51.2-51.2-22.756-51.2-51.2z" />
<glyph unicode="&#xe9c4;" glyph-name="dataset-procedure" d="M917.333 874.667c12.8 0 21.333-8.533 21.333-21.333v-810.667c0-12.8-8.533-21.333-21.333-21.333h-810.667c-12.8 0-21.333 8.533-21.333 21.333v810.667c0 12.8 8.533 21.333 21.333 21.333h810.667zM917.333 938.667h-810.667c-46.933 0-85.333-38.4-85.333-85.333v-810.667c0-46.933 38.4-85.333 85.333-85.333h810.667c46.933 0 85.333 38.4 85.333 85.333v810.667c0 46.933-38.4 85.333-85.333 85.333v0zM243.2 614.4l-76.8 76.8 29.867 29.867 46.933-46.933 93.867 93.867 29.867-29.867zM439.467 742.4h413.867v-98.133h-413.867v98.133zM243.2 362.667l-76.8 76.8 29.867 29.867 46.933-46.933 93.867 93.867 29.867-29.867zM439.467 490.667h413.867v-98.133h-413.867v98.133zM243.2 115.2l-76.8 76.8 29.867 29.867 46.933-46.933 93.867 93.867 29.867-29.867zM439.467 243.2h413.867v-98.133h-413.867v98.133z" />
<glyph unicode="&#xe9c5;" glyph-name="dataset-procedure-table" d="M917.333 874.667c12.8 0 21.333-8.533 21.333-21.333v-810.667c0-12.8-8.533-21.333-21.333-21.333h-810.667c-12.8 0-21.333 8.533-21.333 21.333v810.667c0 12.8 8.533 21.333 21.333 21.333h810.667zM917.333 938.667h-810.667c-46.933 0-85.333-38.4-85.333-85.333v-810.667c0-46.933 38.4-85.333 85.333-85.333h810.667c46.933 0 85.333 38.4 85.333 85.333v810.667c0 46.933-38.4 85.333-85.333 85.333v0zM170.667 789.333h682.667v-170.667h-682.667v170.667zM170.667 533.333h682.667v-85.333h-682.667v85.333zM170.667 362.667h682.667v-85.333h-682.667v85.333z" />
<glyph unicode="&#xe9c6;" glyph-name="datasourcelist" d="M819.2 183.467c0-25.921-21.013-46.933-46.933-46.933s-46.933 21.013-46.933 46.933c0 25.921 21.013 46.933 46.933 46.933s46.933-21.013 46.933-46.933zM819.2 448c0-25.921-21.013-46.933-46.933-46.933s-46.933 21.013-46.933 46.933c0 25.921 21.013 46.933 46.933 46.933s46.933-21.013 46.933-46.933zM21.333 883.2v-866.133h981.333v866.133h-981.333zM930.133 85.333h-836.267v192h840.533v-192zM930.133 349.867h-836.267v196.267h840.533v-196.267zM93.867 614.4v196.267h840.533v-192h-840.533zM819.2 712.533c0-25.921-21.013-46.933-46.933-46.933s-46.933 21.013-46.933 46.933c0 25.921 21.013 46.933 46.933 46.933s46.933-21.013 46.933-46.933z" />
<glyph unicode="&#xe9c7;" glyph-name="dropdown" d="M512 174.933l-486.4 486.4 59.733 59.733 426.667-426.667 426.667 426.667 59.733-59.733z" />
<glyph unicode="&#xe9c8;" glyph-name="horizontal-browse" d="M512 558.933v0c59.733 0 110.933-51.2 110.933-110.933s-51.2-110.933-110.933-110.933c-59.733 0-110.933 51.2-110.933 110.933s51.2 110.933 110.933 110.933v0zM891.733 558.933v0c0 0 0 0 0 0 29.867 0 59.733-12.8 76.8-34.133 21.333-21.333 34.133-46.933 34.133-76.8 0 0 0 0 0 0 0-59.733-51.2-110.933-110.933-110.933s-110.933 51.2-110.933 110.933c0 0 0 0 0 0 0 29.867 12.8 59.733 34.133 76.8v0c17.067 21.333 46.933 34.133 76.8 34.133v0 0 0zM132.267 558.933v0c59.733 0 110.933-51.2 110.933-110.933s-51.2-110.933-110.933-110.933c-59.733 0-110.933 51.2-110.933 110.933s51.2 110.933 110.933 110.933v0z" />
<glyph unicode="&#xe9c9;" glyph-name="rightarrow" d="M785.067 448l-486.4-486.4-59.733 59.733 426.667 426.667-426.667 426.667 59.733 59.733z" />
<glyph unicode="&#xe9ca;" glyph-name="toolbar-gridlines" d="M1002.667 678.4v64h-196.267v196.267h-64v-196.267h-196.267v196.267h-64v-196.267h-200.533v196.267h-64v-196.267h-196.267v-64h196.267v-196.267h-196.267v-64h196.267v-196.267h-196.267v-64h196.267v-196.267h64v196.267h196.267v-196.267h64v196.267h196.267v-196.267h64v196.267h196.267v64h-196.267v196.267h196.267v64h-196.267v196.267h200.533zM281.6 678.4h196.267v-196.267h-196.267v196.267zM281.6 217.6v196.267h196.267v-196.267h-196.267zM742.4 217.6h-196.267v196.267h196.267v-196.267zM742.4 482.133h-196.267v196.267h196.267v-196.267z" />
<glyph unicode="&#xe9cb;" glyph-name="toolbar-ruler" d="M942.933 908.8h-921.6v-930.133h405.333v584.533h576v345.6h-59.733zM81.067 853.333h290.133v-230.4h-290.133v230.4zM366.933 507.733h-230.4v-59.733h234.667v-59.733h-179.2v-59.733h174.933v-59.733h-230.4v-59.733h234.667v-59.733h-179.2v-59.733h174.933v-59.733h-285.867v533.333h290.133v-55.467zM942.933 622.933h-59.733v170.667h-59.733v-174.933h-55.467v119.467h-59.733v-115.2h-55.467v170.667h-55.467v-174.933h-55.467v119.467h-59.733v-115.2h-55.467v230.4h520.533v-230.4z" />
<glyph unicode="&#xe9cc;" glyph-name="toolbar-snapgridlines" d="M1002.667 678.4v64h-196.267v196.267h-64v-196.267h-460.8v196.267h-64v-196.267h-196.267v-64h196.267v-456.533h-196.267v-64h196.267v-196.267h64v196.267h456.533v-196.267h64v196.267h196.267v64h-196.267v456.533h200.533zM742.4 217.6h-460.8v460.8h456.533v-460.8zM349.867 610.133h328.533v-328.533h-328.533v328.533z" />
<glyph unicode="&#xe9cd;" glyph-name="upload" d="M512 558.933v0c59.733 0 110.933-51.2 110.933-110.933s-51.2-110.933-110.933-110.933c-59.733 0-110.933 51.2-110.933 110.933s51.2 110.933 110.933 110.933v0zM891.733 558.933v0c0 0 0 0 0 0 29.867 0 59.733-12.8 76.8-34.133 21.333-21.333 34.133-46.933 34.133-76.8 0 0 0 0 0 0 0-59.733-51.2-110.933-110.933-110.933s-110.933 51.2-110.933 110.933c0 0 0 0 0 0 0 29.867 12.8 59.733 34.133 76.8v0c17.067 21.333 46.933 34.133 76.8 34.133v0 0 0zM132.267 558.933v0c59.733 0 110.933-51.2 110.933-110.933s-51.2-110.933-110.933-110.933c-59.733 0-110.933 51.2-110.933 110.933s51.2 110.933 110.933 110.933v0z" />
<glyph unicode="&#xe9ce;" glyph-name="vertical-browse" d="M401.067 448v0c0 59.733 51.2 110.933 110.933 110.933s110.933-51.2 110.933-110.933c0-59.733-51.2-110.933-110.933-110.933s-110.933 51.2-110.933 110.933v0zM401.067 827.733v0c0 0 0 0 0 0 0 29.867 12.8 59.733 34.133 76.8 21.333 21.333 46.933 34.133 76.8 34.133 0 0 0 0 0 0 59.733 0 110.933-51.2 110.933-110.933s-51.2-110.933-110.933-110.933c0 0 0 0 0 0-29.867 0-59.733 12.8-76.8 34.133v0c-21.333 17.067-34.133 46.933-34.133 76.8v0 0 0zM401.067 68.267v0c0 59.733 51.2 110.933 110.933 110.933s110.933-51.2 110.933-110.933c0-59.733-51.2-110.933-110.933-110.933s-110.933 51.2-110.933 110.933v0z" />
<glyph unicode="&#xe9cf;" glyph-name="widget-subreport" d="M874.667 567.467h-76.8v341.333c0 17.067-12.8 25.6-25.6 25.6h-460.8c0 0-4.267 0-4.267 0s-4.267 0-4.267 0h-4.267c0 0-4.267-4.267-4.267-4.267l-157.867-183.467c0 0-4.267-4.267-4.267-8.533 0 0 0 0 0 0s0 0 0 0 0-4.267 0-4.267v-618.667c0-17.067 12.8-25.6 25.6-25.6h260.267v-110.933c0-12.8 8.533-21.333 21.333-21.333h435.2c12.8 0 21.333 8.533 21.333 21.333v567.467c-4.267 12.8-12.8 21.333-21.333 21.333zM285.867 853.333v-98.133h-81.067l81.067 98.133zM170.667 128v580.267h132.267c17.067 0 25.6 12.8 25.6 25.6v162.133h422.4v-328.533h-204.8c0 0 0 0-4.267 0 0 0 0 0-4.267 0l-4.267-4.267c0 0-4.267 0-4.267-4.267l-81.067-98.133h-200.533v-42.667h170.667c0 0 0 0 0-4.267v-136.533h-170.667v-42.667h170.667v-115.2h-247.467zM529.067 503.467v-72.533h-59.733l59.733 72.533zM857.6-4.267h-401.067v405.333h89.6c8.533 0 17.067 8.533 17.067 17.067v110.933h290.133v-533.333zM247.467 640h396.8v-42.667h-396.8v42.667zM507.733 324.267h294.4v-29.867h-294.4v29.867zM507.733 204.8h294.4v-29.867h-294.4v29.867zM507.733 85.333h294.4v-29.867h-294.4v29.867z" />
<glyph unicode="&#xe9d0;" glyph-name="untitled125" d="M904.533 733.867h-469.333l-68.267 93.867h-247.467c-11.782 0-21.333-9.551-21.333-21.333v-580.267h4.267l136.533 256c2.053 9.809 10.63 17.071 20.903 17.071 0.151 0 0.302-0.002 0.453-0.005h669.844v213.333c0.003 0.129 0.004 0.28 0.004 0.432 0 11.782-9.551 21.333-21.333 21.333-1.512 0-2.987-0.157-4.41-0.456z" />
<glyph unicode="&#xe9d1;" glyph-name="untitled126" d="M140.8 665.6h746.667v-210.347h-746.667v210.347z" />
<glyph unicode="&#xe9d2;" glyph-name="untitled127" d="M140.8 631.467h746.667v-210.347h-746.667v210.347z" />
<glyph unicode="&#xe9d3;" glyph-name="untitled128" d="M968.533 563.2h-913.067c-0.080 0.001-0.174 0.001-0.268 0.001-18.851 0-34.133-15.282-34.133-34.133 0-1.504 0.097-2.986 0.286-4.439l68.248-426.495c2.193-16.926 16.518-29.868 33.866-29.868 0.094 0 0.188 0 0.282 0.001h776.519c0.079-0.001 0.173-0.001 0.268-0.001 17.348 0 31.673 12.941 33.848 29.696l68.285 426.838c0.171 1.282 0.268 2.763 0.268 4.268 0 18.851-15.282 34.133-34.133 34.133-0.094 0-0.188 0-0.282-0.001z" />
<glyph unicode="&#xe9d4;" glyph-name="untitled129" d="M145.067-34.133v806.4h157.867v157.867h576v-964.267h-733.867z" />
<glyph unicode="&#xe9d5;" glyph-name="untitled130" d="M870.4 921.6v-947.2h-716.8v789.333h157.867v157.867h554.667zM883.2 938.667h-588.8v-157.867h-153.6v-823.467h742.4v981.333z" />
<glyph unicode="&#xe9d6;" glyph-name="untitled131" d="M294.4 938.667l-153.6-157.867h153.6v157.867z" />
<glyph unicode="&#xe9d7;" glyph-name="untitled132" d="M554.667 294.4h46.933v-40.107h-46.933v40.107z" />
<glyph unicode="&#xe9d8;" glyph-name="untitled133" d="M554.667 204.8h46.933v-40.107h-46.933v40.107z" />
<glyph unicode="&#xe9d9;" glyph-name="untitled134" d="M554.667 110.933h46.933v-40.107h-46.933v40.107z" />
<glyph unicode="&#xe9da;" glyph-name="untitled135" d="M631.467 294.4h183.467v-40.107h-183.467v40.107z" />
<glyph unicode="&#xe9db;" glyph-name="untitled136" d="M631.467 204.8h183.467v-40.107h-183.467v40.107z" />
<glyph unicode="&#xe9dc;" glyph-name="untitled137" d="M631.467 110.933h183.467v-40.107h-183.467v40.107z" />
<glyph unicode="&#xe9dd;" glyph-name="untitled138" d="M209.067 622.933h268.8v-40.107h-268.8v40.107z" />
<glyph unicode="&#xe9de;" glyph-name="untitled139" d="M209.067 529.067h268.8v-40.107h-268.8v40.107z" />
<glyph unicode="&#xe9df;" glyph-name="untitled140" d="M209.067 435.2h268.8v-40.107h-268.8v40.107z" />
<glyph unicode="&#xe9e0;" glyph-name="untitled141" d="M550.4 853.333h268.8v-40.107h-268.8v40.107z" />
<glyph unicode="&#xe9e1;" glyph-name="untitled142" d="M550.4 759.467h268.8v-40.107h-268.8v40.107z" />
<glyph unicode="&#xe9e2;" glyph-name="untitled143" d="M550.4 529.067h42.667v-133.547h-42.667v133.547z" />
<glyph unicode="&#xe9e3;" glyph-name="untitled144" d="M622.933 593.067h42.667v-200.107h-42.667v200.107z" />
<glyph unicode="&#xe9e4;" glyph-name="untitled145" d="M695.467 529.067h42.667v-133.547h-42.667v133.547z" />
<glyph unicode="&#xe9e5;" glyph-name="untitled146" d="M772.267 661.333h42.667v-267.093h-42.667v267.093z" />
<glyph unicode="&#xe9e6;" glyph-name="untitled147" d="M358.4 187.733l115.2-64c8.547 17.637 13.542 38.36 13.542 60.251 0 73.517-56.344 133.874-128.205 140.244z" />
<glyph unicode="&#xe9e7;" glyph-name="untitled148" d="M337.067 174.933v149.333c-75.225-3.198-134.999-64.959-134.999-140.68 0-77.762 63.038-140.8 140.8-140.8 49.151 0 92.419 25.185 117.605 63.353z" />
<glyph unicode="&#xe9e8;" glyph-name="imagemanager-add" d="M512 938.667c-268.8 0-490.667-221.867-490.667-490.667s221.867-490.667 490.667-490.667 490.667 221.867 490.667 490.667-221.867 490.667-490.667 490.667zM512-4.267c-251.733 0-452.267 200.533-452.267 452.267s200.533 452.267 452.267 452.267 452.267-200.533 452.267-452.267-200.533-452.267-452.267-452.267zM746.667 473.6h-209.067v209.067c0 17.067-12.8 25.6-25.6 25.6s-25.6-12.8-25.6-25.6v-209.067h-209.067c-17.067 0-25.6-12.8-25.6-25.6s12.8-25.6 25.6-25.6h209.067v-209.067c0-17.067 12.8-25.6 25.6-25.6s25.6 12.8 25.6 25.6v209.067h209.067c17.067 0 25.6 12.8 25.6 25.6s-8.533 25.6-25.6 25.6z" />
</font>
</defs>
</svg>
