<svg width="15" height="15" viewBox="0 0 15 15" fill="none" xmlns="http://www.w3.org/2000/svg">
<g clip-path="url(#clip0_23_16)">
<circle cx="7.5" cy="7.5" r="7" fill="white" stroke="#23A1D9"/>
<path d="M11.0057 4.52204C11.4386 4.96264 11.4332 5.67159 10.9936 6.10552L10.4707 6.62161L8.68262 4.80177L9.20548 4.28569C9.64509 3.85176 10.3524 3.85717 10.7854 4.29778L11.0057 4.52204Z" fill="#23A1D9"/>
<path d="M8.29893 5.17659L4.65275 8.81392L4.36477 9.18138C4.2467 9.32437 4.12699 9.66829 4.0819 9.82238L3.81131 10.9441C3.77196 11.1266 3.79491 11.2508 3.81131 11.2901L3.9466 11.4372C4.01055 11.5112 4.19367 11.5048 4.27723 11.4923L5.11644 11.2901C5.72325 11.1607 6.22419 10.8207 6.3988 10.6669L10.0963 6.99525L8.29893 5.17659Z" fill="#23A1D9"/>
</g>
<defs>
<clipPath id="clip0_23_16">
<rect width="15" height="15" fill="white"/>
</clipPath>
</defs>
</svg>
