<svg width="48" height="48" viewBox="0 0 48 48" fill="none" xmlns="http://www.w3.org/2000/svg">
<path d="M35 35.5V38C35 39.1046 34.1046 40 33 40H10C8.89543 40 8 39.1046 8 38V10C8 8.89543 8.89543 8 10 8H33C34.1046 8 35 8.89543 35 10V21.5" stroke="#0787FF" stroke-width="2"/>
<rect x="18" y="22" width="22" height="13" rx="2" stroke="#EC7838"/>
<path d="M20.2812 31V26.6364H21.4659V28.3409H23.0341V26.6364H24.2188V31H23.0341V29.2955H21.4659V31H20.2812ZM24.6619 27.5909V26.6364H28.4545V27.5909H27.142V31H25.9744V27.5909H24.6619ZM28.9004 26.6364H30.3748L31.389 29.108H31.4402L32.4544 26.6364H33.9288V31H32.7697V28.4773H32.7356L31.764 30.9659H31.0652L30.0936 28.4602H30.0595V31H28.9004V26.6364ZM34.4902 31V26.6364H35.6749V30.0455H37.4391V31H34.4902Z" fill="#0787FF"/>
</svg>