<svg width="48" height="48" viewBox="0 0 48 48" fill="none" xmlns="http://www.w3.org/2000/svg">
<path d="M36 33L36 39C36 40.1046 35.1046 41 34 41H10C8.89543 41 8 40.1046 8 39V5C8 3.89543 8.89543 3 10 3H25.4882M36 20.8125V13.6875M36 13.6875L25.4882 3M36 13.6875H27.4882C26.3836 13.6875 25.4882 12.7921 25.4882 11.6875V3" stroke="#0787FF" stroke-width="2"/>
<rect x="13" y="20.3438" width="25.4375" height="12.7188" rx="2.3125" stroke="#EC7838"/>
<path d="M27.5 5H39C40.1046 5 41 5.89543 41 7V43C41 44.1046 40.1046 45 39 45H15C13.8954 45 13 44.1046 13 43V41" stroke="#0787FF" stroke-width="2"/>
<path d="M17.2812 29V24.6364H18.4659V26.3409H20.0341V24.6364H21.2188V29H20.0341V27.2955H18.4659V29H17.2812ZM21.6619 25.5909V24.6364H25.4545V25.5909H24.142V29H22.9744V25.5909H21.6619ZM25.9004 24.6364H27.3748L28.389 27.108H28.4402L29.4544 24.6364H30.9288V29H29.7697V26.4773H29.7356L28.764 28.9659H28.0652L27.0936 26.4602H27.0595V29H25.9004V24.6364ZM31.4902 29V24.6364H32.6749V28.0455H34.4391V29H31.4902Z" fill="#0787FF"/>
</svg>
