<svg width="48" height="48" viewBox="0 0 48 48" fill="none" xmlns="http://www.w3.org/2000/svg">
<path d="M35 35.5V38C35 39.1046 34.1046 40 33 40H10C8.89543 40 8 39.1046 8 38V10C8 8.89543 8.89543 8 10 8H33C34.1046 8 35 8.89543 35 10V21.5" stroke="#0787FF" stroke-width="2"/>
<rect x="18" y="22" width="22" height="13" rx="2" stroke="#EC7838"/>
<path d="M23.5581 29.6984H21.9642V28.3748H23.5581C23.7753 28.3748 23.9514 28.3341 24.0864 28.2527C24.2214 28.1713 24.3198 28.059 24.3814 27.9158C24.446 27.7692 24.4783 27.6048 24.4783 27.4225C24.4783 27.2271 24.446 27.0464 24.3814 26.8803C24.3198 26.7143 24.2214 26.5808 24.0864 26.4799C23.9514 26.3757 23.7753 26.3236 23.5581 26.3236H22.5454V32.1111H21V25H23.5581C24.0717 25 24.5135 25.1042 24.8833 25.3126C25.2561 25.521 25.5423 25.8075 25.7419 26.1722C25.9415 26.5336 26.0413 26.9471 26.0413 27.4127C26.0413 27.8718 25.9415 28.2723 25.7419 28.6142C25.5423 28.956 25.2561 29.223 24.8833 29.4151C24.5135 29.604 24.0717 29.6984 23.5581 29.6984Z" fill="#0787FF"/>
<path d="M28.956 32.1111H27.5338L27.5427 30.7924H28.956C29.2495 30.7924 29.4975 30.7143 29.7001 30.558C29.9055 30.4017 30.0611 30.1689 30.1668 29.8596C30.2754 29.547 30.3297 29.1628 30.3297 28.707V28.3993C30.3297 28.0574 30.2988 27.7578 30.2372 27.5006C30.1785 27.2401 30.0904 27.0236 29.973 26.851C29.8556 26.6752 29.7089 26.5433 29.5327 26.4554C29.3596 26.3675 29.16 26.3236 28.934 26.3236H27.5074V25H28.934C29.3684 25 29.7661 25.083 30.1271 25.2491C30.4911 25.4119 30.8052 25.6463 31.0693 25.9524C31.3365 26.2552 31.5419 26.615 31.6857 27.0317C31.8325 27.4453 31.9059 27.9044 31.9059 28.409V28.707C31.9059 29.2084 31.8325 29.6675 31.6857 30.0842C31.5419 30.501 31.3379 30.8608 31.0737 31.1636C30.8096 31.4664 30.497 31.7009 30.1359 31.8669C29.7778 32.0297 29.3845 32.1111 28.956 32.1111ZM28.4188 25V32.1111H26.8734V25H28.4188Z" fill="#0787FF"/>
<path d="M34.257 25V32.1111H32.7116V25H34.257ZM36.749 27.9597V29.2784H33.8167V27.9597H36.749ZM37 25V26.3236H33.8167V25H37Z" fill="#0787FF"/>
</svg>