<svg width="48" height="48" viewBox="0 0 48 48" fill="none" xmlns="http://www.w3.org/2000/svg">
<path d="M35 38L35 44C35 45.1046 34.1046 46 33 46H9C7.89543 46 7 45.1046 7 44V10C7 8.89543 7.89543 8 9 8H24.4882M35 25.8125V18.6875M35 18.6875L24.4882 8M35 18.6875H26.4882C25.3836 18.6875 24.4882 17.7921 24.4882 16.6875V8" stroke="#0787FF" stroke-width="2"/>
<rect x="13" y="25.3438" width="25.4375" height="12.7188" rx="2.3125" stroke="#EC7838"/>
<path d="M20.5581 32.9643H18.9642V31.8475H20.5581C20.7753 31.8475 20.9514 31.8132 21.0864 31.7445C21.2214 31.6758 21.3198 31.581 21.3814 31.4602C21.446 31.3365 21.4783 31.1978 21.4783 31.044C21.4783 30.8791 21.446 30.7266 21.3814 30.5865C21.3198 30.4464 21.2214 30.3338 21.0864 30.2486C20.9514 30.1607 20.7753 30.1168 20.5581 30.1168H19.5454V35H18V29H20.5581C21.0717 29 21.5135 29.0879 21.8833 29.2637C22.2561 29.4396 22.5423 29.6813 22.7419 29.989C22.9415 30.294 23.0413 30.6429 23.0413 31.0357C23.0413 31.4231 22.9415 31.761 22.7419 32.0495C22.5423 32.3379 22.2561 32.5632 21.8833 32.7253C21.5135 32.8846 21.0717 32.9643 20.5581 32.9643Z" fill="#0787FF"/>
<path d="M25.956 35H24.5338L24.5427 33.8874H25.956C26.2495 33.8874 26.4975 33.8214 26.7001 33.6896C26.9055 33.5577 27.0611 33.3613 27.1668 33.1003C27.2754 32.8365 27.3297 32.5124 27.3297 32.1277V31.8681C27.3297 31.5797 27.2988 31.3269 27.2372 31.1099C27.1785 30.8901 27.0904 30.7074 26.973 30.5618C26.8556 30.4135 26.7089 30.3022 26.5327 30.228C26.3596 30.1538 26.16 30.1168 25.934 30.1168H24.5074V29H25.934C26.3684 29 26.7661 29.0701 27.1271 29.2102C27.4911 29.3475 27.8052 29.5453 28.0693 29.8036C28.3365 30.0591 28.5419 30.3626 28.6857 30.7143C28.8325 31.0632 28.9059 31.4505 28.9059 31.8764V32.1277C28.9059 32.5508 28.8325 32.9382 28.6857 33.2898C28.5419 33.6415 28.3379 33.9451 28.0737 34.2005C27.8096 34.456 27.497 34.6538 27.1359 34.794C26.7778 34.9313 26.3845 35 25.956 35ZM25.4188 29V35H23.8734V29H25.4188Z" fill="#0787FF"/>
<path d="M31.257 29V35H29.7116V29H31.257ZM33.749 31.4973V32.6099H30.8167V31.4973H33.749ZM34 29V30.1168H30.8167V29H34Z" fill="#0787FF"/>
<path d="M35 43H40C41.1046 43 42 42.1046 42 41V5C42 3.89543 41.1046 3 40 3H16C14.8954 3 14 3.89543 14 5V9" stroke="#0787FF" stroke-width="2"/>
</svg>
