<svg width="48" height="48" viewBox="0 0 48 48" fill="none" xmlns="http://www.w3.org/2000/svg">
<path d="M35 35.5V37C35 38.6569 33.6569 40 32 40H11C9.34315 40 8 38.6569 8 37V11C8 9.34315 9.34315 8 11 8H32C33.6569 8 35 9.34315 35 11V21.5" stroke="#0787FF" stroke-width="2"/>
<path d="M16.5581 16.6984H14.9642V15.3748H16.5581C16.7753 15.3748 16.9514 15.3341 17.0864 15.2527C17.2214 15.1713 17.3198 15.059 17.3814 14.9158C17.446 14.7692 17.4783 14.6048 17.4783 14.4225C17.4783 14.2271 17.446 14.0464 17.3814 13.8803C17.3198 13.7143 17.2214 13.5808 17.0864 13.4799C16.9514 13.3757 16.7753 13.3236 16.5581 13.3236H15.5454V19.1111H14V12H16.5581C17.0717 12 17.5135 12.1042 17.8833 12.3126C18.2561 12.521 18.5423 12.8075 18.7419 13.1722C18.9415 13.5336 19.0413 13.9471 19.0413 14.4127C19.0413 14.8718 18.9415 15.2723 18.7419 15.6142C18.5423 15.956 18.2561 16.223 17.8833 16.4151C17.5135 16.604 17.0717 16.6984 16.5581 16.6984Z" fill="#0787FF"/>
<path d="M21.956 19.1111H20.5338L20.5427 17.7924H21.956C22.2495 17.7924 22.4975 17.7143 22.7001 17.558C22.9055 17.4017 23.0611 17.1689 23.1668 16.8596C23.2754 16.547 23.3297 16.1628 23.3297 15.707V15.3993C23.3297 15.0574 23.2988 14.7578 23.2372 14.5006C23.1785 14.2401 23.0904 14.0236 22.973 13.851C22.8556 13.6752 22.7089 13.5433 22.5327 13.4554C22.3596 13.3675 22.16 13.3236 21.934 13.3236H20.5074V12H21.934C22.3684 12 22.7661 12.083 23.1271 12.2491C23.4911 12.4119 23.8052 12.6463 24.0693 12.9524C24.3365 13.2552 24.5419 13.615 24.6857 14.0317C24.8325 14.4453 24.9059 14.9044 24.9059 15.409V15.707C24.9059 16.2084 24.8325 16.6675 24.6857 17.0842C24.5419 17.501 24.3379 17.8608 24.0737 18.1636C23.8096 18.4664 23.497 18.7009 23.1359 18.8669C22.7778 19.0297 22.3845 19.1111 21.956 19.1111ZM21.4188 12V19.1111H19.8734V12H21.4188Z" fill="#0787FF"/>
<path d="M27.257 12V19.1111H25.7116V12H27.257ZM29.749 14.9597V16.2784H26.8167V14.9597H29.749ZM30 12V13.3236H26.8167V12H30Z" fill="#0787FF"/>
<rect x="18" y="22" width="22" height="13" rx="2" stroke="#EC7838"/>
<path d="M25.2621 25C26.186 28.9585 27.054 35.6141 23.1351 30.5687C22.5545 29.4261 23.9956 28.7572 24.6176 28.7572C26.4799 28.7572 29.8772 30.6761 29.5162 26.8115C29.86 28.5783 30.7796 31.3336 31.7077 28.2205C32.2085 29.0612 33.421 30.2989 35 30.1542" stroke="#0787FF" stroke-width="0.923077" stroke-linecap="round"/>
</svg>
