<svg width="49" height="49" viewBox="0 0 49 49" fill="none" xmlns="http://www.w3.org/2000/svg">
<path fill-rule="evenodd" clip-rule="evenodd" d="M4 10.8333V17.6667H10.8333H17.6667V10.8333V4H10.8333H4V10.8333ZM23.5238 6.92857V9.85714H25.4762H27.4286V10.8333V11.8095H23.5238H19.619V15.7143V19.619H17.6667H15.7143V20.5952V21.5714H13.7619H11.8095V20.5952V19.619H10.8333H9.85714V20.5952V21.5714H10.8333H11.8095V22.5476V23.5238H13.7619H15.7143V24.5V25.4762H16.6905H17.6667V26.4524V27.4286H16.6905H15.7143V28.4048V29.381H16.6905H17.6667V28.4048V27.4286H18.6429H19.619V30.3571V33.2857H20.5952H21.5714V34.2619V35.2381H23.5238H25.4762V34.2619V33.2857H27.4286H29.381V32.3095V31.3333H30.3571H31.3333V33.2857V35.2381H29.381H27.4286V36.2143V37.1905H28.4048H29.381V39.1429V41.0952H28.4048H27.4286V40.119V39.1429H26.4524H25.4762V38.1667V37.1905H24.5H23.5238V38.1667V39.1429H22.5476H21.5714V38.1667V37.1905H20.5952H19.619V38.1667V39.1429H20.5952H21.5714V40.119V41.0952H20.5952H19.619V43.0476V45H20.5952H21.5714V43.0476V41.0952H22.5476H23.5238V43.0476V45H24.5H25.4762V44.0238V43.0476H27.4286H29.381V44.0238V45H30.3571H31.3333V44.0238V43.0476H30.3571H29.381V42.0714V41.0952H31.3333H33.2857V40.119V39.1429H34.2619H35.2381V40.119V41.0952H36.2143H37.1905V40.119V39.1429H38.1667H39.1429V40.119V41.0952H40.119H41.0952V40.119V39.1429H42.0714H43.0476V40.119V41.0952H44.0238H45V39.1429V37.1905H44.0238H43.0476V34.2619V31.3333H42.0714H41.0952V30.3571V29.381H40.119H39.1429V30.3571V31.3333H37.1905H35.2381V32.3095V33.2857H34.2619H33.2857V30.3571V27.4286H36.2143H39.1429V26.4524V25.4762H40.119H41.0952V26.4524V27.4286H43.0476H45V24.5V21.5714H44.0238H43.0476V20.5952V19.619H41.0952H39.1429V20.5952V21.5714H40.119H41.0952V22.5476V23.5238H39.1429H37.1905V21.5714V19.619H34.2619H31.3333V20.5952V21.5714H30.3571H29.381V20.5952V19.619H26.4524H23.5238V21.5714V23.5238H22.5476H21.5714V22.5476V21.5714H20.5952H19.619V20.5952V19.619H20.5952H21.5714V17.6667V15.7143H22.5476H23.5238V16.6905V17.6667H24.5H25.4762V15.7143V13.7619H27.4286H29.381V11.8095V9.85714H28.4048H27.4286V8.88095V7.90476H28.4048H29.381V5.95238V4H28.4048H27.4286V5.95238V7.90476H26.4524H25.4762V5.95238V4H24.5H23.5238V6.92857ZM31.3333 10.8333V17.6667H38.1667H45V10.8333V4H38.1667H31.3333V10.8333ZM15.7143 10.8333V15.7143H10.8333H5.95238V10.8333V5.95238H10.8333H15.7143V10.8333ZM19.619 7.90476V9.85714H20.5952H21.5714V7.90476V5.95238H20.5952H19.619V7.90476ZM43.0476 10.8333V15.7143H38.1667H33.2857V10.8333V5.95238H38.1667H43.0476V10.8333ZM7.90476 10.8333V13.7619H10.8333H13.7619V10.8333V7.90476H10.8333H7.90476V10.8333ZM35.2381 10.8333V13.7619H38.1667H41.0952V10.8333V7.90476H38.1667H35.2381V10.8333ZM27.4286 16.6905V17.6667H28.4048H29.381V16.6905V15.7143H28.4048H27.4286V16.6905ZM4 21.5714V23.5238H5.95238H7.90476V21.5714V19.619H5.95238H4V21.5714ZM17.6667 22.5476V23.5238H18.6429H19.619V24.5V25.4762H20.5952H21.5714V26.4524V27.4286H22.5476H23.5238V26.4524V25.4762H25.4762H27.4286V23.5238V21.5714H28.4048H29.381V22.5476V23.5238H30.3571H31.3333V24.5V25.4762H29.381H27.4286V26.4524V27.4286H29.381H31.3333V28.4048V29.381H30.3571H29.381V30.3571V31.3333H27.4286H25.4762V30.3571V29.381H23.5238H21.5714V28.4048V27.4286H20.5952H19.619V26.4524V25.4762H18.6429H17.6667V24.5V23.5238H16.6905H15.7143V22.5476V21.5714H16.6905H17.6667V22.5476ZM37.1905 24.5V25.4762H35.2381H33.2857V24.5V23.5238H35.2381H37.1905V24.5ZM43.0476 24.5V25.4762H42.0714H41.0952V24.5V23.5238H42.0714H43.0476V24.5ZM4 27.4286V29.381H4.97619H5.95238V28.4048V27.4286H6.92857H7.90476V28.4048V29.381H8.88095H9.85714V27.4286V25.4762H6.92857H4V27.4286ZM25.4762 28.4048V29.381H26.4524H27.4286V28.4048V27.4286H26.4524H25.4762V28.4048ZM4 38.1667V45H10.8333H17.6667V38.1667V31.3333H10.8333H4V38.1667ZM23.5238 32.3095V33.2857H22.5476H21.5714V32.3095V31.3333H22.5476H23.5238V32.3095ZM15.7143 38.1667V43.0476H10.8333H5.95238V38.1667V33.2857H10.8333H15.7143V38.1667ZM41.0952 35.2381V37.1905H37.1905H33.2857V36.2143V35.2381H34.2619H35.2381V34.2619V33.2857H38.1667H41.0952V35.2381ZM7.90476 38.1667V41.0952H10.8333H13.7619V38.1667V35.2381H10.8333H7.90476V38.1667ZM25.4762 40.119V41.0952H24.5H23.5238V40.119V39.1429H24.5H25.4762V40.119ZM33.2857 44.0238V45H34.2619H35.2381V44.0238V43.0476H34.2619H33.2857V44.0238ZM37.1905 44.0238V45H38.1667H39.1429V44.0238V43.0476H38.1667H37.1905V44.0238ZM41.0952 44.0238V45H42.0714H43.0476V44.0238V43.0476H42.0714H41.0952V44.0238Z" fill="#0787FF"/>
</svg>
