<svg width="49" height="49" viewBox="0 0 49 49" fill="none" xmlns="http://www.w3.org/2000/svg">
<path fill-rule="evenodd" clip-rule="evenodd" d="M8 13.5V19H13.5H19V13.5V8H13.5H8V13.5ZM23.7143 10.3571V12.7143H25.2857H26.8571V13.5V14.2857H23.7143H20.5714V17.4286V20.5714H19H17.4286V21.3571V22.1429H15.8571H14.2857V21.3571V20.5714H13.5H12.7143V21.3571V22.1429H13.5H14.2857V22.9286V23.7143H15.8571H17.4286V24.5V25.2857H18.2143H19V26.0714V26.8571H18.2143H17.4286V27.6429V28.4286H18.2143H19V27.6429V26.8571H19.7857H20.5714V29.2143V31.5714H21.3571H22.1429V32.3571V33.1429H23.7143H25.2857V32.3571V31.5714H26.8571H28.4286V30.7857V30H29.2143H30V31.5714V33.1429H28.4286H26.8571V33.9286V34.7143H27.6429H28.4286V36.2857V37.8571H27.6429H26.8571V37.0714V36.2857H26.0714H25.2857V35.5V34.7143H24.5H23.7143V35.5V36.2857H22.9286H22.1429V35.5V34.7143H21.3571H20.5714V35.5V36.2857H21.3571H22.1429V37.0714V37.8571H21.3571H20.5714V39.4286V41H21.3571H22.1429V39.4286V37.8571H22.9286H23.7143V39.4286V41H24.5H25.2857V40.2143V39.4286H26.8571H28.4286V40.2143V41H29.2143H30V40.2143V39.4286H29.2143H28.4286V38.6429V37.8571H30H31.5714V37.0714V36.2857H32.3571H33.1429V37.0714V37.8571H33.9286H34.7143V37.0714V36.2857H35.5H36.2857V37.0714V37.8571H37.0714H37.8571V37.0714V36.2857H38.6429H39.4286V37.0714V37.8571H40.2143H41V36.2857V34.7143H40.2143H39.4286V32.3571V30H38.6429H37.8571V29.2143V28.4286H37.0714H36.2857V29.2143V30H34.7143H33.1429V30.7857V31.5714H32.3571H31.5714V29.2143V26.8571H33.9286H36.2857V26.0714V25.2857H37.0714H37.8571V26.0714V26.8571H39.4286H41V24.5V22.1429H40.2143H39.4286V21.3571V20.5714H37.8571H36.2857V21.3571V22.1429H37.0714H37.8571V22.9286V23.7143H36.2857H34.7143V22.1429V20.5714H32.3571H30V21.3571V22.1429H29.2143H28.4286V21.3571V20.5714H26.0714H23.7143V22.1429V23.7143H22.9286H22.1429V22.9286V22.1429H21.3571H20.5714V21.3571V20.5714H21.3571H22.1429V19V17.4286H22.9286H23.7143V18.2143V19H24.5H25.2857V17.4286V15.8571H26.8571H28.4286V14.2857V12.7143H27.6429H26.8571V11.9286V11.1429H27.6429H28.4286V9.57143V8H27.6429H26.8571V9.57143V11.1429H26.0714H25.2857V9.57143V8H24.5H23.7143V10.3571ZM30 13.5V19H35.5H41V13.5V8H35.5H30V13.5ZM17.4286 13.5V17.4286H13.5H9.57143V13.5V9.57143H13.5H17.4286V13.5ZM20.5714 11.1429V12.7143H21.3571H22.1429V11.1429V9.57143H21.3571H20.5714V11.1429ZM39.4286 13.5V17.4286H35.5H31.5714V13.5V9.57143H35.5H39.4286V13.5ZM11.1429 13.5V15.8571H13.5H15.8571V13.5V11.1429H13.5H11.1429V13.5ZM33.1429 13.5V15.8571H35.5H37.8571V13.5V11.1429H35.5H33.1429V13.5ZM26.8571 18.2143V19H27.6429H28.4286V18.2143V17.4286H27.6429H26.8571V18.2143ZM8 22.1429V23.7143H9.57143H11.1429V22.1429V20.5714H9.57143H8V22.1429ZM19 22.9286V23.7143H19.7857H20.5714V24.5V25.2857H21.3571H22.1429V26.0714V26.8571H22.9286H23.7143V26.0714V25.2857H25.2857H26.8571V23.7143V22.1429H27.6429H28.4286V22.9286V23.7143H29.2143H30V24.5V25.2857H28.4286H26.8571V26.0714V26.8571H28.4286H30V27.6429V28.4286H29.2143H28.4286V29.2143V30H26.8571H25.2857V29.2143V28.4286H23.7143H22.1429V27.6429V26.8571H21.3571H20.5714V26.0714V25.2857H19.7857H19V24.5V23.7143H18.2143H17.4286V22.9286V22.1429H18.2143H19V22.9286ZM34.7143 24.5V25.2857H33.1429H31.5714V24.5V23.7143H33.1429H34.7143V24.5ZM39.4286 24.5V25.2857H38.6429H37.8571V24.5V23.7143H38.6429H39.4286V24.5ZM8 26.8571V28.4286H8.78571H9.57143V27.6429V26.8571H10.3571H11.1429V27.6429V28.4286H11.9286H12.7143V26.8571V25.2857H10.3571H8V26.8571ZM25.2857 27.6429V28.4286H26.0714H26.8571V27.6429V26.8571H26.0714H25.2857V27.6429ZM8 35.5V41H13.5H19V35.5V30H13.5H8V35.5ZM23.7143 30.7857V31.5714H22.9286H22.1429V30.7857V30H22.9286H23.7143V30.7857ZM17.4286 35.5V39.4286H13.5H9.57143V35.5V31.5714H13.5H17.4286V35.5ZM37.8571 33.1429V34.7143H34.7143H31.5714V33.9286V33.1429H32.3571H33.1429V32.3571V31.5714H35.5H37.8571V33.1429ZM11.1429 35.5V37.8571H13.5H15.8571V35.5V33.1429H13.5H11.1429V35.5ZM25.2857 37.0714V37.8571H24.5H23.7143V37.0714V36.2857H24.5H25.2857V37.0714ZM31.5714 40.2143V41H32.3571H33.1429V40.2143V39.4286H32.3571H31.5714V40.2143ZM34.7143 40.2143V41H35.5H36.2857V40.2143V39.4286H35.5H34.7143V40.2143ZM37.8571 40.2143V41H38.6429H39.4286V40.2143V39.4286H38.6429H37.8571V40.2143Z" fill="#0787FF"/>
</svg>
