<svg width="175" height="111" viewBox="0 0 175 111" fill="none" xmlns="http://www.w3.org/2000/svg">
<path d="M24.5128 39.6986C23.4161 38.4799 22.7506 34.157 23.0882 35.0685C27.7441 47.6392 31.141 60.6917 34.7524 73.6227C35.923 77.8145 42.4119 109.593 51.4028 94.9032C56.8769 85.9596 57.5467 72.8164 58.7931 62.7599C60.4327 49.5319 62.7716 34.8734 60.8411 21.5344C58.2618 3.71359 44.6658 17.8884 41.1632 27.1884C36.2016 40.3624 38.1072 58.249 51.759 65.0749C65.8748 72.1328 82.0949 62.2119 89.4674 50.1608C94.411 42.0799 97.7606 32.711 95.7001 23.1817C94.3658 17.0103 89.2549 12.1885 83.0119 16.3701C69.0313 25.7346 70.7779 50.7866 74.9984 64.3626C78.5044 75.6401 94.6954 87.0636 103.58 74.0679C106.924 69.1762 108.961 63.7674 110.881 58.2188C111.937 55.1698 111.525 56.5797 111.238 58.486C110.446 63.7334 112.922 72.4922 119.073 66.9002C124.095 62.3344 124.66 65.337 129.98 67.7016C137.556 71.0685 138.049 62.4545 143.47 61.4688C145.096 61.1732 145.63 66.4911 148.768 66.0989C149.932 65.9534 156.248 62.938 152.73 62.938" stroke="#344054" stroke-width="3" stroke-linecap="round"/>
</svg>
