<svg width="48" height="48" viewBox="0 0 48 48" fill="none" xmlns="http://www.w3.org/2000/svg">
<mask id="path-1-inside-1_24_23" fill="white">
<rect x="12.8042" y="5.42285" width="22.3916" height="22.5655" rx="0.786771"/>
</mask>
<rect x="12.8042" y="5.42285" width="22.3916" height="22.5655" rx="0.786771" fill="#FF8900" stroke="#FF8900" stroke-width="2.83238" mask="url(#path-1-inside-1_24_23)"/>
<ellipse cx="15.7337" cy="30.9997" rx="12.0728" ry="11.8913" fill="#0787FF"/>
<path d="M30.5499 18.2657L41.2194 37.3282C41.2293 37.3458 41.2307 37.358 41.2304 37.367C41.2301 37.3781 41.2268 37.3919 41.2186 37.4058C41.2105 37.4196 41.2001 37.4293 41.1906 37.435C41.1828 37.4396 41.1715 37.4443 41.1513 37.4443H19.8123C19.7921 37.4443 19.7807 37.4396 19.773 37.435C19.7634 37.4293 19.7531 37.4196 19.7449 37.4058C19.7368 37.3919 19.7334 37.3781 19.7331 37.367C19.7329 37.358 19.7343 37.3458 19.7442 37.3282L30.4137 18.2657C30.424 18.2473 30.4338 18.2398 30.4415 18.2354C30.4512 18.23 30.4651 18.2257 30.4818 18.2257C30.4984 18.2257 30.5123 18.23 30.522 18.2354C30.5297 18.2398 30.5396 18.2473 30.5499 18.2657Z" fill="#FFDE33" stroke="#FFDE33" stroke-width="1.40506"/>
</svg>
